<svg viewBox="0 0 1254.7 679.34" xmlns="http://www.w3.org/2000/svg"><path d="m0 0h1254.7v679.34h-1254.7z" fill="none"/><path d="m64.66 53.53c0 3.29.23 6.53-.04 9.71-.79 9.05-5.94 12.46-13.71 13.08-3.7.29-6.8-2.57-7.52-6.67-1.21-6.87.84-12.95 4.61-18.58.88-1.32 1.84-2.58 2.82-3.94-10.56-.4-30.02 23.81-27.06 33.31-.61-.68-1.77-1.38-1.75-2.05.06-2.16.03-4.59.98-6.43 4.33-8.42 9.22-16.57 16.93-22.36 2.89-2.17 6.55-3.37 9.97-4.76 3.93-1.6 7.99-2.88 11.93-4.46.54-.22.77-1.32 1.05-2.04 2.16-5.51 4.9-10.57 9.97-14.06 6.92-4.77 13.98-3.33 21.1-.68 4.09 1.52 4.08 1.56 7.44-.09-.51 3.25-1.83 4.04-4.73 3.12-3.83-1.22-7.64-2.79-11.58-3.3-10.97-1.43-17.96 6.8-20.22 16.16 2.21.51 4.47.85 6.6 1.56 4.35 1.46 5.74 3.28 5.35 6.51-.35 2.88-3.9 6.07-7.26 6.31-1.48.11-2.99-.19-4.87-.33zm-1.55 6.37c-.08-5.08-.75-9.82-5.72-12.49-.94-.51-2.94-.44-3.63.22-5.92 5.65-9.33 12.45-8.56 20.89.26 2.87 2.27 5.34 4.7 5.43 5.33.19 10.44-1.18 12.17-7.86.52-2.02.71-4.12 1.05-6.19zm.64-18.36c.39 2.68.71 4.06.77 5.44.11 2.49 1.15 4.64 3.6 4.92 2.58.29 4.83-1.04 6.07-3.6.96-1.98.6-3.78-1.43-4.51-2.64-.95-5.46-1.39-9.01-2.25zm-2.09.97c-1.6.8-2.66 1.34-4.05 2.04 1.7 1.19 3.04 2.12 4.74 3.3-.24-1.86-.42-3.29-.68-5.34z"/><path d="m1064.16 510.28c-6.18 4.36-10.38 9.35-10.45 16.93-.01 1.64-.26 3.27-.4 4.91-.41 4.77-.64 9.47 4.8 12.02-2.46 1.55-4.99.47-6.26-2.29-3.1-6.71-.18-22.89 5.12-28.16 1.87-1.86 4-3.49 5.75-5.45.73-.81.92-2.19 1.14-3.35 1.07-5.77.86-12.17 3.39-17.2 3.45-6.86 5.11-14.24 8.16-21.14 5.61-12.72 14.04-23.66 22.28-34.7.93-1.25 2.45-2.19 3.88-2.87.67-.32 2.25.05 2.62.63.41.64.18 2.04-.29 2.76-.34.51-1.59.34-2.36.67-1.19.5-2.75.86-3.38 1.8-5.77 8.48-11.55 16.96-16.95 25.68-2.45 3.97-4.04 8.47-6.37 13.48 5.92-2.65 10.53-5.14 15.43-6.71 1.98-.64 5.07.1 6.77 1.38 1.01.76.84 3.97.27 5.79-2.22 7.06-6.8 12.6-12.91 16.54-5.69 3.67-9.69 1.99-12.33-4.3-.17-.41-.63-.71-1.02-1.14-4.14 6.07-4.95 12.62-3.91 19.51 4.74-.98 9.44-2.38 14.23-2.79 2.75-.23 7.03.26 8.14 2 1.9 3-.74 6.46-3.4 8.34-3.6 2.54-7.55 5.25-11.72 6.15-5.45 1.18-6.59-.15-8.93-5.24-.42-.9-.74-1.85-1.29-3.24zm27.99-40.78c-5.3.77-9.78 3.35-13.93 6.66-2.72 2.17-4.13 4.72-3.8 8.44.44 5.13 3.89 7.33 8.21 4.45 5.78-3.85 9.85-9.25 12.41-15.71 1.05-2.64.4-4.21-2.88-3.83zm-4.98 35.34c-7.5-1.27-14.07.81-21.03 4.91 1.71 2.3 2.75 5.18 4.69 6.03 5.22 2.3 15.52-3.93 16.55-9.51.08-.45-.13-.95-.21-1.44z"/><path d="m974.74 270.24c-.88-7.51-3.25-13.59-9.88-17.27-1.43-.79-2.75-1.79-4.12-2.7-3.99-2.64-8.01-5.09-12.86-1.53-.18-2.9 1.97-4.6 5.01-4.4 7.37.49 20.19 10.78 22.28 17.96.74 2.54 1.16 5.18 2.04 7.66.37 1.03 1.48 1.86 2.4 2.6 4.56 3.7 10.28 6.57 13.49 11.2 4.38 6.31 10.06 11.3 14.67 17.27 8.49 11 14.07 23.64 19.84 36.15.65 1.41.76 3.2.67 4.78-.04.74-1.12 1.95-1.8 2-.75.06-1.88-.81-2.28-1.58-.29-.54.46-1.56.54-2.39.13-1.28.56-2.82.04-3.83-4.69-9.12-9.38-18.26-14.46-27.16-2.31-4.05-5.51-7.6-8.79-12.04-.5 6.47-.52 11.71-1.48 16.77-.39 2.05-2.51 4.4-4.45 5.28-1.15.52-3.89-1.16-5.21-2.53-5.14-5.32-7.81-12-8.36-19.24-.51-6.75 2.88-9.47 9.67-8.78.45.05.92-.21 1.49-.35-3.35-6.53-8.72-10.38-15.27-12.76-1.4 4.63-2.42 9.43-4.35 13.83-1.11 2.52-3.59 6.05-5.65 6.19-3.54.24-5.32-3.74-5.7-6.97-.52-4.38-1.01-9.14.19-13.24 1.57-5.35 3.28-5.72 8.87-5.35.99.07 1.98.23 3.46.41zm22.45 44.07c1.86-5.02 1.73-10.19.81-15.42-.61-3.43-2.18-5.88-5.6-7.37-4.72-2.06-8.29-.08-7.83 5.08.62 6.92 3.42 13.07 7.87 18.41 1.82 2.18 3.51 2.36 4.74-.7zm-28.66-21.26c4.7-5.98 6.02-12.75 5.73-20.82-2.83.4-5.86-.06-7.54 1.23-4.51 3.49-3.96 15.51.44 19.08.35.29.9.34 1.37.5z"/><path d="m370.87 29.6c-12.58.36-20.25 8.3-27.55 16.19 3.39.81 6.61 1.4 9.7 2.37 3.61 1.13 4.74 3.92 2.67 6.97-2.01 2.97-5.29 3.68-8.75 3.94-3.26.25-5.74-.8-7.32-3.62-.55-.99-.67-2.22-1.06-3.62-5.93 2.78-10.21 6.95-13.35 12.43.26.15.42.32.58.32 9.32.2 11.05 5.33 11.11 14.37 0 .93-.76 2.17-1.54 2.75-4.19 3.05-9.1 3.67-14.02 3.03-5.04-.65-5.63-6.38-4.26-10.71.47-1.48 1.26-2.85 2.03-4.55-.65.14-.97.11-1.15.26-6.45 5.51-12.9 11.09-15.86 19.37-1.02 2.85-2.4 6.21 1.36 8.51-2.09 1.49-3.6.82-3.97-1.39-1.12-6.78 2.07-12.17 6.09-16.92 3.69-4.37 7.85-8.53 12.45-11.88 2.96-2.15 5.32-4.55 7.68-7.23 2.67-3.05 5.56-6.2 8.99-8.25 3.91-2.33 5.79-6.14 8.71-9.15 6.09-6.26 12.38-12.36 21.33-14.35 1.78-.4 3.73-.06 5.61-.06.17.41.35.82.52 1.23zm-47.14 53.24c1.58-.1 2.61-.06 3.59-.25 7.06-1.34 7.81-2.1 7.46-7.41-.26-3.93-2.63-7.46-5.48-8.16-4.33-1.06-6.25-.02-8.82 4.83-.46.87-1.11 1.72-1.32 2.65-1 4.54-.71 9.15 4.57 8.34zm23.39-34.55c-.05.14-.1.28-.15.42-.5 0-1.08-.16-1.5.03-1.56.73-3.71 1.21-4.42 2.47-1 1.77.35 3.56 1.98 4.86 2.34 1.87 9.52.68 10.71-2.07.41-.94.09-3.02-.58-3.43-1.81-1.09-4-1.56-6.04-2.28z"/><path d="m796.39 556.01c-7.04 3.89-12.88 8.41-16.21 15.54.22.21.39.51.55.5 12.01-.5 14.05 8.39 14.4 17.38.14 3.72-2.9 5.33-5.78 6.03-4.13 1.01-8.44 1.59-12.7 1.72-4.41.13-7.47-3.15-7.1-7.51.34-3.9 1.43-7.73 2.19-11.58-.04.03-.63.27-1.08.65-7.98 6.78-15.91 13.66-19.48 23.95-.84 2.43-.89 5.22-.8 7.83.03.98 1.47 1.91 2.76 3.45-2.96.45-5.09-.16-4.97-2.93.17-4.07.15-8.63 1.96-12.06 5.77-10.92 13.92-19.85 24.88-26.04 1.9-1.07 3.37-3.19 4.62-5.1 3.88-5.93 9.15-10.24 15.14-13.83 1.27-.76 2.76-1.58 3.46-2.77 4.92-8.33 12.34-13.99 19.92-19.66 4.69-3.51 9.71-5.11 15.33-5.36 1.18-.05 2.38.48 3.69 1.39-15.57.59-24.77 10.98-34.34 20.58 4.47 1.18 8.69 2.1 12.77 3.43 3.89 1.27 5 4.96 2.71 8.35-3.38 5.01-15.17 8.05-19.42 1.52-1.05-1.61-1.62-3.53-2.49-5.5zm-3.6 31.4c-.96-3.07-1.59-6.3-2.95-9.18-1.86-3.94-10.5-5.16-12.77-1.86-1.97 2.86-3.76 5.95-5 9.19-1.84 4.8 1.49 9.68 5.97 9.3 1.85-.16 3.69-.43 5.53-.61 5.75-.54 8.71-2.8 9.21-6.83zm13.66-24.12c3.27-1.46 6.35-2.45 8.91-4.2.81-.56.8-4.31.2-4.6-3.86-1.87-7.81-3.95-12.43-1.99-3.21 1.36-4.54 4.27-2.33 6.99 1.27 1.56 3.45 2.38 5.66 3.81z"/><path d="m94.31 318.24c-1.02-.06-2.36.26-2.98-.27-.62-.54-1.04-2.19-.66-2.87 2.73-4.86 5.12-10.07 8.7-14.25 5.1-5.97 10.45-11.76 15.66-17.65 2.17-2.46 5.34-4.03 8.03-6.03.75-.56 1.8-1.09 2.09-1.86 3.62-9.72 11.17-14.59 20.74-17.02.53-.14 1.03-.42 1.52-.67.67-.34 1.3-.92 1.98-.98.28-.02 1.06 1.25.9 1.57-.34.68-1.07 1.37-1.8 1.63-3.48 1.26-7.06 2.23-10.5 3.57-5.76 2.25-8.76 6.95-11.03 13.01 3.15 0 5.88-.31 8.49.13 1.38.23 3.23 1.51 3.68 2.75 2.48 6.86-3.3 14.25-10.54 13.78-2.81-.18-4.77-2.17-4.91-5.07-.07-1.42-.02-2.84-.02-4.25 0-1.31 0-2.63 0-4.48-5.56 2.19-8.63 6.44-12.27 11.13 2.64 0 4.58-.25 6.42.08 1.48.26 3.49.82 4.13 1.92 2.31 3.93 2.7 8.33.46 12.4-2.21 4.03-5.11 7.54-10.42 7.49-3.24-.04-4.9-1.59-5.29-5.2-.35-3.27-.56-6.56-.93-10.9-2.88 3.47-5.37 6.23-7.57 9.21-1.83 2.49-3.32 5.24-4.93 7.89-1.06 1.74-1.61 3.39 1.49 4.11-.15.28-.31.56-.46.83zm14.16-16.87c-.1.02-.19.03-.29.05.36 2.26.59 4.55 1.12 6.77.42 1.74 1.37 2.55 3.54 2 6.54-1.69 10.55-8.68 8.18-15.07-.43-1.14-1.75-2.42-2.91-2.74-5.77-1.62-9.63 1.48-9.64 7.49v1.51zm17.59-23.07c0 3.84-.25 7.04.15 10.15.12.96 1.95 2.39 3.04 2.43 5.14.19 9.25-4.69 8.28-9.74-.2-1.06-1.46-2.59-2.38-2.71-2.86-.35-5.8-.13-9.1-.13z"/><path d="m339.21 281.2c2.5-1.97 1.3-3.23-.4-4.35-2.59-1.71-5.1-3.56-7.82-5.04-3.25-1.77-6.69-3.2-10.77-5.11 1.52 4.08 2.72 7.15 3.8 10.26 1.19 3.43.34 5.54-2.57 6.95-4.78 2.31-8.9.36-12.62-2.34-3.76-2.73-5.28-6.88-4.87-11.42.12-1.26 1.69-2.63 2.92-3.49 1.53-1.08 3.39-1.68 5.78-2.8-5.29-2.7-9.88-5.23-15.84-4.85.79 1.68 1.35 2.87 1.91 4.06.6 1.28 1.26 2.55 1.8 3.86 1.11 2.68.18 5.31-2.29 6.68-6.35 3.51-14.73-.71-15.4-7.98-.12-1.31 1.01-3.26 2.16-4.06 2.17-1.51 4.78-2.39 7.63-3.73-4.63-4.52-9.34-7.49-15.52-7.07-3.68.25-7.34.89-11.02 1.23-.77.07-1.72-.24-2.32-.71-.28-.22-.12-1.71.15-1.81.64-.24 1.46.02 2.21.04.55.02 1.13.06 1.66-.04 9.7-1.87 18.6-.68 26.02 6.58.59.58 1.76.61 2.68.79 3.29.66 6.82.74 9.83 2.03 7.23 3.12 14.52 6.08 21.68 9.31 5.01 2.26 9.4 5.96 13.93 9.19.63.45.95 2.12.62 2.88-.33.74-1.68 1.03-2.58 1.51-.26-.19-.52-.37-.77-.56zm-19.86-10.05c-2.57-5.43-7.37-6.6-11.91-2.67-.91.79-1.57 2.51-1.47 3.72.57 6.8 7.18 11.42 13.81 10.16 2.2-.42 2.72-1.56 2.35-3.31-.46-2.23-1.23-4.41-1.86-6.61-.09.03-.19.05-.28.08-.21-.46-.43-.91-.64-1.37zm-33.27-8.03c-.78.49-1.26 2.42-1 3.46 1.28 4.99 7.07 7.65 11.64 5.29.97-.5 2.02-2.57 1.72-3.5-.97-2.98-2.55-5.77-4.19-9.24-2.98 1.4-5.73 2.45-8.18 3.99z"/><path d="m692.01 109.47c-.67-.35-1.33-.69-2.24-1.16-9.23 8.26-19.41 15.77-25.41 27.94 2.56-.27 4.51-.61 6.46-.65 3.39-.07 6.8-.21 10.16.14 3.1.32 3.88 3.23 1.65 5.82-2.61 3.04-6.15 4.45-10.03 4.94-1.9.24-3.85.12-5.77.02-4.63-.23-5.26-.83-6.03-5.92-5.69 5.42-5.82 12.01-5.71 18.72.34.04.53.12.7.08 5.32-1.46 8-.64 9.09 2.79 1.64 5.17-.79 10.72-5.25 12.37-1.89.7-2.78.1-3.34-1.66-.81-2.53-1.7-5.03-2.58-7.61-6.36 3.85-9.55 12.69-7.01 18.72-1.89.05-3.02-.68-3.08-2.81-.06-2.16 0-4.61.94-6.44 2-3.9 4.45-7.6 7.03-11.15 2.16-2.98.94-6.33 1.58-9.46.86-4.22 1-8.61 3.72-12.25.18-.24.22-.63.44-.77 5.47-3.46 6.68-10.1 10.87-14.49 4.39-4.6 8.84-9.15 13.37-13.61 2.29-2.25 4.73-4.37 7.27-6.33.81-.63 2.38-1.04 3.17-.66.63.3.59 1.97.85 3.04-.29.14-.58.28-.88.42zm-9.6 28.98c-6.31-1.72-11.92-1.33-17.4.42-.89.28-1.47 2.12-1.78 3.34-.12.48.76 1.63 1.38 1.82 5.28 1.6 10.27.64 14.84-2.3 1.08-.69 1.79-1.95 2.96-3.28zm-23.81 33.88c3.37-1.24 5.04-4.13 4.54-7.75-.24-1.75-.29-3.75-2.52-3.81-1.44-.03-3.44.44-4.21 1.44-.71.92-.36 2.92 0 4.32.5 1.99 1.44 3.87 2.19 5.8z"/><path d="m627.26 331.34c-8.01.86-14.68 4.45-19.97 10.12-2.92 3.14-4.96 7.09-7.56 10.93 5.13.43 9.62.44 13.95 1.26 5.14.97 6.71 4.34 4.99 9.3-2.61 7.53-13.78 14.25-21.09 12.68-3.75-.8-5.16-2.94-4.55-6.76.53-3.28 1-6.58 1.5-9.87-.29-.27-.57-.55-.86-.82-4.83 4.54-9.67 9.08-14.22 13.36 4.26 2.41 8.05 4.04 11.09 6.56 1.03.86.65 4.1.12 6.04-1.45 5.37-6.71 8.06-12.17 6.6-4.63-1.24-5.58-5.21-3.48-14.95-5.78-1.13-9.44 2.78-13.23 5.8-2.83 2.25-5.01 5.31-7.53 7.95-.61.64-1.43 1.06-2.16 1.59-.28-.24-.55-.48-.83-.71.95-1.47 1.67-3.2 2.9-4.37 3.83-3.63 7.83-7.09 11.84-10.53.83-.71 1.97-1.44 3-1.49 5.92-.3 9.32-3.87 12.96-8.14 3.5-4.11 8.71-6.71 12.79-10.4 2.02-1.83 3.36-4.5 4.7-6.96 4.7-8.64 11.5-14.84 20.84-18.04 2.07-.71 4.4-.66 6.6-.96.11.6.22 1.19.34 1.79zm-19.44 24.47s0 .02 0 .03c-2.13 0-4.32-.29-6.38.11-1.25.25-2.99 1.37-3.29 2.45-1.07 3.82-1.74 7.77-2.34 11.71-.37 2.46 1.09 3.32 3.44 3.23 6.75-.27 11.95-3.52 15.82-8.75 1.19-1.62 2.24-4.79 1.45-6.05-.98-1.56-3.92-1.95-6.08-2.67-.79-.27-1.75-.04-2.63-.04zm-31.08 26.39c0 5.78.46 6.35 4.63 6.32 4.33-.03 7.41-3.18 7.54-7.69.08-2.81-4.13-5.59-9.15-5.01-3.95.46-2.47 4.4-3.02 6.38z"/><path d="m523.52 269.38c1.79-1.56 3.42-2.97 5.04-4.39.28.24.56.48.83.72-.45.61-.81 1.31-1.36 1.8-1.75 1.55-2.96 2.82-.57 5.1 2.6 2.48 1.36 7.35-1.91 8.84-2.11.96-3.7.14-3.68-2.24.02-2.49.54-4.97.85-7.54-5.97-3.17-11.62-2.1-15.73 3.43 1.86.98 3.67 1.93 5.48 2.9 3.26 1.73 4.64 4.4 3.7 7.95-1.23 4.69-3.1 9.07-6.76 12.52-1.96 1.85-4.1 3.2-6.74 2.26-2.77-.98-3.13-3.75-3.34-6.22-.49-5.81.08-11.47 3.05-16.67.24-.42.38-.9.58-1.39-9.94-.35-23.67 18.63-22.63 31.09.91.34 1.82.69 3.06 1.16-3.46 1.91-5.34 1.15-5.29-1.99.03-2.18.54-4.43 1.26-6.51 3.27-9.54 7.74-18.32 16.65-23.92 1.4-.88 3.15-1.87 4.68-1.78 3.21.18 5.14-1.43 7.35-3.33 3.8-3.27 8.32-4.14 13.19-2.49.85.29 1.71.54 2.29.73zm-17.91 7.53c-3.62 5.5-5.13 13.58-3.79 19.51.61 2.71 1.77 3.34 4.23 1.82 4.64-2.87 6.83-7.41 7.84-12.58.64-3.3-.46-5.58-3.9-6.61-1.49-.45-2.84-1.37-4.38-2.14zm18.53 2.6c3.2-2.2 3.34-3.52.49-6.65-.18 2.45-.32 4.4-.49 6.65z"/><path d="m318.52 380.14c-10.9.13-15.3 8.97-21.15 15.75 1.37-9.16 11.55-17.7 21.21-18.8 1.35-.15 2.75-.94 3.88-1.77 5.96-4.38 11.9-8.79 17.71-13.36 2.17-1.71 4.09-3.79 5.93-5.87 3.57-4.03 6.8-8.37 10.6-12.17 1.44-1.44 3.98-2.07 6.13-2.39 1.06-.16 2.36 1.2 3.39 2.56-5.11-2.09-7.93.93-10.63 4-2.8 3.18-5.44 6.49-8.52 10.19 3.17.55 5.76.71 8.16 1.48 4.25 1.36 4.98 4.04 2.47 7.82-2.75 4.13-6.85 6.25-11.51 7.07-4.56.81-6.79-1.85-5.82-6.36.2-.95.4-1.91-.16-3.56-5.16 3.75-10.31 7.51-16 11.65 2.99.9 5.02 1.31 6.88 2.12 5.12 2.23 6.1 6.16 2.05 9.98-2.58 2.44-5.89 4.33-9.18 5.73-3.58 1.53-5.92-.37-5.9-4.26.01-3.12.29-6.25.47-9.81zm14.63 2.71c-2.88-3.18-6.5-2.78-10-2.61-.66.03-1.74.85-1.84 1.44-.48 2.83-.83 5.7-.86 8.56 0 .57 1.84 1.84 2.37 1.62 4.39-1.75 8.99-3.41 10.33-9.02zm9.31-11.48c6.08 1.27 9.66-1.32 12.69-4.86.65-.76.95-2.47.55-3.36-.81-1.8-9.49-1.94-10.32-.15-1.21 2.6-1.92 5.42-2.92 8.37z"/><path d="m506.03 628.26c1.88-1.16 3.44-2.07 4.95-3.06 3.45-2.26 7.22-2.73 11.24-2.23 2.62.33 3.47 1.83 3.17 4.19-1.23 9.66-6.37 17.22-13.64 23.16-4.38 3.58-10.89 2.03-11.26-4.76-.13-2.47-.02-4.94-.42-7.58-5.82 6.43-12.66 12.33-10.25 22.65-2.7-.71-4.33-3.81-3.02-6.68 2.05-4.5 4.27-9.05 7.23-12.96 3.99-5.29 8.14-10.19 10.49-16.68 3.23-8.91 8.93-16.49 16.45-22.41 3.01-2.37 5.24-1.55 6.98 2.27-5.38-3.16-7.9.91-10.12 3.92-4.28 5.81-7.92 12.09-11.78 18.2-.22.35-.03.97-.03 1.97zm-3.92 14.8c1.06 2.07 1.62 5 3.31 6.01 2.52 1.51 5-.59 6.87-2.58 4.51-4.77 8.28-9.98 9.84-16.54.99-4.18-.26-5.6-4.47-4.8-8.62 1.64-14.74 8.91-15.55 17.92z"/><path d="m1099.03 62.09c-6.66 9.64-11.45 18.48-2.96 28.94-7.43-3.85-8.99-8.75-6.15-17.08 1.93-5.68 4.66-10.86 8.95-15.17.76-.77 1.29-1.9 1.6-2.97 2.62-8.99 8.41-16.09 13.91-23.36 2.16-2.86 4.48-5.62 6.83-8.32.82-.95 1.88-1.78 3-2.34.61-.3 1.82-.21 2.28.22.54.5.82 1.6.71 2.36-.05.35-1.42.38-2.03.78-1.16.76-2.43 1.52-3.28 2.58-4.66 5.81-9.31 11.64-13.73 17.64-1.71 2.32-2.81 5.09-4.74 8.67 5.82-2.65 10.61-4.23 16.05-2.71 6.56 1.84 8.23 4.58 5.79 11.03-2.18 5.76-9.03 10.86-14.68 10.91-7.57.08-10.06-2.15-11.52-11.2zm16.28-9.2c-9.18.88-13.03 4.61-12.74 12.63.1 2.6 1.31 3.92 3.71 4.66 5.77 1.79 10.35-.47 13.66-4.74 1.88-2.42 3.43-6.17 2.95-8.93-.28-1.6-4.91-2.44-7.58-3.62z"/><path d="m853.11 576.54c-3.24 0-5.58-.55-7.46.14-2.4.88-4.65 2.52-6.59 4.25-3.7 3.31-7.14 6.92-10.68 10.41.26.3.52.59.77.89 2.18-.44 4.34-1.03 6.55-1.27 5.95-.65 8.72 2.6 7.3 8.37-1.58 6.42-8.48 12.86-13.77 12.83-5.52-.03-7.6-2.5-6.86-8.06.14-1.05.02-2.14.02-3.37-12.94 6.38-15.57 13.89-14.53 26.35.1 1.16 1.81 2.4 3.04 3.17.92.57 2.28.43 3.9.68-3.74 3.13-8.6 1.53-9.28-2.77-1.61-10.19.29-18.81 8.87-25.26 5.08-3.82 9.53-7.88 13.34-13.21 3.98-5.57 9.83-9.92 15.3-14.25 2.64-2.09 6.26-2.34 10.07 1.12zm-16.74 17.35c-5.64-.05-11.45 2.83-11.67 10.75-.11 4.12 3.09 5.86 6.34 4.59 4.65-1.82 7.49-5.37 9.07-9.93 1.58-4.55.9-5.4-3.74-5.41z"/><path d="m856.99 350.8c-8.32-.16-9.69 7.35-13.65 11.87-1.36 1.56-2.25 3.53-3.82 6.08 3.31 0 6.05-.19 8.76.04 4.48.39 5.66 2.1 3.63 5.87-3.77 7.03-9.7 11.86-17.14 14.55-4.19 1.51-6.45-.93-5.43-5.26.51-2.16 1.09-4.31 1.86-7.31-5.67 2.69-9.58 6.36-11.88 11.15-2.25 4.67-3.41 9.87-5.1 15.03-2.2-1.96-1.87-4.34-1.12-6.77 2.82-9.11 7.98-16.53 16.19-21.54 4.29-2.61 7.42-6.08 10.12-10.28 3.04-4.72 6.64-9.09 10.11-13.52 2.26-2.89 4.81-2.4 7.47.1zm-6.85 21.72c-9.1-4.18-19.16 2.83-18.38 12.51.05.68 1.95 1.96 2.41 1.74 6.67-3.18 12.52-7.33 15.97-14.25z"/><path d="m470.21 437.9c0-2.49-.32-5.03.06-7.47 1.55-10.02 4.9-19.44 10.38-27.99 1.48-2.31 3.82-4.02 7.05-2.27-6.51 2.42-8.07 8.34-10.11 13.72-2.58 6.79-5.57 13.53-5.17 21.11.05 1.01-.68 2.07-1.05 3.11-.39-.07-.78-.14-1.17-.21z"/><path d="m445.36 558.31c7.21-11.2 7.64-21.83-.4-33.25.02-.03.64-.87 1.35-1.82 5.32 4.35 6.59 10.19 7.08 16.2.84 10.23-2.32 17.71-8.03 18.87z"/><path d="m603.6 634.31c-1.12 3.22-2.45 6.07-3.07 9.07-1.07 5.1 1.14 8.72 6.21 9.93 4.48 1.07 9.12 1.48 13.68 2.21 1.46.23 2.91.56 4.29 1.15-5.21 2.23-20.5.49-24.58-4.99-3.67-4.93-2-15.71 3.47-17.37z"/><path d="m173.61 617.01c-2.48-1.62-5.08-3.3-5.39-6.71-.78-8.57.84-16.77 4.49-24.55.83-1.77 1.99-3.5 4.27-1.66.58.47.84 1.32 1.24 2-.63.29-1.26.57-1.89.85-.6.27-1.53.38-1.76.84-3.49 7.03-4.53 14.55-4.03 22.29.08 1.2 1.28 2.35 2.03 3.48.62.93 1.33 1.79 2 2.69-.32.26-.64.52-.96.78z"/><path d="m194.55 581.81c-3.78 12.07-11.95 22.01-9.45 34.89-3.73-1.81-3.43-5.83-2.82-7.7 2.9-8.9 6.68-17.52 10.19-26.22.09-.23.61-.3 2.08-.97z"/><path d="m915.2 97.68c-10.44-10.82-19.75-20.48-28.86-29.92 4.15-2.3 11.2-.57 15.48 4.72 3.01 3.73 6.51 7.2 8.8 11.33 2.06 3.71 2.77 8.16 4.58 13.88z"/><path d="m453.8 521.29c1.52-2.97 3.3-2.04 4.31-.32 1.76 3 3.71 6.15 4.38 9.48 1.06 5.26 1.71 10.75 1.38 16.08-.19 2.99-2.7 5.84-4.16 8.75l-1.28-.51c1.14-3.62 2.97-7.19 3.22-10.86.28-4.18-.41-8.57-1.49-12.64-1.01-3.81-1.41-8.37-6.36-9.97z"/><path d="m626.16 619.85c-5.41 3.06-2.67 7.16-1.71 10.78 1.11 4.2 4.14 7.01 8 8.94 1.16.58 2.26 1.25 3.39 1.88-.12.38-.24.76-.36 1.13-.93-.08-1.94.05-2.77-.28-8.43-3.36-13.43-12.65-11.77-21.72.5-2.71 1.99-3.03 5.23-.73z"/><path d="m211.87 311.23c-.14-2.86.35-3.01 3.11-2.17 3.39 1.03 6.91 1.67 10.41 2.23 2.07.33 4.01-.09 4.37-2.78.11-.8.44-1.57 1.13-1.89 1.08 4.71-.75 7.17-4.61 6.8-3.83-.36-7.58-1.47-11.38-2.17-.89-.17-1.85-.02-3.04-.02z"/><path d="m501.32 409.71c-6.26 8.12-13.01 15.98-14.95 26.45-.4-.03-.79-.06-1.19-.09-.17-.8-.61-1.65-.47-2.39 1.25-6.73 4.7-12.4 8.92-17.63 2.01-2.5 4.22-4.84 6.33-7.25.45.31.91.61 1.36.92z"/><path d="m682.14 241.39c-5.01-.25-8.09-4.1-9.03-10.09-.91-5.82.26-10.02 3.3-11.09-2.44 7.96-2.64 15.35 5.73 21.18z"/><path d="m751.66 451.22c-1.24-5.97-2.25-11.57-3.6-17.09-.7-2.87-.44-6.54-4.55-7.55-.19-.05.18-2.34.33-3.96 6.13 3.66 11.45 23.98 7.83 28.6z"/><path d="m173.56 449.94c.48-1.02.72-2.26 1.46-3.03 4.1-4.27 5.46-9.71 6.81-15.18.51-2.05.99-4.11 1.68-6.09.16-.47 1.1-.82 1.73-.9.22-.03.92 1.05.79 1.41-2.24 6.44-4.41 12.92-6.98 19.23-.81 1.99-2.73 3.52-4.15 5.26-.45-.23-.9-.47-1.35-.7z"/><path d="m1037.71 365.17c4.62 4.35 6.08 25.17 1.75 27.72-.58-9.3-1.16-18.51-1.75-27.72z"/><path d="m741.61 447.64c-.71-3.1-1.23-6.26-2.18-9.29-.78-2.5-2.06-4.84-3.12-7.26-.92-2.1-2.15-3.36-4.68-1.15-.22-.23-.44-.45-.66-.68.33-1.48.32-3.22 1.15-4.31.35-.46 3.14 0 3.72.81 4.13 5.82 6.55 12.39 7.38 19.5.09.78-.5 1.63-.77 2.45-.28-.02-.56-.04-.84-.07z"/><path d="m927.42 171c-1.87 14.14-6.44 22.97-13.74 25.05.93-1.44 1.3-2.52 2.05-3.1 4.88-3.75 6.52-8.99 7.49-14.77.45-2.68 1.92-5.18 2.92-7.77.42.2.85.39 1.27.59z"/><path d="m1071.57 565.02c-1.09 9.79.35 18.33 4.06 26.5-.37.25-.74.5-1.11.75-.98-1.35-2.27-2.57-2.89-4.07-3.51-8.51-3.81-19.23-.05-23.18z"/><path d="m351.27 113.55c-1.51 1.94-4.01 1.67-5.43-.44-2.63-3.91-.65-12.61 1.41-15.18.39-.48 1.33-.53 2.21-.85-.99 2.83-2.07 5.08-2.55 7.45-1.16 5.8-.76 6.42 4.36 9.02z"/><path d="m1011.73 285.36c6.14.94 11.41 1.86 16.72 2.51 2.56.31 5.19-.03 7.77.2.75.07 1.43 1.05 2.14 1.61-.7.44-1.47 1.34-2.11 1.25-7.63-1-15.26-2.09-22.85-3.35-.69-.11-1.16-1.52-1.66-2.21z"/><path d="m1028.36 282.13c-3.92-.67-7.85-1.27-11.75-2.07-1.07-.22-2.16-.86-2.99-1.6-.64-.56-.87-1.57-1.29-2.39.83.19 1.66.37 2.49.57 2.59.63 5.15 1.6 7.77 1.83 3.74.33 7.53.05 11.29.19.72.03 1.42.81 2.13 1.25-.71.57-1.36 1.54-2.13 1.64-1.78.25-3.63.08-5.45.08l-.08.49z"/><path d="m1216.3 256.79c1.33-.2 2.95-.96 3.92-.47 1.13.58 2.24 2.19 2.4 3.47.56 4.45.71 8.94 1.01 13.42.13 1.95.23 3.9.34 5.86-.36.08-.72.16-1.08.24-.53-1.66-1.35-3.29-1.54-4.98-.44-3.96-.54-7.96-.86-11.94-.19-2.39-.29-5-4.76-3.7.19-.64.38-1.27.57-1.91z"/><path d="m682.21 219.44c2.54-.31 2.49 1.61 2.47 3.28-.05 3.12-.26 6.23-.4 9.35-.02.4.07.82.01 1.21-.19 1.19-.43 2.37-.64 3.56-.57-1.18-1.59-2.35-1.61-3.54-.06-3.21.37-6.42.5-9.63.05-1.27-.18-2.55-.31-4.22z"/><path d="m1048.04 369.83c4.26 7.07 1.5 27.69-4.23 29.27 5.46-8.05 2.34-16.76 3.2-25.06.1-1 .08-2.02.2-3.02.04-.3.38-.56.83-1.19z"/><path d="m1086.11 582.98c-3.24.8-4.19-2-4.77-3.71-2.23-6.61-1.49-13.4.22-20.01.44-1.71 2.24-3.19 4.17-.8-4.61 5.11-4.42 16.47.38 24.52z"/><path d="m1231.46 280.98c5.08-6.82 3.15-13.62.5-20.49-.3-.77.25-1.86 1.03-2.8 3.74 6.12 4.68 12.69 3.37 19.48-.34 1.74-2.18 3.19-3.34 4.78-.52-.32-1.04-.65-1.57-.97z"/><path d="m164.41 451.58c4.66-7.21 8.65-14.65 8.09-24.23 4.86 5.03-.78 20.82-8.09 24.23z"/><path d="m1012.16 71.36c3.52-7.45 6.78-14.66 11.72-20.94.46 4.49-8.56 20.66-11.72 20.94z"/><path d="m433.42 269.27c-2.54 1.49-5.27.97-7.8-.03-2.64-1.04-5.45-6.12-5.19-9.38 1.92 2.55 3.15 5.34 5.29 6.71 2.11 1.34 5.14 1.23 7.76 1.76-.02.31-.03.63-.05.94z"/><path d="m907.57 190.6c3.64-6.83 10.96-11.68 7.6-20.6 3.1.33 3.82 2.41 3.51 4.6-.9 6.5-4.81 11.44-9.01 16.16-.19.21-.92-.06-2.11-.17z"/><path d="m428.92 274.91c-4.91 2.7-8.35 1.77-10.86-2.23-2.62-4.17-2.72-6.28-.78-7.67 1 2.43 1.89 5 3.1 7.42 1.63 3.24 5.14 1.66 8.54 2.48z"/><path d="m820.47 443.61c-4.81-1.66-5-5-5.21-7.99-.2-2.87.14-5.8.52-8.67.39-2.9 2.38-3.63 4.84-2.02-4.64 5.75-3.16 11.79-.15 18.68z"/><path d="m1025.34 71.64c2.17-6.91 4.34-13.84 6.55-20.89 2.53 1.51 1.21 4.3.87 6.54-1.09 7.18-4.58 13.63-7.43 14.36z"/><path d="m897.94 64.51c8.39-5.57 19.78 4.28 22.21 20.46-1.06-1.17-2.24-2.24-3.16-3.51-3.15-4.33-5.77-9.16-9.47-12.93-2.1-2.14-5.92-2.57-9.57-4.01z"/><path d="m921.68 283.46c5.23 1.25 10.24.66 15.09-1.57.5-.23 1.18-.09 1.77-.13-.3.66-.46 1.76-.93 1.91-2.64.85-5.32 1.65-8.05 2.12-1.86.32-3.83.23-5.72 0-.95-.12-1.81-.95-2.71-1.45.18-.29.36-.58.55-.87z"/><path d="m59.54 102.53c-3.75 2.96-3.83 9.49-.31 14.57-.87 0-1.71.22-1.91-.04-.88-1.17-2.1-2.42-2.24-3.75-.28-2.79-.2-5.67.19-8.45.25-1.73 1.15-3.68 4.27-2.33z"/><path d="m938.41 288.72c-3.11 3.99-14.78 5.89-18.39 3.13 6.02-1.02 12.18-2.07 18.39-3.13z"/><path d="m976.71 599.55c-.47-.73-1.03-1.42-1.38-2.21-1.23-2.75-2.32-5.58-3.63-8.29-.33-.69-1.27-1.1-1.96-1.61-.52-.38-1.58-.92-1.54-1.01.43-.97.91-2 1.65-2.72.26-.26 1.72.08 1.91.48 2.31 4.77 4.48 9.6 6.69 14.42-.59.31-1.17.62-1.76.94z"/><path d="m970.15 601c-4.93-4.26-9.86-8.51-15.21-13.14 4.92.15 14.11 7.91 15.21 13.14z"/><path d="m65.84 103.9c-2.68 3.43-2.51 7.34-2.29 11.3.04.76-.46 1.56-.71 2.34-.41-.69-1.19-1.4-1.16-2.08.13-3.38.3-6.78.82-10.11.25-1.6 1.49-2.59 3.34-1.45z"/><path d="m88.53 240.92c-2.11 7.33 4.03 8.6 8.12 11.6-4.63.53-9.62-3.02-10.55-7.24-.38-1.74-.3-3.56 2.42-4.37z"/><path d="m825.53 443.59c-.86-1.78-1.75-2.74-1.69-3.64.28-4.12.64-8.26 1.35-12.33.31-1.77 1.58-3.17 2.87-2.35-.85 6.14-1.61 11.66-2.53 18.32z"/><path d="m92.66 232.73c.11 5.07-1.06 10.18 5.3 11.85-2.31 1.45-3.47 1.24-5.09-.62-2.38-2.72-2.77-8.41-.21-11.23z"/><path d="m230.1 316.8c-3.81 2.74-7.75 3.6-11.98 2.11-.46-.16-.76-.78-1.14-1.19.44-.3 1.07-.97 1.31-.85 3.52 1.75 6.84.52 10.22-.46.45-.13 1.06.25 1.59.39z"/><path d="m353.5 109.74c-.61-1.36-1.71-2.64-1.58-3.77.28-2.32 1.17-4.57 1.94-6.81.12-.36.88-.51 1.34-.75.11.51.3 1.02.29 1.53-.01.37-.39.71-.46 1.09-.5 2.7-.96 5.41-1.53 8.7z"/><path d="m611.73 91.98c-.5 2.09-.83 3.74-1.34 5.33-.12.39-.82.6-1.25.89-.17-.49-.54-1-.48-1.46.19-1.57.44-3.14.86-4.65.17-.61.82-1.09 1.26-1.64.38.61.76 1.22.95 1.52z"/><path d="m602.86 89.54c.96 0 2.29-.41 2.83.07 1.93 1.7 2.14 3.83.61 6.16-2.57-.89.78-5.55-3.79-4.95.12-.43.23-.85.35-1.28z"/><path d="m0 0h1254.7v679.34h-1254.7z" fill="none"/><path d="m64.66 53.53c0 3.29.23 6.53-.04 9.71-.79 9.05-5.94 12.46-13.71 13.08-3.7.29-6.8-2.57-7.52-6.67-1.21-6.87.84-12.95 4.61-18.58.88-1.32 1.84-2.58 2.82-3.94-10.56-.4-30.02 23.81-27.06 33.31-.61-.68-1.77-1.38-1.75-2.05.06-2.16.03-4.59.98-6.43 4.33-8.42 9.22-16.57 16.93-22.36 2.89-2.17 6.55-3.37 9.97-4.76 3.93-1.6 7.99-2.88 11.93-4.46.54-.22.77-1.32 1.05-2.04 2.16-5.51 4.9-10.57 9.97-14.06 6.92-4.77 13.98-3.33 21.1-.68 4.09 1.52 4.08 1.56 7.44-.09-.51 3.25-1.83 4.04-4.73 3.12-3.83-1.22-7.64-2.79-11.58-3.3-10.97-1.43-17.96 6.8-20.22 16.16 2.21.51 4.47.85 6.6 1.56 4.35 1.46 5.74 3.28 5.35 6.51-.35 2.88-3.9 6.07-7.26 6.31-1.48.11-2.99-.19-4.87-.33zm-1.55 6.37c-.08-5.08-.75-9.82-5.72-12.49-.94-.51-2.94-.44-3.63.22-5.92 5.65-9.33 12.45-8.56 20.89.26 2.87 2.27 5.34 4.7 5.43 5.33.19 10.44-1.18 12.17-7.86.52-2.02.71-4.12 1.05-6.19zm.64-18.36c.39 2.68.71 4.06.77 5.44.11 2.49 1.15 4.64 3.6 4.92 2.58.29 4.83-1.04 6.07-3.6.96-1.98.6-3.78-1.43-4.51-2.64-.95-5.46-1.39-9.01-2.25zm-2.09.97c-1.6.8-2.66 1.34-4.05 2.04 1.7 1.19 3.04 2.12 4.74 3.3-.24-1.86-.42-3.29-.68-5.34z"/><path d="m1064.16 510.28c-6.18 4.36-10.38 9.35-10.45 16.93-.01 1.64-.26 3.27-.4 4.91-.41 4.77-.64 9.47 4.8 12.02-2.46 1.55-4.99.47-6.26-2.29-3.1-6.71-.18-22.89 5.12-28.16 1.87-1.86 4-3.49 5.75-5.45.73-.81.92-2.19 1.14-3.35 1.07-5.77.86-12.17 3.39-17.2 3.45-6.86 5.11-14.24 8.16-21.14 5.61-12.72 14.04-23.66 22.28-34.7.93-1.25 2.45-2.19 3.88-2.87.67-.32 2.25.05 2.62.63.41.64.18 2.04-.29 2.76-.34.51-1.59.34-2.36.67-1.19.5-2.75.86-3.38 1.8-5.77 8.48-11.55 16.96-16.95 25.68-2.45 3.97-4.04 8.47-6.37 13.48 5.92-2.65 10.53-5.14 15.43-6.71 1.98-.64 5.07.1 6.77 1.38 1.01.76.84 3.97.27 5.79-2.22 7.06-6.8 12.6-12.91 16.54-5.69 3.67-9.69 1.99-12.33-4.3-.17-.41-.63-.71-1.02-1.14-4.14 6.07-4.95 12.62-3.91 19.51 4.74-.98 9.44-2.38 14.23-2.79 2.75-.23 7.03.26 8.14 2 1.9 3-.74 6.46-3.4 8.34-3.6 2.54-7.55 5.25-11.72 6.15-5.45 1.18-6.59-.15-8.93-5.24-.42-.9-.74-1.85-1.29-3.24zm27.99-40.78c-5.3.77-9.78 3.35-13.93 6.66-2.72 2.17-4.13 4.72-3.8 8.44.44 5.13 3.89 7.33 8.21 4.45 5.78-3.85 9.85-9.25 12.41-15.71 1.05-2.64.4-4.21-2.88-3.83zm-4.98 35.34c-7.5-1.27-14.07.81-21.03 4.91 1.71 2.3 2.75 5.18 4.69 6.03 5.22 2.3 15.52-3.93 16.55-9.51.08-.45-.13-.95-.21-1.44z"/><path d="m974.74 270.24c-.88-7.51-3.25-13.59-9.88-17.27-1.43-.79-2.75-1.79-4.12-2.7-3.99-2.64-8.01-5.09-12.86-1.53-.18-2.9 1.97-4.6 5.01-4.4 7.37.49 20.19 10.78 22.28 17.96.74 2.54 1.16 5.18 2.04 7.66.37 1.03 1.48 1.86 2.4 2.6 4.56 3.7 10.28 6.57 13.49 11.2 4.38 6.31 10.06 11.3 14.67 17.27 8.49 11 14.07 23.64 19.84 36.15.65 1.41.76 3.2.67 4.78-.04.74-1.12 1.95-1.8 2-.75.06-1.88-.81-2.28-1.58-.29-.54.46-1.56.54-2.39.13-1.28.56-2.82.04-3.83-4.69-9.12-9.38-18.26-14.46-27.16-2.31-4.05-5.51-7.6-8.79-12.04-.5 6.47-.52 11.71-1.48 16.77-.39 2.05-2.51 4.4-4.45 5.28-1.15.52-3.89-1.16-5.21-2.53-5.14-5.32-7.81-12-8.36-19.24-.51-6.75 2.88-9.47 9.67-8.78.45.05.92-.21 1.49-.35-3.35-6.53-8.72-10.38-15.27-12.76-1.4 4.63-2.42 9.43-4.35 13.83-1.11 2.52-3.59 6.05-5.65 6.19-3.54.24-5.32-3.74-5.7-6.97-.52-4.38-1.01-9.14.19-13.24 1.57-5.35 3.28-5.72 8.87-5.35.99.07 1.98.23 3.46.41zm22.45 44.07c1.86-5.02 1.73-10.19.81-15.42-.61-3.43-2.18-5.88-5.6-7.37-4.72-2.06-8.29-.08-7.83 5.08.62 6.92 3.42 13.07 7.87 18.41 1.82 2.18 3.51 2.36 4.74-.7zm-28.66-21.26c4.7-5.98 6.02-12.75 5.73-20.82-2.83.4-5.86-.06-7.54 1.23-4.51 3.49-3.96 15.51.44 19.08.35.29.9.34 1.37.5z"/><path d="m370.87 29.6c-12.58.36-20.25 8.3-27.55 16.19 3.39.81 6.61 1.4 9.7 2.37 3.61 1.13 4.74 3.92 2.67 6.97-2.01 2.97-5.29 3.68-8.75 3.94-3.26.25-5.74-.8-7.32-3.62-.55-.99-.67-2.22-1.06-3.62-5.93 2.78-10.21 6.95-13.35 12.43.26.15.42.32.58.32 9.32.2 11.05 5.33 11.11 14.37 0 .93-.76 2.17-1.54 2.75-4.19 3.05-9.1 3.67-14.02 3.03-5.04-.65-5.63-6.38-4.26-10.71.47-1.48 1.26-2.85 2.03-4.55-.65.14-.97.11-1.15.26-6.45 5.51-12.9 11.09-15.86 19.37-1.02 2.85-2.4 6.21 1.36 8.51-2.09 1.49-3.6.82-3.97-1.39-1.12-6.78 2.07-12.17 6.09-16.92 3.69-4.37 7.85-8.53 12.45-11.88 2.96-2.15 5.32-4.55 7.68-7.23 2.67-3.05 5.56-6.2 8.99-8.25 3.91-2.33 5.79-6.14 8.71-9.15 6.09-6.26 12.38-12.36 21.33-14.35 1.78-.4 3.73-.06 5.61-.06.17.41.35.82.52 1.23zm-47.14 53.24c1.58-.1 2.61-.06 3.59-.25 7.06-1.34 7.81-2.1 7.46-7.41-.26-3.93-2.63-7.46-5.48-8.16-4.33-1.06-6.25-.02-8.82 4.83-.46.87-1.11 1.72-1.32 2.65-1 4.54-.71 9.15 4.57 8.34zm23.39-34.55c-.05.14-.1.28-.15.42-.5 0-1.08-.16-1.5.03-1.56.73-3.71 1.21-4.42 2.47-1 1.77.35 3.56 1.98 4.86 2.34 1.87 9.52.68 10.71-2.07.41-.94.09-3.02-.58-3.43-1.81-1.09-4-1.56-6.04-2.28z"/><path d="m796.39 556.01c-7.04 3.89-12.88 8.41-16.21 15.54.22.21.39.51.55.5 12.01-.5 14.05 8.39 14.4 17.38.14 3.72-2.9 5.33-5.78 6.03-4.13 1.01-8.44 1.59-12.7 1.72-4.41.13-7.47-3.15-7.1-7.51.34-3.9 1.43-7.73 2.19-11.58-.04.03-.63.27-1.08.65-7.98 6.78-15.91 13.66-19.48 23.95-.84 2.43-.89 5.22-.8 7.83.03.98 1.47 1.91 2.76 3.45-2.96.45-5.09-.16-4.97-2.93.17-4.07.15-8.63 1.96-12.06 5.77-10.92 13.92-19.85 24.88-26.04 1.9-1.07 3.37-3.19 4.62-5.1 3.88-5.93 9.15-10.24 15.14-13.83 1.27-.76 2.76-1.58 3.46-2.77 4.92-8.33 12.34-13.99 19.92-19.66 4.69-3.51 9.71-5.11 15.33-5.36 1.18-.05 2.38.48 3.69 1.39-15.57.59-24.77 10.98-34.34 20.58 4.47 1.18 8.69 2.1 12.77 3.43 3.89 1.27 5 4.96 2.71 8.35-3.38 5.01-15.17 8.05-19.42 1.52-1.05-1.61-1.62-3.53-2.49-5.5zm-3.6 31.4c-.96-3.07-1.59-6.3-2.95-9.18-1.86-3.94-10.5-5.16-12.77-1.86-1.97 2.86-3.76 5.95-5 9.19-1.84 4.8 1.49 9.68 5.97 9.3 1.85-.16 3.69-.43 5.53-.61 5.75-.54 8.71-2.8 9.21-6.83zm13.66-24.12c3.27-1.46 6.35-2.45 8.91-4.2.81-.56.8-4.31.2-4.6-3.86-1.87-7.81-3.95-12.43-1.99-3.21 1.36-4.54 4.27-2.33 6.99 1.27 1.56 3.45 2.38 5.66 3.81z"/><path d="m94.31 318.24c-1.02-.06-2.36.26-2.98-.27-.62-.54-1.04-2.19-.66-2.87 2.73-4.86 5.12-10.07 8.7-14.25 5.1-5.97 10.45-11.76 15.66-17.65 2.17-2.46 5.34-4.03 8.03-6.03.75-.56 1.8-1.09 2.09-1.86 3.62-9.72 11.17-14.59 20.74-17.02.53-.14 1.03-.42 1.52-.67.67-.34 1.3-.92 1.98-.98.28-.02 1.06 1.25.9 1.57-.34.68-1.07 1.37-1.8 1.63-3.48 1.26-7.06 2.23-10.5 3.57-5.76 2.25-8.76 6.95-11.03 13.01 3.15 0 5.88-.31 8.49.13 1.38.23 3.23 1.51 3.68 2.75 2.48 6.86-3.3 14.25-10.54 13.78-2.81-.18-4.77-2.17-4.91-5.07-.07-1.42-.02-2.84-.02-4.25 0-1.31 0-2.63 0-4.48-5.56 2.19-8.63 6.44-12.27 11.13 2.64 0 4.58-.25 6.42.08 1.48.26 3.49.82 4.13 1.92 2.31 3.93 2.7 8.33.46 12.4-2.21 4.03-5.11 7.54-10.42 7.49-3.24-.04-4.9-1.59-5.29-5.2-.35-3.27-.56-6.56-.93-10.9-2.88 3.47-5.37 6.23-7.57 9.21-1.83 2.49-3.32 5.24-4.93 7.89-1.06 1.74-1.61 3.39 1.49 4.11-.15.28-.31.56-.46.83zm14.16-16.87c-.1.02-.19.03-.29.05.36 2.26.59 4.55 1.12 6.77.42 1.74 1.37 2.55 3.54 2 6.54-1.69 10.55-8.68 8.18-15.07-.43-1.14-1.75-2.42-2.91-2.74-5.77-1.62-9.63 1.48-9.64 7.49v1.51zm17.59-23.07c0 3.84-.25 7.04.15 10.15.12.96 1.95 2.39 3.04 2.43 5.14.19 9.25-4.69 8.28-9.74-.2-1.06-1.46-2.59-2.38-2.71-2.86-.35-5.8-.13-9.1-.13z"/><path d="m339.21 281.2c2.5-1.97 1.3-3.23-.4-4.35-2.59-1.71-5.1-3.56-7.82-5.04-3.25-1.77-6.69-3.2-10.77-5.11 1.52 4.08 2.72 7.15 3.8 10.26 1.19 3.43.34 5.54-2.57 6.95-4.78 2.31-8.9.36-12.62-2.34-3.76-2.73-5.28-6.88-4.87-11.42.12-1.26 1.69-2.63 2.92-3.49 1.53-1.08 3.39-1.68 5.78-2.8-5.29-2.7-9.88-5.23-15.84-4.85.79 1.68 1.35 2.87 1.91 4.06.6 1.28 1.26 2.55 1.8 3.86 1.11 2.68.18 5.31-2.29 6.68-6.35 3.51-14.73-.71-15.4-7.98-.12-1.31 1.01-3.26 2.16-4.06 2.17-1.51 4.78-2.39 7.63-3.73-4.63-4.52-9.34-7.49-15.52-7.07-3.68.25-7.34.89-11.02 1.23-.77.07-1.72-.24-2.32-.71-.28-.22-.12-1.71.15-1.81.64-.24 1.46.02 2.21.04.55.02 1.13.06 1.66-.04 9.7-1.87 18.6-.68 26.02 6.58.59.58 1.76.61 2.68.79 3.29.66 6.82.74 9.83 2.03 7.23 3.12 14.52 6.08 21.68 9.31 5.01 2.26 9.4 5.96 13.93 9.19.63.45.95 2.12.62 2.88-.33.74-1.68 1.03-2.58 1.51-.26-.19-.52-.37-.77-.56zm-19.86-10.05c-2.57-5.43-7.37-6.6-11.91-2.67-.91.79-1.57 2.51-1.47 3.72.57 6.8 7.18 11.42 13.81 10.16 2.2-.42 2.72-1.56 2.35-3.31-.46-2.23-1.23-4.41-1.86-6.61-.09.03-.19.05-.28.08-.21-.46-.43-.91-.64-1.37zm-33.27-8.03c-.78.49-1.26 2.42-1 3.46 1.28 4.99 7.07 7.65 11.64 5.29.97-.5 2.02-2.57 1.72-3.5-.97-2.98-2.55-5.77-4.19-9.24-2.98 1.4-5.73 2.45-8.18 3.99z"/><path d="m692.01 109.47c-.67-.35-1.33-.69-2.24-1.16-9.23 8.26-19.41 15.77-25.41 27.94 2.56-.27 4.51-.61 6.46-.65 3.39-.07 6.8-.21 10.16.14 3.1.32 3.88 3.23 1.65 5.82-2.61 3.04-6.15 4.45-10.03 4.94-1.9.24-3.85.12-5.77.02-4.63-.23-5.26-.83-6.03-5.92-5.69 5.42-5.82 12.01-5.71 18.72.34.04.53.12.7.08 5.32-1.46 8-.64 9.09 2.79 1.64 5.17-.79 10.72-5.25 12.37-1.89.7-2.78.1-3.34-1.66-.81-2.53-1.7-5.03-2.58-7.61-6.36 3.85-9.55 12.69-7.01 18.72-1.89.05-3.02-.68-3.08-2.81-.06-2.16 0-4.61.94-6.44 2-3.9 4.45-7.6 7.03-11.15 2.16-2.98.94-6.33 1.58-9.46.86-4.22 1-8.61 3.72-12.25.18-.24.22-.63.44-.77 5.47-3.46 6.68-10.1 10.87-14.49 4.39-4.6 8.84-9.15 13.37-13.61 2.29-2.25 4.73-4.37 7.27-6.33.81-.63 2.38-1.04 3.17-.66.63.3.59 1.97.85 3.04-.29.14-.58.28-.88.42zm-9.6 28.98c-6.31-1.72-11.92-1.33-17.4.42-.89.28-1.47 2.12-1.78 3.34-.12.48.76 1.63 1.38 1.82 5.28 1.6 10.27.64 14.84-2.3 1.08-.69 1.79-1.95 2.96-3.28zm-23.81 33.88c3.37-1.24 5.04-4.13 4.54-7.75-.24-1.75-.29-3.75-2.52-3.81-1.44-.03-3.44.44-4.21 1.44-.71.92-.36 2.92 0 4.32.5 1.99 1.44 3.87 2.19 5.8z"/><path d="m627.26 331.34c-8.01.86-14.68 4.45-19.97 10.12-2.92 3.14-4.96 7.09-7.56 10.93 5.13.43 9.62.44 13.95 1.26 5.14.97 6.71 4.34 4.99 9.3-2.61 7.53-13.78 14.25-21.09 12.68-3.75-.8-5.16-2.94-4.55-6.76.53-3.28 1-6.58 1.5-9.87-.29-.27-.57-.55-.86-.82-4.83 4.54-9.67 9.08-14.22 13.36 4.26 2.41 8.05 4.04 11.09 6.56 1.03.86.65 4.1.12 6.04-1.45 5.37-6.71 8.06-12.17 6.6-4.63-1.24-5.58-5.21-3.48-14.95-5.78-1.13-9.44 2.78-13.23 5.8-2.83 2.25-5.01 5.31-7.53 7.95-.61.64-1.43 1.06-2.16 1.59-.28-.24-.55-.48-.83-.71.95-1.47 1.67-3.2 2.9-4.37 3.83-3.63 7.83-7.09 11.84-10.53.83-.71 1.97-1.44 3-1.49 5.92-.3 9.32-3.87 12.96-8.14 3.5-4.11 8.71-6.71 12.79-10.4 2.02-1.83 3.36-4.5 4.7-6.96 4.7-8.64 11.5-14.84 20.84-18.04 2.07-.71 4.4-.66 6.6-.96.11.6.22 1.19.34 1.79zm-19.44 24.47s0 .02 0 .03c-2.13 0-4.32-.29-6.38.11-1.25.25-2.99 1.37-3.29 2.45-1.07 3.82-1.74 7.77-2.34 11.71-.37 2.46 1.09 3.32 3.44 3.23 6.75-.27 11.95-3.52 15.82-8.75 1.19-1.62 2.24-4.79 1.45-6.05-.98-1.56-3.92-1.95-6.08-2.67-.79-.27-1.75-.04-2.63-.04zm-31.08 26.39c0 5.78.46 6.35 4.63 6.32 4.33-.03 7.41-3.18 7.54-7.69.08-2.81-4.13-5.59-9.15-5.01-3.95.46-2.47 4.4-3.02 6.38z"/><path d="m523.52 269.38c1.79-1.56 3.42-2.97 5.04-4.39.28.24.56.48.83.72-.45.61-.81 1.31-1.36 1.8-1.75 1.55-2.96 2.82-.57 5.1 2.6 2.48 1.36 7.35-1.91 8.84-2.11.96-3.7.14-3.68-2.24.02-2.49.54-4.97.85-7.54-5.97-3.17-11.62-2.1-15.73 3.43 1.86.98 3.67 1.93 5.48 2.9 3.26 1.73 4.64 4.4 3.7 7.95-1.23 4.69-3.1 9.07-6.76 12.52-1.96 1.85-4.1 3.2-6.74 2.26-2.77-.98-3.13-3.75-3.34-6.22-.49-5.81.08-11.47 3.05-16.67.24-.42.38-.9.58-1.39-9.94-.35-23.67 18.63-22.63 31.09.91.34 1.82.69 3.06 1.16-3.46 1.91-5.34 1.15-5.29-1.99.03-2.18.54-4.43 1.26-6.51 3.27-9.54 7.74-18.32 16.65-23.92 1.4-.88 3.15-1.87 4.68-1.78 3.21.18 5.14-1.43 7.35-3.33 3.8-3.27 8.32-4.14 13.19-2.49.85.29 1.71.54 2.29.73zm-17.91 7.53c-3.62 5.5-5.13 13.58-3.79 19.51.61 2.71 1.77 3.34 4.23 1.82 4.64-2.87 6.83-7.41 7.84-12.58.64-3.3-.46-5.58-3.9-6.61-1.49-.45-2.84-1.37-4.38-2.14zm18.53 2.6c3.2-2.2 3.34-3.52.49-6.65-.18 2.45-.32 4.4-.49 6.65z"/><path d="m318.52 380.14c-10.9.13-15.3 8.97-21.15 15.75 1.37-9.16 11.55-17.7 21.21-18.8 1.35-.15 2.75-.94 3.88-1.77 5.96-4.38 11.9-8.79 17.71-13.36 2.17-1.71 4.09-3.79 5.93-5.87 3.57-4.03 6.8-8.37 10.6-12.17 1.44-1.44 3.98-2.07 6.13-2.39 1.06-.16 2.36 1.2 3.39 2.56-5.11-2.09-7.93.93-10.63 4-2.8 3.18-5.44 6.49-8.52 10.19 3.17.55 5.76.71 8.16 1.48 4.25 1.36 4.98 4.04 2.47 7.82-2.75 4.13-6.85 6.25-11.51 7.07-4.56.81-6.79-1.85-5.82-6.36.2-.95.4-1.91-.16-3.56-5.16 3.75-10.31 7.51-16 11.65 2.99.9 5.02 1.31 6.88 2.12 5.12 2.23 6.1 6.16 2.05 9.98-2.58 2.44-5.89 4.33-9.18 5.73-3.58 1.53-5.92-.37-5.9-4.26.01-3.12.29-6.25.47-9.81zm14.63 2.71c-2.88-3.18-6.5-2.78-10-2.61-.66.03-1.74.85-1.84 1.44-.48 2.83-.83 5.7-.86 8.56 0 .57 1.84 1.84 2.37 1.62 4.39-1.75 8.99-3.41 10.33-9.02zm9.31-11.48c6.08 1.27 9.66-1.32 12.69-4.86.65-.76.95-2.47.55-3.36-.81-1.8-9.49-1.94-10.32-.15-1.21 2.6-1.92 5.42-2.92 8.37z"/><path d="m506.03 628.26c1.88-1.16 3.44-2.07 4.95-3.06 3.45-2.26 7.22-2.73 11.24-2.23 2.62.33 3.47 1.83 3.17 4.19-1.23 9.66-6.37 17.22-13.64 23.16-4.38 3.58-10.89 2.03-11.26-4.76-.13-2.47-.02-4.94-.42-7.58-5.82 6.43-12.66 12.33-10.25 22.65-2.7-.71-4.33-3.81-3.02-6.68 2.05-4.5 4.27-9.05 7.23-12.96 3.99-5.29 8.14-10.19 10.49-16.68 3.23-8.91 8.93-16.49 16.45-22.41 3.01-2.37 5.24-1.55 6.98 2.27-5.38-3.16-7.9.91-10.12 3.92-4.28 5.81-7.92 12.09-11.78 18.2-.22.35-.03.97-.03 1.97zm-3.92 14.8c1.06 2.07 1.62 5 3.31 6.01 2.52 1.51 5-.59 6.87-2.58 4.51-4.77 8.28-9.98 9.84-16.54.99-4.18-.26-5.6-4.47-4.8-8.62 1.64-14.74 8.91-15.55 17.92z"/><path d="m1099.03 62.09c-6.66 9.64-11.45 18.48-2.96 28.94-7.43-3.85-8.99-8.75-6.15-17.08 1.93-5.68 4.66-10.86 8.95-15.17.76-.77 1.29-1.9 1.6-2.97 2.62-8.99 8.41-16.09 13.91-23.36 2.16-2.86 4.48-5.62 6.83-8.32.82-.95 1.88-1.78 3-2.34.61-.3 1.82-.21 2.28.22.54.5.82 1.6.71 2.36-.05.35-1.42.38-2.03.78-1.16.76-2.43 1.52-3.28 2.58-4.66 5.81-9.31 11.64-13.73 17.64-1.71 2.32-2.81 5.09-4.74 8.67 5.82-2.65 10.61-4.23 16.05-2.71 6.56 1.84 8.23 4.58 5.79 11.03-2.18 5.76-9.03 10.86-14.68 10.91-7.57.08-10.06-2.15-11.52-11.2zm16.28-9.2c-9.18.88-13.03 4.61-12.74 12.63.1 2.6 1.31 3.92 3.71 4.66 5.77 1.79 10.35-.47 13.66-4.74 1.88-2.42 3.43-6.17 2.95-8.93-.28-1.6-4.91-2.44-7.58-3.62z"/><path d="m853.11 576.54c-3.24 0-5.58-.55-7.46.14-2.4.88-4.65 2.52-6.59 4.25-3.7 3.31-7.14 6.92-10.68 10.41.26.3.52.59.77.89 2.18-.44 4.34-1.03 6.55-1.27 5.95-.65 8.72 2.6 7.3 8.37-1.58 6.42-8.48 12.86-13.77 12.83-5.52-.03-7.6-2.5-6.86-8.06.14-1.05.02-2.14.02-3.37-12.94 6.38-15.57 13.89-14.53 26.35.1 1.16 1.81 2.4 3.04 3.17.92.57 2.28.43 3.9.68-3.74 3.13-8.6 1.53-9.28-2.77-1.61-10.19.29-18.81 8.87-25.26 5.08-3.82 9.53-7.88 13.34-13.21 3.98-5.57 9.83-9.92 15.3-14.25 2.64-2.09 6.26-2.34 10.07 1.12zm-16.74 17.35c-5.64-.05-11.45 2.83-11.67 10.75-.11 4.12 3.09 5.86 6.34 4.59 4.65-1.82 7.49-5.37 9.07-9.93 1.58-4.55.9-5.4-3.74-5.41z"/><path d="m856.99 350.8c-8.32-.16-9.69 7.35-13.65 11.87-1.36 1.56-2.25 3.53-3.82 6.08 3.31 0 6.05-.19 8.76.04 4.48.39 5.66 2.1 3.63 5.87-3.77 7.03-9.7 11.86-17.14 14.55-4.19 1.51-6.45-.93-5.43-5.26.51-2.16 1.09-4.31 1.86-7.31-5.67 2.69-9.58 6.36-11.88 11.15-2.25 4.67-3.41 9.87-5.1 15.03-2.2-1.96-1.87-4.34-1.12-6.77 2.82-9.11 7.98-16.53 16.19-21.54 4.29-2.61 7.42-6.08 10.12-10.28 3.04-4.72 6.64-9.09 10.11-13.52 2.26-2.89 4.81-2.4 7.47.1zm-6.85 21.72c-9.1-4.18-19.16 2.83-18.38 12.51.05.68 1.95 1.96 2.41 1.74 6.67-3.18 12.52-7.33 15.97-14.25z"/><path d="m470.21 437.9c0-2.49-.32-5.03.06-7.47 1.55-10.02 4.9-19.44 10.38-27.99 1.48-2.31 3.82-4.02 7.05-2.27-6.51 2.42-8.07 8.34-10.11 13.72-2.58 6.79-5.57 13.53-5.17 21.11.05 1.01-.68 2.07-1.05 3.11-.39-.07-.78-.14-1.17-.21z"/><path d="m445.36 558.31c7.21-11.2 7.64-21.83-.4-33.25.02-.03.64-.87 1.35-1.82 5.32 4.35 6.59 10.19 7.08 16.2.84 10.23-2.32 17.71-8.03 18.87z"/><path d="m603.6 634.31c-1.12 3.22-2.45 6.07-3.07 9.07-1.07 5.1 1.14 8.72 6.21 9.93 4.48 1.07 9.12 1.48 13.68 2.21 1.46.23 2.91.56 4.29 1.15-5.21 2.23-20.5.49-24.58-4.99-3.67-4.93-2-15.71 3.47-17.37z"/><path d="m173.61 617.01c-2.48-1.62-5.08-3.3-5.39-6.71-.78-8.57.84-16.77 4.49-24.55.83-1.77 1.99-3.5 4.27-1.66.58.47.84 1.32 1.24 2-.63.29-1.26.57-1.89.85-.6.27-1.53.38-1.76.84-3.49 7.03-4.53 14.55-4.03 22.29.08 1.2 1.28 2.35 2.03 3.48.62.93 1.33 1.79 2 2.69-.32.26-.64.52-.96.78z"/><path d="m194.55 581.81c-3.78 12.07-11.95 22.01-9.45 34.89-3.73-1.81-3.43-5.83-2.82-7.7 2.9-8.9 6.68-17.52 10.19-26.22.09-.23.61-.3 2.08-.97z"/><path d="m915.2 97.68c-10.44-10.82-19.75-20.48-28.86-29.92 4.15-2.3 11.2-.57 15.48 4.72 3.01 3.73 6.51 7.2 8.8 11.33 2.06 3.71 2.77 8.16 4.58 13.88z"/><path d="m453.8 521.29c1.52-2.97 3.3-2.04 4.31-.32 1.76 3 3.71 6.15 4.38 9.48 1.06 5.26 1.71 10.75 1.38 16.08-.19 2.99-2.7 5.84-4.16 8.75l-1.28-.51c1.14-3.62 2.97-7.19 3.22-10.86.28-4.18-.41-8.57-1.49-12.64-1.01-3.81-1.41-8.37-6.36-9.97z"/><path d="m626.16 619.85c-5.41 3.06-2.67 7.16-1.71 10.78 1.11 4.2 4.14 7.01 8 8.94 1.16.58 2.26 1.25 3.39 1.88-.12.38-.24.76-.36 1.13-.93-.08-1.94.05-2.77-.28-8.43-3.36-13.43-12.65-11.77-21.72.5-2.71 1.99-3.03 5.23-.73z"/><path d="m211.87 311.23c-.14-2.86.35-3.01 3.11-2.17 3.39 1.03 6.91 1.67 10.41 2.23 2.07.33 4.01-.09 4.37-2.78.11-.8.44-1.57 1.13-1.89 1.08 4.71-.75 7.17-4.61 6.8-3.83-.36-7.58-1.47-11.38-2.17-.89-.17-1.85-.02-3.04-.02z"/><path d="m501.32 409.71c-6.26 8.12-13.01 15.98-14.95 26.45-.4-.03-.79-.06-1.19-.09-.17-.8-.61-1.65-.47-2.39 1.25-6.73 4.7-12.4 8.92-17.63 2.01-2.5 4.22-4.84 6.33-7.25.45.31.91.61 1.36.92z"/><path d="m682.14 241.39c-5.01-.25-8.09-4.1-9.03-10.09-.91-5.82.26-10.02 3.3-11.09-2.44 7.96-2.64 15.35 5.73 21.18z"/><path d="m751.66 451.22c-1.24-5.97-2.25-11.57-3.6-17.09-.7-2.87-.44-6.54-4.55-7.55-.19-.05.18-2.34.33-3.96 6.13 3.66 11.45 23.98 7.83 28.6z"/><path d="m173.56 449.94c.48-1.02.72-2.26 1.46-3.03 4.1-4.27 5.46-9.71 6.81-15.18.51-2.05.99-4.11 1.68-6.09.16-.47 1.1-.82 1.73-.9.22-.03.92 1.05.79 1.41-2.24 6.44-4.41 12.92-6.98 19.23-.81 1.99-2.73 3.52-4.15 5.26-.45-.23-.9-.47-1.35-.7z"/><path d="m1037.71 365.17c4.62 4.35 6.08 25.17 1.75 27.72-.58-9.3-1.16-18.51-1.75-27.72z"/><path d="m741.61 447.64c-.71-3.1-1.23-6.26-2.18-9.29-.78-2.5-2.06-4.84-3.12-7.26-.92-2.1-2.15-3.36-4.68-1.15-.22-.23-.44-.45-.66-.68.33-1.48.32-3.22 1.15-4.31.35-.46 3.14 0 3.72.81 4.13 5.82 6.55 12.39 7.38 19.5.09.78-.5 1.63-.77 2.45-.28-.02-.56-.04-.84-.07z"/><path d="m927.42 171c-1.87 14.14-6.44 22.97-13.74 25.05.93-1.44 1.3-2.52 2.05-3.1 4.88-3.75 6.52-8.99 7.49-14.77.45-2.68 1.92-5.18 2.92-7.77.42.2.85.39 1.27.59z"/><path d="m1071.57 565.02c-1.09 9.79.35 18.33 4.06 26.5-.37.25-.74.5-1.11.75-.98-1.35-2.27-2.57-2.89-4.07-3.51-8.51-3.81-19.23-.05-23.18z"/><path d="m351.27 113.55c-1.51 1.94-4.01 1.67-5.43-.44-2.63-3.91-.65-12.61 1.41-15.18.39-.48 1.33-.53 2.21-.85-.99 2.83-2.07 5.08-2.55 7.45-1.16 5.8-.76 6.42 4.36 9.02z"/><path d="m1011.73 285.36c6.14.94 11.41 1.86 16.72 2.51 2.56.31 5.19-.03 7.77.2.75.07 1.43 1.05 2.14 1.61-.7.44-1.47 1.34-2.11 1.25-7.63-1-15.26-2.09-22.85-3.35-.69-.11-1.16-1.52-1.66-2.21z"/><path d="m1028.36 282.13c-3.92-.67-7.85-1.27-11.75-2.07-1.07-.22-2.16-.86-2.99-1.6-.64-.56-.87-1.57-1.29-2.39.83.19 1.66.37 2.49.57 2.59.63 5.15 1.6 7.77 1.83 3.74.33 7.53.05 11.29.19.72.03 1.42.81 2.13 1.25-.71.57-1.36 1.54-2.13 1.64-1.78.25-3.63.08-5.45.08l-.08.49z"/><path d="m1216.3 256.79c1.33-.2 2.95-.96 3.92-.47 1.13.58 2.24 2.19 2.4 3.47.56 4.45.71 8.94 1.01 13.42.13 1.95.23 3.9.34 5.86-.36.08-.72.16-1.08.24-.53-1.66-1.35-3.29-1.54-4.98-.44-3.96-.54-7.96-.86-11.94-.19-2.39-.29-5-4.76-3.7.19-.64.38-1.27.57-1.91z"/><path d="m682.21 219.44c2.54-.31 2.49 1.61 2.47 3.28-.05 3.12-.26 6.23-.4 9.35-.02.4.07.82.01 1.21-.19 1.19-.43 2.37-.64 3.56-.57-1.18-1.59-2.35-1.61-3.54-.06-3.21.37-6.42.5-9.63.05-1.27-.18-2.55-.31-4.22z"/><path d="m1048.04 369.83c4.26 7.07 1.5 27.69-4.23 29.27 5.46-8.05 2.34-16.76 3.2-25.06.1-1 .08-2.02.2-3.02.04-.3.38-.56.83-1.19z"/><path d="m1086.11 582.98c-3.24.8-4.19-2-4.77-3.71-2.23-6.61-1.49-13.4.22-20.01.44-1.71 2.24-3.19 4.17-.8-4.61 5.11-4.42 16.47.38 24.52z"/><path d="m1231.46 280.98c5.08-6.82 3.15-13.62.5-20.49-.3-.77.25-1.86 1.03-2.8 3.74 6.12 4.68 12.69 3.37 19.48-.34 1.74-2.18 3.19-3.34 4.78-.52-.32-1.04-.65-1.57-.97z"/><path d="m164.41 451.58c4.66-7.21 8.65-14.65 8.09-24.23 4.86 5.03-.78 20.82-8.09 24.23z"/><path d="m1012.16 71.36c3.52-7.45 6.78-14.66 11.72-20.94.46 4.49-8.56 20.66-11.72 20.94z"/><path d="m433.42 269.27c-2.54 1.49-5.27.97-7.8-.03-2.64-1.04-5.45-6.12-5.19-9.38 1.92 2.55 3.15 5.34 5.29 6.71 2.11 1.34 5.14 1.23 7.76 1.76-.02.31-.03.63-.05.94z"/><path d="m907.57 190.6c3.64-6.83 10.96-11.68 7.6-20.6 3.1.33 3.82 2.41 3.51 4.6-.9 6.5-4.81 11.44-9.01 16.16-.19.21-.92-.06-2.11-.17z"/><path d="m428.92 274.91c-4.91 2.7-8.35 1.77-10.86-2.23-2.62-4.17-2.72-6.28-.78-7.67 1 2.43 1.89 5 3.1 7.42 1.63 3.24 5.14 1.66 8.54 2.48z"/><path d="m820.47 443.61c-4.81-1.66-5-5-5.21-7.99-.2-2.87.14-5.8.52-8.67.39-2.9 2.38-3.63 4.84-2.02-4.64 5.75-3.16 11.79-.15 18.68z"/><path d="m1025.34 71.64c2.17-6.91 4.34-13.84 6.55-20.89 2.53 1.51 1.21 4.3.87 6.54-1.09 7.18-4.58 13.63-7.43 14.36z"/><path d="m897.94 64.51c8.39-5.57 19.78 4.28 22.21 20.46-1.06-1.17-2.24-2.24-3.16-3.51-3.15-4.33-5.77-9.16-9.47-12.93-2.1-2.14-5.92-2.57-9.57-4.01z"/><path d="m921.68 283.46c5.23 1.25 10.24.66 15.09-1.57.5-.23 1.18-.09 1.77-.13-.3.66-.46 1.76-.93 1.91-2.64.85-5.32 1.65-8.05 2.12-1.86.32-3.83.23-5.72 0-.95-.12-1.81-.95-2.71-1.45.18-.29.36-.58.55-.87z"/><path d="m59.54 102.53c-3.75 2.96-3.83 9.49-.31 14.57-.87 0-1.71.22-1.91-.04-.88-1.17-2.1-2.42-2.24-3.75-.28-2.79-.2-5.67.19-8.45.25-1.73 1.15-3.68 4.27-2.33z"/><path d="m938.41 288.72c-3.11 3.99-14.78 5.89-18.39 3.13 6.02-1.02 12.18-2.07 18.39-3.13z"/><path d="m976.71 599.55c-.47-.73-1.03-1.42-1.38-2.21-1.23-2.75-2.32-5.58-3.63-8.29-.33-.69-1.27-1.1-1.96-1.61-.52-.38-1.58-.92-1.54-1.01.43-.97.91-2 1.65-2.72.26-.26 1.72.08 1.91.48 2.31 4.77 4.48 9.6 6.69 14.42-.59.31-1.17.62-1.76.94z"/><path d="m970.15 601c-4.93-4.26-9.86-8.51-15.21-13.14 4.92.15 14.11 7.91 15.21 13.14z"/><path d="m65.84 103.9c-2.68 3.43-2.51 7.34-2.29 11.3.04.76-.46 1.56-.71 2.34-.41-.69-1.19-1.4-1.16-2.08.13-3.38.3-6.78.82-10.11.25-1.6 1.49-2.59 3.34-1.45z"/><path d="m88.53 240.92c-2.11 7.33 4.03 8.6 8.12 11.6-4.63.53-9.62-3.02-10.55-7.24-.38-1.74-.3-3.56 2.42-4.37z"/><path d="m825.53 443.59c-.86-1.78-1.75-2.74-1.69-3.64.28-4.12.64-8.26 1.35-12.33.31-1.77 1.58-3.17 2.87-2.35-.85 6.14-1.61 11.66-2.53 18.32z"/><path d="m92.66 232.73c.11 5.07-1.06 10.18 5.3 11.85-2.31 1.45-3.47 1.24-5.09-.62-2.38-2.72-2.77-8.41-.21-11.23z"/><path d="m230.1 316.8c-3.81 2.74-7.75 3.6-11.98 2.11-.46-.16-.76-.78-1.14-1.19.44-.3 1.07-.97 1.31-.85 3.52 1.75 6.84.52 10.22-.46.45-.13 1.06.25 1.59.39z"/><path d="m353.5 109.74c-.61-1.36-1.71-2.64-1.58-3.77.28-2.32 1.17-4.57 1.94-6.81.12-.36.88-.51 1.34-.75.11.51.3 1.02.29 1.53-.01.37-.39.71-.46 1.09-.5 2.7-.96 5.41-1.53 8.7z"/><path d="m611.73 91.98c-.5 2.09-.83 3.74-1.34 5.33-.12.39-.82.6-1.25.89-.17-.49-.54-1-.48-1.46.19-1.57.44-3.14.86-4.65.17-.61.82-1.09 1.26-1.64.38.61.76 1.22.95 1.52z"/><path d="m602.86 89.54c.96 0 2.29-.41 2.83.07 1.93 1.7 2.14 3.83.61 6.16-2.57-.89.78-5.55-3.79-4.95.12-.43.23-.85.35-1.28z"/></svg>