<svg viewBox="0 0 1254.7 679.34" xmlns="http://www.w3.org/2000/svg"><path d="m0 0h1254.7v679.34h-1254.7z" fill="none"/><path d="m65.34 52.52c.98 3.14 2.16 6.16 2.85 9.29 1.94 8.87-1.96 13.66-9.2 16.56-3.45 1.38-7.26-.43-9.17-4.13-3.2-6.2-3.05-12.61-1.13-19.11.45-1.52.99-3.01 1.52-4.6-10.2 2.76-21.58 31.66-15.93 39.85-.79-.47-2.1-.8-2.28-1.44-.58-2.09-1.34-4.39-.98-6.42 1.63-9.33 3.87-18.56 9.51-26.39 2.11-2.93 5.26-5.16 8.1-7.51 3.27-2.7 6.77-5.13 10.06-7.8.45-.37.34-1.49.4-2.26.42-5.91 1.54-11.55 5.34-16.39 5.19-6.61 12.36-7.34 19.94-6.93 4.36.23 4.36.27 7.08-2.3.48 3.26-.55 4.4-3.59 4.38-4.02-.03-8.12-.39-12.03.29-10.9 1.9-15.12 11.83-14.5 21.44 2.26-.17 4.52-.52 6.77-.47 4.59.1 6.46 1.43 7.04 4.62.52 2.85-1.91 6.95-5.05 8.19-1.38.54-2.91.71-4.75 1.13zm.42 6.54c-1.59-4.83-3.64-9.15-9.18-10.22-1.05-.2-2.94.45-3.41 1.29-3.97 7.16-5.2 14.66-1.96 22.49 1.1 2.66 3.76 4.42 6.11 3.78 5.15-1.41 9.62-4.23 9.28-11.12-.1-2.08-.55-4.15-.84-6.22zm-4.85-17.72c1.17 2.45 1.88 3.66 2.35 4.96.85 2.35 2.47 4.09 4.9 3.63 2.55-.49 4.31-2.43 4.72-5.24.32-2.18-.55-3.78-2.71-3.88-2.8-.12-5.63.29-9.27.53zm-1.71 1.54c-1.28 1.24-2.14 2.07-3.26 3.15 1.98.63 3.53 1.12 5.5 1.75-.78-1.71-1.38-3.01-2.24-4.9z"/><path d="m1057.41 504.83c-7.25 2.17-12.82 5.56-15.29 12.73-.53 1.55-1.29 3.02-1.94 4.53-1.9 4.39-3.62 8.77.73 12.93-2.83.68-4.87-1.14-5.21-4.16-.8-7.34 7.1-21.76 13.81-25.07 2.37-1.17 4.9-2.04 7.19-3.34.95-.54 1.57-1.78 2.14-2.82 2.85-5.13 4.68-11.27 8.68-15.23 5.45-5.41 9.37-11.88 14.45-17.45 9.36-10.27 20.83-17.97 32.15-25.82 1.28-.89 3.02-1.3 4.59-1.49.74-.09 2.11.77 2.28 1.42.19.73-.47 1.99-1.15 2.52-.48.38-1.62-.18-2.45-.12-1.28.1-2.88-.06-3.78.63-8.17 6.21-16.35 12.41-24.23 18.96-3.59 2.98-6.52 6.74-10.33 10.75 6.46-.63 11.62-1.53 16.77-1.46 2.08.03 4.77 1.71 5.98 3.46.72 1.04-.46 4.03-1.58 5.57-4.34 5.99-10.45 9.78-17.5 11.58-6.56 1.67-9.83-1.19-10.33-7.99-.03-.45-.37-.87-.61-1.41-5.85 4.44-8.7 10.39-9.9 17.25 4.8.57 9.71.74 14.38 1.88 2.68.65 6.59 2.48 7.08 4.49.85 3.44-2.76 5.89-5.87 6.82-4.22 1.27-8.82 2.58-13.07 2.11-5.54-.62-6.2-2.24-6.81-7.8-.11-.99-.11-1.99-.19-3.48zm39.5-29.77c-5.27-.96-10.34.07-15.33 1.89-3.27 1.2-5.41 3.17-6.29 6.79-1.21 5 1.36 8.18 6.37 6.82 6.7-1.82 12.27-5.64 16.76-10.96 1.83-2.17 1.71-3.87-1.51-4.55zm-15.95 31.92c-6.71-3.59-13.6-3.71-21.5-2.02.89 2.72.96 5.79 2.53 7.21 4.22 3.84 15.96 1.2 18.72-3.75.22-.4.17-.94.25-1.44z"/><path d="m966.35 277.51c-3.79-6.55-8.38-11.18-15.92-11.93-1.63-.16-3.24-.56-4.85-.84-4.71-.83-9.37-1.49-12.41 3.7-1.32-2.59-.02-5.01 2.85-6.03 6.96-2.48 22.81 1.87 27.58 7.63 1.69 2.03 3.12 4.29 4.92 6.22.74.8 2.1 1.11 3.24 1.43 5.65 1.59 12.04 1.95 16.82 4.92 6.53 4.05 13.72 6.37 20.32 10.02 12.16 6.73 22.3 16.11 32.56 25.3 1.16 1.04 1.97 2.63 2.51 4.13.26.7-.25 2.23-.86 2.55-.67.35-2.05 0-2.72-.54-.48-.38-.2-1.62-.45-2.41-.39-1.23-.61-2.81-1.49-3.53-7.93-6.51-15.86-13.03-24.06-19.19-3.73-2.8-8.07-4.79-12.85-7.56 2.11 6.13 4.17 10.95 5.3 15.97.46 2.03-.55 5.04-1.98 6.62-.85.94-4.03.48-5.79-.25-6.83-2.84-11.93-7.91-15.31-14.34-3.15-5.99-1.12-9.83 5.39-11.9.43-.14.76-.56 1.23-.92-5.67-4.67-12.12-6.06-19.08-5.64.55 4.81 1.52 9.62 1.5 14.42-.02 2.76-.89 6.98-2.73 7.92-3.15 1.62-6.37-1.32-8-4.13-2.21-3.81-4.55-7.99-5.08-12.22-.68-5.53.74-6.55 6.02-8.43.94-.33 1.91-.57 3.34-.99zm38.1 31.53c-.29-5.35-2.46-10.04-5.38-14.47-1.92-2.91-4.34-4.53-8.06-4.55-5.15-.02-7.64 3.22-5.16 7.77 3.32 6.1 8.33 10.64 14.54 13.77 2.54 1.28 4.16.77 4.07-2.52zm-34.75-8.13c1.94-7.36.46-14.09-3.01-21.38-2.44 1.49-5.41 2.27-6.43 4.13-2.76 4.99 2.52 15.81 7.98 17.34.44.12.96-.05 1.46-.08z"/><path d="m356.06 18.84c-11.57 4.93-15.81 15.13-19.72 25.15 3.45-.48 6.66-1.11 9.9-1.34 3.78-.27 5.84 1.91 5.03 5.51-.78 3.5-3.58 5.36-6.7 6.87-2.94 1.43-5.63 1.36-8.14-.7-.88-.72-1.43-1.83-2.31-2.99-4.5 4.75-6.96 10.2-7.89 16.45.3.05.51.14.66.09 8.75-3.22 12.23.92 15.59 9.31.35.86.09 2.3-.43 3.12-2.79 4.37-7.13 6.74-11.94 7.95-4.93 1.23-7.58-3.88-7.88-8.41-.1-1.54.13-3.11.22-4.98-.55.37-.86.46-.97.66-3.99 7.48-7.95 15.04-7.67 23.83.09 3.02.04 6.65 4.38 7.43-1.4 2.15-3.06 2.08-4.2.15-3.52-5.9-2.52-12.09-.52-17.98 1.84-5.42 4.18-10.81 7.25-15.61 1.97-3.08 3.29-6.18 4.5-9.54 1.37-3.82 2.91-7.8 5.35-10.96 2.78-3.6 3.14-7.83 4.76-11.7 3.38-8.05 7-16.03 14.61-21.16 1.52-1.02 3.45-1.42 5.2-2.1.31.32.62.63.94.95zm-24.41 66.79c1.44-.67 2.41-1.01 3.25-1.55 6.08-3.83 6.5-4.81 4.23-9.63-1.68-3.56-5.18-5.99-8.08-5.59-4.42.59-5.82 2.27-6.45 7.72-.11.98-.41 2.01-.26 2.95.73 4.59 2.69 8.78 7.3 6.1zm9.14-40.71c0 .15.01.29.02.44-.47.18-1.07.24-1.38.57-1.18 1.25-3.01 2.48-3.21 3.91-.28 2.01 1.63 3.18 3.62 3.8 2.86.89 9.11-2.85 9.21-5.84.03-1.02-1.02-2.85-1.8-2.98-2.09-.36-4.29 0-6.45.09z"/><path d="m799.36 557.15c-7.71 2.28-14.4 5.43-19.19 11.67.17.26.27.58.43.61 11.84 2.1 11.91 11.23 10.3 20.08-.67 3.67-3.98 4.57-6.95 4.64-4.25.09-8.59-.27-12.77-1.07-4.33-.83-6.62-4.69-5.31-8.86 1.17-3.73 3.07-7.24 4.64-10.83-.05.02-.67.12-1.2.4-9.25 4.9-18.49 9.9-24.19 19.18-1.35 2.19-1.99 4.9-2.48 7.47-.18.96 1.02 2.18 1.95 3.97-2.98-.2-4.93-1.26-4.22-3.94 1.05-3.94 2.01-8.39 4.52-11.35 8-9.41 17.88-16.38 29.92-20.05 2.09-.64 3.98-2.39 5.61-3.98 5.07-4.95 11.15-8.02 17.77-10.24 1.4-.47 3.03-.94 3.98-1.96 6.61-7.07 15.08-10.99 23.7-14.89 5.34-2.42 10.58-2.89 16.13-1.92 1.16.2 2.22.98 3.31 2.16-15.33-2.79-26.56 5.37-37.98 12.68 4.11 2.12 8.03 3.93 11.73 6.11 3.53 2.08 3.81 5.92.84 8.74-4.38 4.16-16.55 4.58-19.29-2.71-.67-1.8-.82-3.79-1.25-5.91zm-10.3 29.88c-.27-3.21-.19-6.49-.9-9.6-.96-4.25-9.14-7.31-12.07-4.58-2.54 2.37-4.96 5-6.86 7.89-2.83 4.29-.63 9.77 3.82 10.37 1.84.25 3.69.37 5.53.6 5.73.71 9.11-.85 10.47-4.68zm18.55-20.6c3.51-.72 6.73-1.02 9.6-2.18.91-.37 1.72-4.04 1.19-4.45-3.36-2.66-6.77-5.54-11.71-4.63-3.43.63-5.35 3.19-3.79 6.32.9 1.8 2.86 3.07 4.7 4.95z"/><path d="m120.42 327.83c-.81.62-1.63 1.73-2.44 1.72-.82 0-2.21-1-2.36-1.76-1.06-5.47-2.61-10.99-2.59-16.49.03-7.85.36-15.72.52-23.59.07-3.28 1.47-6.52 2.23-9.79.21-.92.67-1.99.39-2.77-3.52-9.76-.92-18.35 4.81-26.4.32-.45.52-.98.73-1.5.29-.69.4-1.54.88-2.03.2-.2 1.62.27 1.71.62.18.74.07 1.74-.31 2.41-1.84 3.21-3.94 6.27-5.69 9.52-2.94 5.44-2.19 10.96 0 17.05 2.4-2.03 4.28-4.04 6.56-5.39 1.2-.72 3.44-.93 4.59-.28 6.33 3.63 6.7 13 .87 17.32-2.26 1.68-5.04 1.43-7.02-.69-.97-1.03-1.85-2.15-2.76-3.23-.85-1-1.7-2-2.9-3.42-2.82 5.27-2.42 10.49-2.16 16.42 2.01-1.71 3.34-3.15 4.95-4.1 1.3-.76 3.19-1.63 4.39-1.21 4.3 1.51 7.45 4.61 8.37 9.16.92 4.5.98 9.06-3.11 12.45-2.49 2.07-4.77 1.96-7.4-.54-2.38-2.27-4.67-4.63-7.76-7.71.05 4.51-.07 8.22.19 11.92.21 3.08.86 6.14 1.34 9.2.32 2.01.96 3.63 3.79 2.17.06.31.12.62.19.94zm-.12-22.02c-.06.07-.13.15-.19.22 1.74 1.49 3.4 3.09 5.24 4.44 1.44 1.06 2.7 1.06 3.99-.77 3.9-5.52 2.43-13.44-3.51-16.78-1.06-.6-2.9-.71-4-.21-5.45 2.5-6.38 7.36-2.51 11.94.33.39.65.77.98 1.15zm-1.51-28.97c2.49 2.93 4.36 5.52 6.68 7.64.71.66 3.04.56 3.89-.11 4.04-3.18 4.02-9.56.01-12.79-.84-.68-2.79-1.04-3.56-.53-2.41 1.58-4.51 3.65-7.02 5.78z"/><path d="m330.75 239.5c-.81-3.08-2.45-2.48-4.15-1.37-2.6 1.69-5.3 3.26-7.74 5.16-2.92 2.28-5.6 4.85-8.98 7.83 4.35.24 7.64.35 10.92.61 3.62.28 5.22 1.9 5.35 5.13.21 5.31-3.22 8.3-7.18 10.64-4.01 2.36-8.41 2.1-12.41-.1-1.11-.61-1.73-2.6-2.04-4.07-.38-1.83-.19-3.78-.26-6.42-4.59 3.77-8.74 6.97-10.77 12.59 1.86-.05 3.17-.09 4.48-.13 1.42-.04 2.84-.14 4.25-.11 2.9.06 4.95 1.95 5.21 4.76.68 7.22-6.53 13.22-13.46 10.94-1.25-.41-2.59-2.23-2.86-3.6-.51-2.59-.28-5.34-.37-8.48-5.99 2.45-10.6 5.58-12.68 11.4-1.24 3.48-2.11 7.09-3.27 10.6-.24.73-.91 1.48-1.58 1.84-.32.17-1.62-.57-1.6-.86.04-.68.6-1.33.92-2.01.24-.5.5-1.01.62-1.54 2.16-9.64 6.8-17.32 16.41-21.23.77-.31 1.26-1.37 1.8-2.14 1.92-2.75 3.4-5.96 5.79-8.21 5.74-5.38 11.37-10.89 17.19-16.17 4.07-3.7 9.21-6.24 13.99-9.11.66-.4 2.33-.03 2.88.58.55.6.27 1.95.36 2.97-.27.16-.55.33-.82.49zm-17.15 14.2c-6 .18-8.99 4.13-7.2 9.85.36 1.15 1.67 2.44 2.83 2.83 6.46 2.19 13.33-2.03 14.83-8.61.5-2.18-.35-3.12-2.1-3.48-2.23-.47-4.53-.63-6.8-.93-.01.1-.03.19-.04.29-.5.01-1.01.03-1.51.04zm-20.64 27.3c.14.91 1.71 2.12 2.78 2.3 5.08.82 9.84-3.43 9.5-8.56-.07-1.09-1.56-2.88-2.52-2.97-3.12-.3-6.3.04-10.15.15.1 3.3-.04 6.24.39 9.09z"/><path d="m710.17 136.91c-.22-.72-.45-1.43-.75-2.41-12.36-.76-24.86-2.72-37.73 1.56 1.99 1.63 3.6 2.78 5 4.14 2.43 2.36 4.93 4.69 7.05 7.32 1.96 2.43.43 5.03-2.98 5.27-4 .28-7.49-1.25-10.56-3.66-1.5-1.18-2.79-2.66-4.07-4.09-3.09-3.46-3.11-4.32-.03-8.45-7.86-.23-12.63 4.31-17.32 9.1.21.27.29.46.43.55 4.78 2.76 6.08 5.24 4.41 8.43-2.52 4.8-8.18 6.98-12.49 4.96-1.83-.86-2.02-1.91-1.17-3.54 1.23-2.35 2.38-4.74 3.6-7.18-7.21-1.82-15.74 2.13-18.25 8.17-1.37-1.31-1.64-2.63-.17-4.16 1.49-1.56 3.27-3.24 5.24-3.86 4.18-1.31 8.53-2.17 12.88-2.83 3.64-.56 5.16-3.78 7.84-5.53 3.61-2.36 6.83-5.34 11.33-5.96.29-.04.61-.29.86-.23 6.3 1.46 11.88-2.34 17.95-2.45 6.36-.11 12.72-.15 19.08-.06 3.21.04 6.43.3 9.62.72 1.01.14 2.42.96 2.7 1.79.23.66-.99 1.81-1.56 2.74-.3-.11-.61-.22-.91-.33zm-27.36 13.55c-3.21-5.7-7.43-9.42-12.53-12.08-.83-.43-2.54.45-3.63 1.08-.43.25-.63 1.69-.32 2.26 2.57 4.89 6.76 7.76 12.07 8.94 1.25.28 2.65-.1 4.42-.2zm-40.83 6.88c3.25 1.53 6.48.68 8.71-2.22 1.08-1.4 2.46-2.85.93-4.47-.99-1.05-2.73-2.14-3.98-1.98-1.15.15-2.33 1.79-3.08 3.03-1.06 1.76-1.74 3.74-2.58 5.64z"/><path d="m609.06 316.85c-6.65 4.54-10.84 10.85-12.82 18.35-1.09 4.14-1.02 8.59-1.5 13.2 4.73-2.04 8.69-4.15 12.9-5.47 4.99-1.57 7.97.66 8.79 5.85 1.25 7.87-5.42 19.07-12.6 21.14-3.69 1.06-5.94-.15-7.2-3.82-1.09-3.15-2.22-6.27-3.34-9.41-.38-.11-.77-.21-1.15-.32-2.12 6.29-4.23 12.57-6.22 18.49 4.89.11 9-.24 12.88.55 1.32.27 2.5 3.31 2.96 5.26 1.26 5.41-2.11 10.28-7.61 11.56-4.67 1.09-7.38-1.96-10.13-11.53-5.63 1.74-7.01 6.91-8.92 11.36-1.43 3.32-1.91 7.04-2.89 10.57-.23.85-.76 1.62-1.15 2.42-.35-.08-.71-.16-1.06-.24.15-1.75-.04-3.6.5-5.22 1.66-5.01 3.56-9.95 5.47-14.87.4-1.02 1.06-2.2 1.94-2.73 5.08-3.06 6.39-7.81 7.58-13.3 1.15-5.28 4.51-10.03 6.37-15.21.92-2.56.84-5.55.86-8.35.07-9.84 3.14-18.51 9.85-25.74 1.49-1.6 3.56-2.65 5.37-3.96.38.47.76.95 1.14 1.42zm-5.59 30.75s0 .02.01.02c-1.88 1.01-3.95 1.78-5.57 3.11-.98.81-1.99 2.62-1.75 3.71.86 3.88 2.14 7.67 3.47 11.42.83 2.35 2.53 2.41 4.56 1.22 5.82-3.43 8.88-8.74 9.82-15.18.29-1.99-.28-5.28-1.58-6.02-1.6-.91-4.38.14-6.62.51-.83.14-1.56.79-2.34 1.21zm-14.94 37.94c2.73 5.09 3.4 5.38 7.07 3.38 3.8-2.07 5.03-6.3 3.01-10.34-1.26-2.52-6.28-2.97-10.43-.09-3.27 2.27-.11 5.04.35 7.05z"/><path d="m525.52 302.85c1.91 1.42 3.63 2.71 5.36 3.99-.17.32-.35.64-.52.97-.69-.31-1.45-.51-2.05-.94-1.89-1.38-3.38-2.29-5.1.53-1.87 3.07-6.89 2.89-9.04.02-1.39-1.85-.93-3.58 1.4-4.07 2.44-.51 4.97-.53 7.55-.77 1.83-6.5-.42-11.8-6.7-14.64-.56 2.02-1.11 4-1.66 5.97-1 3.55-3.31 5.46-6.98 5.31-4.84-.2-9.52-1.1-13.68-3.94-2.23-1.52-4-3.32-3.64-6.1.37-2.92 3-3.86 5.37-4.59 5.57-1.72 11.22-2.36 16.94-.57.46.14.96.18 1.49.27-1.77-9.78-23.24-19.16-35.19-15.5-.14.96-.28 1.92-.48 3.23-2.61-2.98-2.26-4.97.82-5.59 2.14-.43 4.44-.41 6.63-.16 10.01 1.17 19.54 3.66 26.92 11.18 1.16 1.18 2.49 2.68 2.73 4.19.5 3.17 2.49 4.72 4.82 6.47 4.01 3.02 5.82 7.25 5.24 12.35-.1.89-.17 1.78-.22 2.39zm-11.17-15.9c-6.15-2.37-14.36-2.13-19.87.44-2.51 1.17-2.88 2.44-.88 4.52 3.79 3.92 8.69 5.1 13.97 4.99 3.36-.07 5.35-1.64 5.63-5.22.12-1.55.73-3.06 1.16-4.73zm1.41 18.66c2.83 2.66 4.15 2.51 6.6-.94-2.43.34-4.37.62-6.6.94z"/><path d="m316.16 360.78c-4.27-10.03-14.11-10.73-22.61-13.57 8.99-2.22 20.76 3.94 25.45 12.47.66 1.19 1.91 2.19 3.11 2.92 6.32 3.84 12.66 7.66 19.1 11.29 2.41 1.36 5.06 2.34 7.69 3.25 5.08 1.77 10.33 3.11 15.28 5.17 1.88.78 3.43 2.9 4.54 4.75.55.92-.21 2.64-1.08 4.11 0-5.52-3.88-6.98-7.74-8.3-4-1.38-8.07-2.56-12.67-4 .7 3.14 1.53 5.6 1.73 8.11.36 4.45-1.84 6.15-6.29 5.26-4.87-.97-8.39-3.96-10.92-7.96-2.48-3.91-.87-6.98 3.67-7.81.96-.17 1.91-.35 3.23-1.5-5.43-3.34-10.87-6.68-16.86-10.37.3 3.11.71 5.14.66 7.17-.12 5.58-3.37 7.98-8.45 5.69-3.24-1.46-6.24-3.8-8.8-6.31-2.77-2.73-1.91-5.62 1.69-7.08 2.89-1.18 5.89-2.11 9.25-3.3zm3.07 14.56c1.84-3.87.1-7.07-1.39-10.24-.28-.6-1.45-1.28-2.04-1.15-2.8.64-5.59 1.4-8.25 2.46-.53.21-1 2.4-.6 2.81 3.29 3.39 6.58 7.02 12.28 6.12zm14.16 4.25c1.14 6.11 4.89 8.43 9.33 9.88.96.31 2.65-.06 3.32-.77 1.36-1.43-1.82-9.51-3.79-9.6-2.86-.13-5.74.29-8.85.49z"/><path d="m504.62 630.02c.26-2.2.52-3.99.69-5.78.38-4.11 2.36-7.35 5.26-10.18 1.89-1.84 3.59-1.57 5.25.13 6.8 6.98 9.51 15.7 9.62 25.09.07 5.65-5.19 9.79-10.73 5.85-2.01-1.43-3.88-3.06-6.19-4.39 1.41 8.56 1.76 17.59 11.34 22.12-2.24 1.67-5.68 1.02-7.11-1.79-2.24-4.4-4.42-8.98-5.64-13.73-1.65-6.42-2.9-12.71-6.51-18.6-4.96-8.07-7.34-17.26-7.29-26.83.02-3.83 2.05-5.07 6.13-4.05-5.82 2.24-4.21 6.75-3.23 10.36 1.88 6.97 4.52 13.73 6.9 20.55.14.39.74.62 1.52 1.25zm9.14 12.28c2.28.46 4.92 1.85 6.76 1.15 2.75-1.04 2.65-4.28 2.26-6.98-.93-6.5-2.65-12.7-6.82-18-2.65-3.38-4.55-3.29-6.54.5-4.08 7.76-2.21 17.08 4.33 23.33z"/><path d="m1097.36 55.5c-11.15 3.61-20.33 7.71-19.95 21.18-3.55-7.58-1.82-12.41 5.5-17.3 4.99-3.33 10.31-5.79 16.33-6.6 1.07-.15 2.18-.73 3.07-1.38 7.55-5.55 16.46-7.66 25.25-10.09 3.46-.96 6.97-1.74 10.48-2.46 1.23-.25 2.58-.27 3.8-.03.67.13 1.57.94 1.68 1.56.13.73-.32 1.77-.87 2.31-.25.24-1.35-.56-2.09-.62-1.39-.1-2.86-.27-4.18.05-7.23 1.78-14.47 3.58-21.62 5.65-2.77.8-5.33 2.33-9.04 4 6.23 1.44 11 3.09 14.39 7.61 4.09 5.45 3.74 8.64-2.11 12.28-5.23 3.25-13.78 3.12-18.29-.27-6.05-4.54-6.68-7.82-2.34-15.89zm18.51 2.6c-7.82-4.89-13.15-4.27-17.79 2.28-1.51 2.13-1.34 3.9.11 5.96 3.49 4.93 8.51 5.92 13.72 4.54 2.96-.78 6.48-2.81 7.77-5.3.75-1.44-2.41-4.92-3.82-7.48z"/><path d="m817.74 595.42c-2.82 1.6-5.12 2.27-6.42 3.8-1.66 1.95-2.8 4.48-3.63 6.95-1.59 4.71-2.79 9.54-4.16 14.32l1.11.39c1.68-1.45 3.27-3.04 5.06-4.34 4.85-3.5 8.86-2.05 10.48 3.67 1.8 6.37-1.03 15.37-5.64 17.95-4.82 2.7-7.84 1.58-9.95-3.63-.4-.99-1.04-1.87-1.65-2.94-8.11 11.93-6.69 19.76.37 30.08.66.96 2.76 1.2 4.21 1.25 1.08.04 2.19-.75 3.73-1.33-1.71 4.56-6.73 5.57-9.44 2.17-6.43-8.07-9.03-16.5-4.75-26.34 2.53-5.83 4.4-11.56 5.09-18.07.71-6.81 3.65-13.48 6.27-19.94 1.27-3.12 4.29-5.13 9.31-4zm-6 23.36c-4.93 2.74-8.57 8.11-4.85 15.11 1.93 3.64 5.59 3.57 7.78.87 3.15-3.88 3.86-8.37 2.99-13.12-.87-4.73-1.89-5.14-5.92-2.86z"/><path d="m855.53 349.12c-7.53-3.53-11.85 2.78-17.29 5.31-1.88.87-3.49 2.31-5.96 4 3.02 1.34 5.61 2.28 7.98 3.6 3.94 2.18 4.32 4.21.94 6.84-6.3 4.89-13.68 6.9-21.57 6.33-4.44-.32-5.52-3.47-2.82-7.01 1.35-1.77 2.75-3.49 4.67-5.93-6.27.15-11.33 1.92-15.38 5.36-3.95 3.36-7.12 7.64-10.77 11.66-1.21-2.69.06-4.73 1.73-6.64 6.28-7.18 14.01-11.86 23.54-13.1 4.98-.65 9.25-2.54 13.42-5.28 4.69-3.08 9.76-5.61 14.73-8.25 3.24-1.73 5.37-.24 6.79 3.12zm-15.08 17.06c-6.62-7.51-18.65-5.2-21.88 3.97-.23.64.99 2.58 1.5 2.57 7.38-.19 14.42-1.61 20.38-6.53z"/><path d="m461.58 423.65c1.59-1.92 2.96-4.08 4.8-5.72 7.58-6.73 16.17-11.86 25.84-14.95 2.61-.84 5.5-.66 6.88 2.75-6.56-2.28-11.53 1.29-16.54 4.13-6.32 3.59-12.92 6.88-17.43 12.97-.6.82-1.84 1.16-2.79 1.73-.25-.3-.51-.61-.77-.91z"/><path d="m459.31 559.77c-1.24-13.26-7.44-21.9-20.82-25.93 0-.04-.03-1.08-.06-2.26 6.87.15 11.47 3.96 15.56 8.38 6.97 7.54 9.1 15.37 5.32 19.81z"/><path d="m612.19 624.94c-3.27.96-6.36 1.54-9.17 2.77-4.77 2.1-6.44 6-4.47 10.82 1.74 4.27 4.1 8.28 6.16 12.42.66 1.33 1.24 2.69 1.56 4.16-4.85-2.94-12.32-16.39-10.23-22.89 1.88-5.85 11.62-10.76 16.15-7.28z"/><path d="m163.74 607.2c-.74-2.86-1.52-5.86.56-8.59 5.22-6.84 11.95-11.8 19.89-15.07 1.81-.74 3.83-1.24 4.27 1.66.11.73-.27 1.54-.43 2.31-.66-.22-1.32-.43-1.97-.65-.63-.21-1.39-.75-1.86-.57-7.32 2.83-13.17 7.67-18.03 13.72-.75.94-.64 2.6-.85 3.93-.17 1.1-.23 2.22-.34 3.33-.41-.02-.82-.05-1.23-.07z"/><path d="m202.96 595.39c-10.94 6.35-23.68 8.15-30.53 19.35-1.53-3.86 1.41-6.61 3.12-7.58 8.15-4.61 16.76-8.4 25.23-12.45.23-.11.65.19 2.19.69z"/><path d="m923.7 85.43c-14.98-1.22-28.36-2.3-41.44-3.36 1.59-4.47 8.03-7.84 14.73-6.7 4.72.8 9.64 1.1 14.1 2.68 4 1.42 7.48 4.29 12.61 7.38z"/><path d="m443.12 525.43c-.64-3.28 1.34-3.64 3.2-2.91 3.24 1.27 6.71 2.56 9.29 4.76 4.08 3.49 7.98 7.41 11 11.8 1.7 2.47 1.48 6.26 2.12 9.45l-1.32.39c-1.34-3.55-2.09-7.49-4.16-10.54-2.35-3.46-5.6-6.49-8.97-9.03-3.15-2.37-6.27-5.72-11.15-3.93z"/><path d="m637.06 634.88c-5.63-2.63-7.37 1.99-9.77 4.88-2.78 3.34-3.3 7.44-2.62 11.7.2 1.28.3 2.57.44 3.85-.38.12-.76.24-1.13.36-.47-.8-1.17-1.55-1.38-2.42-2.17-8.81 2.48-18.28 10.83-22.2 2.49-1.17 3.62-.14 3.64 3.83z"/><path d="m228.58 306.26c2.43 1.51 2.27 2 .02 3.79-2.77 2.2-5.3 4.73-7.76 7.3-1.45 1.51-2.21 3.35-.2 5.18.6.54 1.04 1.25.91 2-4.49-1.79-5.47-4.69-2.98-7.66 2.47-2.94 5.52-5.4 8.26-8.13.64-.64 1.07-1.5 1.75-2.48z"/><path d="m503.53 421.75c-10 2.27-20.21 4.02-28.38 10.85-.29-.27-.57-.55-.86-.82.38-.73.58-1.66 1.16-2.15 5.26-4.39 11.52-6.56 18.11-7.91 3.14-.64 6.33-1.04 9.5-1.55.15.52.31 1.05.46 1.57z"/><path d="m675.72 241.5c-4.1-2.89-4.63-7.8-2.21-13.36 2.35-5.4 5.58-8.32 8.73-7.6-6.33 5.41-10.45 11.55-6.51 20.95z"/><path d="m755.94 447.06c-3.19-5.2-6.05-10.12-9.19-14.85-1.64-2.46-2.63-6-6.85-5.56-.19.02-.62-2.26-1.04-3.83 7.01 1.36 18.92 18.67 17.08 24.24z"/><path d="m186.46 434.21c-1.13.05-2.34.4-3.36.1-5.68-1.68-11.13-.37-16.61.95-2.05.49-4.1 1.01-6.18 1.31-.49.07-1.23-.6-1.59-1.12-.12-.18.51-1.3.89-1.35 6.75-.98 13.5-2.03 20.29-2.66 2.14-.2 4.38.8 6.58 1.26v1.52z"/><path d="m1029.88 370.76c6.2 1.36 18.14 18.48 15.73 22.89-5.28-7.68-10.5-15.28-15.73-22.89z"/><path d="m745.26 447.1c-1.72-2.68-3.29-5.47-5.21-8-1.58-2.09-3.58-3.86-5.4-5.77-1.58-1.66-3.17-2.43-4.79.51-.28-.14-.57-.28-.85-.42-.19-1.5-.79-3.13-.38-4.44.17-.55 2.95-1.07 3.77-.5 5.86 4.08 10.37 9.43 13.56 15.83.35.7.08 1.7.1 2.56-.27.07-.54.15-.81.22z"/><path d="m912.95 168.11c10.75 9.37 15.59 18.05 13.29 25.29-.69-1.57-1.38-2.47-1.45-3.42-.43-6.14-3.9-10.4-8.18-14.4-1.98-1.85-3.26-4.46-4.86-6.73.4-.24.8-.49 1.19-.73z"/><path d="m1075.92 563.46c-4.89 8.55-6.96 16.96-6.8 25.93-.44.08-.88.16-1.32.25-.36-1.63-1.07-3.26-1.04-4.89.15-9.2 4.14-19.16 9.16-21.29z"/><path d="m342.67 103.78c-1.09-2.2.25-4.34 2.77-4.7 4.67-.66 11.63 4.91 13.05 7.88.27.56-.1 1.42-.2 2.36-2.12-2.12-3.67-4.08-5.6-5.54-4.71-3.58-5.44-3.48-10.02 0z"/><path d="m1012.25 279.35c5.11 3.53 9.45 6.67 13.94 9.57 2.17 1.4 4.68 2.25 6.9 3.58.65.39.83 1.56 1.22 2.38-.83.09-1.91.56-2.44.21-6.43-4.24-12.8-8.56-19.08-13.01-.57-.4-.38-1.87-.53-2.72z"/><path d="m1028.63 283.72c-3.23-2.32-6.5-4.58-9.66-7-.87-.67-1.57-1.72-1.99-2.75-.33-.78-.1-1.8-.11-2.71.66.53 1.33 1.06 1.99 1.61 2.05 1.7 3.93 3.69 6.19 5.04 3.22 1.93 6.75 3.34 10.07 5.12.64.34.92 1.35 1.37 2.05-.89.21-1.89.79-2.63.54-1.71-.56-3.3-1.52-4.93-2.31l-.29.41z"/><path d="m1224.35 253.34c1.24.53 3.01.75 3.57 1.69.65 1.09.73 3.04.19 4.22-1.89 4.06-4.15 7.95-6.28 11.9-.93 1.72-1.88 3.43-2.83 5.14-.35-.12-.69-.24-1.04-.37.43-1.69.61-3.5 1.35-5.04 1.73-3.59 3.77-7.03 5.62-10.57 1.11-2.13 2.41-4.39-2.07-5.66.5-.44 1-.87 1.5-1.31z"/><path d="m687.54 223c2.31 1.1 1.24 2.69.33 4.09-1.71 2.6-3.56 5.12-5.35 7.68-.23.33-.38.73-.64 1.03-.8.9-1.63 1.77-2.45 2.66.15-1.3-.08-2.84.54-3.86 1.67-2.74 3.75-5.22 5.58-7.87.72-1.05 1.21-2.25 1.99-3.73z"/><path d="m1041.13 369.46c7.29 3.88 15.51 22.99 11.4 27.29.55-9.71-6.6-15.59-10.13-23.15-.43-.91-.97-1.77-1.38-2.69-.12-.27.04-.67.11-1.45z"/><path d="m1082.13 585.73c-3.29-.55-3.05-3.5-2.91-5.3.58-6.95 3.96-12.89 8.15-18.27 1.08-1.39 3.33-2.04 4.15.92-6.26 2.86-10.6 13.36-9.39 22.65z"/><path d="m1224.34 281.88c7.92-3.07 9.91-9.87 11.31-17.09.16-.81 1.2-1.44 2.36-1.82-.08 7.17-2.78 13.24-7.5 18.29-1.21 1.3-3.55 1.54-5.36 2.27-.27-.55-.54-1.1-.81-1.65z"/><path d="m192.13 441.57c-8.54-.82-16.99-.93-25.24 3.98 2.23-6.63 18.84-8.9 25.24-3.98z"/><path d="m1026.64 75.34c-4.8-6.7-9.52-13.05-12.6-20.42 4.14 1.78 13.9 17.52 12.6 20.42z"/><path d="m399.08 279.67c2.75-1.05 5.36-.1 7.69 1.31 2.43 1.46 4.37 6.93 3.59 10.1-1.48-2.83-2.23-5.79-4.12-7.48-1.86-1.67-4.86-2.06-7.37-3.01.07-.31.14-.61.21-.92z"/><path d="m918.33 195.48c-3.68-6.81-3.67-15.59-12.97-17.71 1.99-2.4 4.12-1.85 5.78-.39 4.92 4.34 6.88 10.33 8.49 16.44.07.28-.56.74-1.31 1.66z"/><path d="m404.44 274.84c5.29-1.86 8.52-.38 10.35 3.98 1.91 4.54 1.65 6.64-.49 7.69-.59-2.56-1.05-5.25-1.85-7.83-1.08-3.46-4.8-2.48-8.02-3.84z"/><path d="m803.09 447c-3.3-3.87-1.77-6.84-.43-9.52 1.29-2.57 3.06-4.93 4.85-7.21 1.8-2.3 3.9-1.92 5.19.72-6.92 2.6-8.7 8.56-9.61 16.01z"/><path d="m1033.3 63.96c-4.98-5.25-9.98-10.52-15.07-15.88 2.55-1.48 4.35 1.03 6.14 2.41 5.75 4.44 9.68 10.63 8.94 13.47z"/><path d="m888.81 71.96c2.61-9.73 17.67-9.87 30.19.66-1.57-.17-3.17-.2-4.69-.54-5.23-1.17-10.38-3.06-15.66-3.44-2.99-.21-6.15 1.99-9.84 3.32z"/><path d="m905.74 297.93c-.43 5.36.93 10.22 3.88 14.67.31.46.27 1.15.4 1.73-.7-.2-1.81-.18-2.03-.62-1.25-2.48-2.45-5.01-3.34-7.63-.6-1.79-.82-3.75-.88-5.65-.03-.95.65-1.93 1.02-2.9.32.13.63.27.95.4z"/><path d="m53.55 112.47c.87-4.7 6.6-7.82 12.73-7.09-.4-.76-.6-1.62-.93-1.67-1.45-.23-3.13-.73-4.36-.23-2.6 1.05-5.11 2.47-7.38 4.12-1.41 1.03-2.72 2.73-.06 4.86z"/><path d="m903.14 315.27c-4.42-2.45-8.1-13.69-5.94-17.69 1.94 5.79 3.93 11.71 5.94 17.69z"/><path d="m976.71 599.55c-.47-.73-1.03-1.42-1.38-2.21-1.23-2.75-2.32-5.58-3.63-8.29-.33-.69-1.27-1.1-1.96-1.61-.52-.38-1.58-.92-1.54-1.01.43-.97.91-2 1.65-2.72.26-.26 1.72.08 1.91.48 2.31 4.77 4.48 9.6 6.69 14.42-.59.31-1.17.62-1.76.94z"/><path d="m970.15 601c-4.93-4.26-9.86-8.51-15.21-13.14 4.92.15 14.11 7.91 15.21 13.14z"/><path d="m57.7 117.4c1.78-3.98 5.32-5.65 8.91-7.3.7-.32 1.16-1.14 1.74-1.72-.8-.04-1.79-.39-2.38-.06-2.93 1.7-5.85 3.44-8.56 5.45-1.3.97-1.59 2.53.28 3.63z"/><path d="m92.17 238.82c-7.56 1.01-6.26 7.14-7.37 12.09-2.34-4.03-1.09-10.02 2.4-12.56 1.44-1.05 3.14-1.7 4.97.47z"/><path d="m807.46 449.55c.16-1.97-.12-3.25.39-3.99 2.33-3.41 4.75-6.79 7.41-9.94 1.16-1.37 2.97-1.93 3.67-.57-3.85 4.86-7.3 9.23-11.47 14.5z"/><path d="m101.33 239.32c-4.6 2.13-9.75 3.11-8.73 9.61-2.25-1.53-2.53-2.68-1.48-4.91 1.54-3.27 6.59-5.91 10.2-4.7z"/><path d="m213.63 318.09c-.09-4.69 1.44-8.43 5.07-11.05.4-.29 1.08-.18 1.63-.26 0 .54.19 1.43-.04 1.56-3.44 1.9-4.32 5.33-5.43 8.67-.15.45-.8.73-1.22 1.08z"/><path d="m345.13 107.45c1.49.04 3.12-.39 4.08.22 1.96 1.26 3.6 3.05 5.28 4.71.27.27.07 1.01.09 1.53-.51-.13-1.05-.17-1.5-.41-.33-.17-.47-.66-.78-.89-2.21-1.62-4.45-3.22-7.16-5.17z"/><path d="m610.33 90.02c.54 2.08 1.03 3.69 1.34 5.33.08.4-.44.92-.68 1.38-.38-.35-.95-.63-1.11-1.06-.57-1.47-1.09-2.97-1.44-4.51-.14-.62.21-1.35.34-2.04.62.36 1.24.71 1.55.9z"/><path d="m601.35 92.06c.85-.46 1.82-1.44 2.53-1.27 2.51.59 3.69 2.36 3.45 5.14-2.69.43-1.94-5.26-5.67-2.57-.1-.43-.2-.86-.3-1.29z"/></svg>