<svg viewBox="0 0 218.46 218.46" xmlns="http://www.w3.org/2000/svg"><path d="m71.7 124.13c.3-1.1.74-2.39.97-3.71.09-.51-.12-1.47-.45-1.6-2.44-1-4.95-1.87-7.45-2.73-.34-.12-.76.02-1.19.03v5.43c-1.19.19-2.28.18-3.22.55-1.23.48-2.36 1.22-3.5 1.92-1.93 1.18-3.8 1.21-5.21-.54-2.57-3.21-4.88-6.64-7.3-9.96-.24-.33-.54-.87-.84-.89-3.57-.24-4.29-2.96-4.96-5.66-.61-2.45-.94-4.97-1.66-7.38-.39-1.3-1.31-2.46-2.07-3.62-.71-1.09-1.7-2.02-2.26-3.18-1.72-3.57-3.27-7.22-4.92-10.83-1.22-2.69-.13-4.61 2.9-4.72 2.56-.1 4.44-1.04 5.61-3.38.72-1.46.52-1.94-1.09-2.09-2.79-.27-3.88-2.38-2.16-4.61 1.35-1.75 3.07-3.23 4.7-4.75 3.14-2.95 6.6-5.61 9.44-8.82 2.62-2.98 4.6-6.52 6.86-9.82.57-.84 1.08-1.74 1.75-2.49 1.64-1.85 3.74-1.61 5.03.5.53.87.96 1.81 1.61 2.58.76.9 1.65 1.04 2.27-.23 2.8-5.69 5.65-11.36 8.37-17.09 1.63-3.42 3.05-6.94 4.63-10.38.22-.48.82-.77 1.25-1.15-.06.45-.05.93-.19 1.36-.66 1.95-1.36 3.88-1.77 6.01.58-1.08 1.08-2.22 1.77-3.23.91-1.35 1.92-2.64 2.99-3.87.21-.25.97-.26 1.34-.08 1.94.89 4.01 1.65 5.73 2.88 3.49 2.49 7.52 3.6 11.45 4.99 3.52 1.24 7.04 2.48 10.61 3.57 1.13.35 2.4.26 3.61.32.81.04 1.62 0 2.35 0 1.01 4.8-2.18 8.04-3.5 11.83-1.77 5.07-4.01 9.98-6 14.98-.28.69-.15 1.54-.37 2.26-.7 2.22-3.28 3.35-5.72 3.34-2.64 0-5.33.44-7.91 1.06-3.93.95-7.77 2.25-11.66 3.36-1.51.43-1.63 1.25-.98 2.56 2.2 4.45 2.23 4.55-1.92 7-3.42 2.02-7.04 3.71-10.46 5.73-1.35.8-2.53 2-3.57 3.2-1.03 1.21-2.09 1.5-3.47.85-.43-.2-.83-.47-1.55-.9-.38 6.41-.45 12.45 1.66 18.2.61 1.66 2.27 3.14 3.81 4.18 1.52 1.03 3.49 1.39 5.26 2.05.24.09.52.14.69.31 2.18 2.02 4.18 1.1 6.68.28 4-1.31 7.03-3.72 10.03-6.38.46-.41 1.27-.44 1.67-.96.81-.6 1.54-1.51 2.45-1.74 1.3-.33 2.55.2 3.07 1.64.51 1.4 1.04 2.81 1.43 4.25.39 1.45 1.37 2.04 2.73 2.19 1.09.12 1.3.65 1.06 1.68-.34 1.42 2.07 4.58 4.07 4.91-.39-1.38-.78-2.56-1.03-3.76-.07-.33.26-1.07.45-1.09 1.75-.13 3.53.01 5.26-.22 3.83-.51 7.67-1.05 11.44-1.89 1.5-.33 2.34-.71 2.67 1.25.14.85.91 1.63 1.5 2.35.12.14.97-.02 1.13-.27.46-.73.81-1.55 1.09-2.37.88-2.63 1.77-3.33 4.4-3.33.78 0 1.58-.11 2.33.02 2.14.38 3.02-.86 3.47-2.61 1.5-5.82.96-11.45-1.42-16.99-1.47-3.43-4.25-5.67-6.96-7.82-2.44-1.93-5.35-3.82-8.31-4.39-2.7-.52-4.35-2.76-6.98-3.03-.28-.03-.82-1.25-.64-1.57 1.49-2.6 3.13-5.11 4.72-7.66.44-.7.88-1.4 1.3-2.11 2.38-4.04 2.88-2.85 6.54-2.69 4.17.19 7.71 2.38 11.6 3.46 1.03.29 2.12.37 3.13.72 1.17.4 2.49.76 3.37 1.55 2.34 2.08 4.94 4.18 3.4 7.99-.2.5-.03 1.15-.03 2.39 1.58-1.42 2.81-2.53 4.18-3.78.63.91 1.16 1.92 1.9 2.72 3.83 4.16 6.41 8.98 8.17 14.34 1.09 3.31 1 6.56.24 9.77-.9 3.79-2.25 7.48-3.41 11.22-.06.18-.21.38-.17.54.87 3.77-1.85 6.03-3.6 8.7-1.88 2.86-3.72 5.75-5.52 8.66-.24.39-.19.99-.22 1.49-.08 1.35-.85 2.22-2.09 2.37-.82.1-1.93-.06-2.5-.56-1.39-1.24-2.84-1.87-4.7-2.27-2.17-.46-4.15-1.8-6.23-2.73-.92-.41-1.86-.76-3.25-1.31.22 1.02.29 1.66.5 2.24.32.9.84 1.73 1.08 2.64.56 2.14-1.08 4.09-3.23 3.95-1.91-.13-3.84-.14-5.74-.41-3.14-.44-6.35-.74-9.34-1.68-1.84-.58-3.39-.86-5.22-.25-1.89.62-4.59-.98-5.63-2.61-.77-1.21-2.03-2.82-3.18-2.92-2.73-.22-5.52.33-8.28.66-.2.02-.47.84-.42 1.26.13 1.26 1.05 2.68-.67 3.5-1.68.8-3.17.7-4.24-1.17-.23-.4-1.07-.61-1.64-.62-2.4-.07-4.8.07-7.19-.07-1.51-.09-3.01-.54-4.56-.84z"/><path d="m73.69 136.8c-.2 1.57-.41 3.2-.61 4.84.23.06.47.11.7.17.57-1.67 1.33-3.3 1.65-5.02.45-2.41 1.51-3.63 3.84-4 3.07-.49 6.13-1.09 9.19-1.6 1.69-.28 3.39-.56 5.1-.7 3.84-.32 7.68-.79 11.52-.72 2.75.05 5.5.84 8.24 1.36 3.42.65 6.85 1.3 10.25 2.08 3.48.8 6.54 2.52 9.12 4.95 1.15 1.08 1.91 2.51 1.18 4.3-.32.79-.33 1.7-.48 2.57 2.98.28 4.21-.68 3.85-3.36-.23-1.71.92-2.3 1.67-3.32 1.09-1.48 2.15-.75 3.45-.37 2.24.66 4.57 1.02 6.88 1.42 6.39 1.1 12.35-.77 18.23-2.87 1.71-.61 3.75-.56 4.98-2.45 1.03-1.58 2.45-2.91 3.82-4.49.19.45.27 1.06.52 1.14 2.77.92 2.49 3.16 2.55 5.38.03 1.36.44 2.73.72 4.08.48 2.27 1 4.54 1.46 6.81.05.24-.15.62-.35.81-1.95 1.86-3.73 3.99-5.94 5.46-3.99 2.63-8.4 4.19-13.25 4.92-4.58.69-9.07.04-13.59.22-.9.04-1.83-.4-2.72-.7-2.09-.71-4.02-1.75-6.4-1.72-1.04.02-2.05-1.4-3.17-1.99-.58-.31-1.36-.28-2.05-.3-.86-.03-1.74-.05-2.57.12-.94.2-1.99.43-2.71 1-1.47 1.16-2.76 1.23-4.26 0-3.05-2.51-6.21-4.79-10.17-5.79-1.43-.36-2.47-.27-3.51.68-.23.21-.49.4-.76.58-2.22 1.51-2.11 1.39-.18 3.18 2.05 1.9 3.81 4.09 5.79 6.06.59.58 1.45.91 2.23 1.27 1.54.7 3.09 1.44 3.35 3.33.22 1.61-.73 2.62-1.94 3.62-2.31 1.89-4.65 3.76-6.02 6.61-.64 1.33-1.92 2.38-3.01 3.47-.79.79-.8 1.45.06 2.07 1.63 1.16 3.16 2.38 5.03 3.3 4.27 2.09 8.23 4.8 12.1 7.12-.25 4.39-3.48 4.71-6.1 5.39-4.77 1.24-9.67 1.96-14.43 3.23-1.94.52-3.72 1.81-5.45 2.93-1.31.84-3.87.11-4.75-1.7-1.83-3.77-3.72-7.52-5.31-11.39-1.45-3.53-4.1-5.69-7.26-7.48-.66-.37-1.28-.86-1.82-1.38-1.05-1.01-1.13-2.2-.07-3.2 1.58-1.5 3.29-2.84 4.9-4.3.65-.59 1.12-1.39 1.76-1.98 1.7-1.56 3.39-3.13 5.2-4.57.91-.73.98-1.2.11-1.95-1.86-1.61-3.75-3.2-5.5-4.92-1.68-1.65-.82-3.6 1.09-4.94 2.54-1.8 4.65-4.21 6.91-6.38.13-.12.02-.49.02-1.01-2.13.19-4.21.16-6.16.66-.91.23-1.85 1.36-2.26 2.3-.59 1.37-1.51 2.48-2.79 2.48-.91 0-1.77-1.22-2.74-1.74-.61-.33-1.44-.67-2.03-.51-1.94.55-3.83 1.3-5.72 2.04-.76.3-1.64.61-2.14 1.19-2.65 3.09-6.42 4.08-9.99 5.3-3.21 1.1-6.56 1.89-9.91 2.49-4.86.87-9.73.72-14.45-1-3.08-1.12-6.21-2.12-9.24-3.36-1.57-.64-3.06-1.57-4.43-2.58-1.24-.92-2.47-1.35-4.03-1.4-.71-.02-1.64-.89-2-1.61-.3-.6-.11-1.64.21-2.33.74-1.58 1.86-2.99 2.51-4.6 1.16-2.89 2.92-5.37 4.76-7.84.97-1.3 1.5-2.93 2.5-4.2.72-.93 1.9-2.11 2.84-2.08.88.02 2.16 1.34 2.5 2.35.83 2.4 2.48 3.53 4.67 4.49 4.51 1.98 9.29 2.68 14.08 2.98 2.95.19 5.95-.57 8.93-.89 2.42-.26 4.47-1.03 5.99-3.17.68-.96 2.04-1.18 3.25-.36.76.52 1.58.95 2.55 1.53z"/></svg>