<svg viewBox="0 0 218.46 218.46" xmlns="http://www.w3.org/2000/svg"><path d="m34.92 123.41c-1.28-.23-2.55-.63-3.83-.64-2.12-.02-4.24.18-6.36.36-2.73.22-4.84-1.26-4.91-4.14-.12-4.9-.08-9.83.32-14.72.29-3.62.64-3.38 4.37-4.15 4.02-.83 7.91-2.25 11.91-3.15 2.23-.5 4.57-.51 6.86-.66 1.1-.07 1.43.58 1.12 1.61-.15.48-.33.99-.33 1.48 0 .85-.15 2.21.27 2.43 1.02.55 2.37 1.19 3.49 0 1.14-1.22 2.31-2.42 3.31-3.75 2.21-2.95 5.73-3.71 8.32-1 3.39 3.55 7.17 2.48 10.89 1.61 2.14-.5 4.03-2 6.12-2.87 3.56-1.48 4.83-5.12 7.29-7.62.66-.67.34-2.4.29-3.63-.04-1-.43-1.98-.5-2.99-.12-1.53.56-3.4-2.33-3.53.17-.23.35-.47.52-.7.64.08 1.29.24 1.93.23.64 0 1.43.02 1.9-.32 1.62-1.17 3.09-2.56 4.7-3.75.92-.69 2.01-1.16 3.09-1.77-3.04-3.76-6.49-6.36-11.24-6.99-.86-.11-1.71-.76-2.45-1.31-1.16-.87-2.23-.93-3.24.12-.84.87-1.63 1.8-2.39 2.74-1.03 1.28-5.43 2.22-7 1.61-1.58-.62-3.22-1.12-4.86-1.54-3.73-.96-7.47-1.83-11.21-2.74-.06-.02-.15.01-.19-.02-5.79-4.68-13.22-2.87-19.7-4.92-1.91-.6-4.08-.36-5.8-.48.84-1.9 1.43-3.56 2.28-5.09.91-1.64 2.15-3.1 3.08-4.74 2.35-4.14 4.58-8.36 6.93-12.5 1.19-2.09 2.52-4.1 3.82-6.14.78-1.22 1.66-1.44 3.13-.8 7.95 3.49 15.99 6.77 23.92 10.29 1.73.77 3.06 2.4 4.77 3.24.89.44 2.38.35 3.3-.1 3.12-1.55 6.12-3.36 9.15-5.11.99-.57 1.73-.5 2.48.43 3.47 4.24 7.56 7.79 12.23 10.65.71.44 1.25.77.5 1.73-.71.91-.07 1.52.83 1.84.23.08.52.02.77.08 3.08.73 3.72 2.19 1.91 4.89-.98 1.45-1.73 2.57-.76 4.46.43.83-.27 2.32-.64 3.45-.64 1.95-.37 3.6 1.59 4.87 3.4 2.19 4.62 5.56 5.45 9.31 1.03 4.6-.27 8.85-1.48 13.13-.89 3.14-1.61 6.44-3.17 9.25-2.3 4.15-5.87 7.33-9.75 10.11-2.12 1.52-4 3.42-6.24 4.72-2.04 1.19-4.38 1.87-6.63 2.65-2.69.92-5.37 2.12-8.15 2.43-3.27.37-6.66.12-9.95-.23-2.94-.32-5.83-1.11-8.72-1.78-3.14-.72-6.29-1.47-9.38-2.36-1.22-.35-2.31-1.13-3.46-1.71-.78 1.34-.8 2.2.14 3.41.87 1.12.92 2.85 1.42 4.27.18.52.61.96.96 1.41.14.17.55.31.53.4-.46 2.33 1.53 3.5 2.41 5.19.2.39.34.81.55 1.33 2.25.07 4.17.56 5.06 3.28.29.88 2.14 1.45 3.38 1.79 2.44.67 4.95 1.16 7.45 1.56.84.14 1.76-.32 2.64-.3 1.92.06 3.84.24 5.76.39 6.54.5 12.69-1 18.61-3.65 1.93-.87 2.77-2.56 3.14-4.5.33-1.72 1.13-2.86 3.04-2.76 1.4.07 2.61 1.54 2.41 3.36-.47 4.27 1.89 7.68 3.08 11.47 1.13 3.6 1.68 7.38 2.34 11.11.11.59-.37 1.53-.88 1.95-4.07 3.4-8.57 6.05-13.57 7.91-2.35.88-4.41 2.62-6.79 3.31-3.15.91-6.49 1.17-9.74 1.69-1.01.16-2.02.3-3.03.39-4.15.35-8.17-.45-12.06-1.74-1.67-.55-2.99-2.09-4.6-2.91-2.28-1.17-4.75-1.96-7.02-3.14-4.32-2.25-9.1-4.04-12.66-7.19-3.61-3.18-7.63-6.76-7.83-12.43-.02-.6-.71-1.27-1.23-1.75-1.16-1.05-1.8-3.18-.92-4.45 1.12-1.6 2.46-3.06 3.81-4.48 1.87-1.98 3.83-3.87 5.75-5.8-.11-.3-.22-.61-.33-.91z"/><path d="m157.82 198.83c-1.23-.99-2.47-2-3.72-3-1.04-.83-2.19-1.55-3.14-2.46-1.13-1.08-2.66-2.15-3.04-3.5-.94-3.32-3.24-5.69-5.1-8.35-1.28-1.83-2.31-3.65-3.14-5.76-2.6-6.64-2.86-13.49-2.45-20.4.44-7.32 2.92-13.98 7.26-19.94.81-1.12 1.32-2.46 2.26-4.27-2.8.51-4.48-.15-6-1.71-1.31-1.35-1.65-2.58-.55-4.09 1.2-1.64 2.34-3.33 3.43-5.04.21-.33.1-.86.17-1.6-2.76.22-5.41.2-7.97.71-1.65.33-2.7 0-3.69-1.2-.35-.42-.83-.72-1.19-1.03 3.56-7.48 7.05-14.82 10.75-22.59-3.49.29-6.64.55-10.05.83.79-2.11-.09-4.41 2.46-6.2 2.33-1.63 3.86-4.4 5.75-6.67-.13-.22-.27-.44-.4-.66-3.34 0-6.68-.14-10.01.05-2.03.12-3.88-1.25-3.59-3.3.31-2.2.88-4.35 1.23-6.55.44-2.76.97-5.52 1.1-8.3.21-4.39 1.29-8.53 2.94-12.54.94-2.27 2.03-4.34 1.54-7.07-.25-1.39 1.13-3.08 1.56-4.11 1.2-.15 2-.03 2.55-.35 6.04-3.49 12.05-7.04 18.05-10.61.7-.42 1.36-.97 1.91-1.57 1.59-1.74 3.29-3.22 6.24-2.88.15.45.64 1.22.59 1.95-.29 4.62 1.37 8.9 2.11 13.33.9 5.4 2.13 10.88.27 16.37-.99 2.93-1.88 5.9-2.89 8.83-.44 1.29-.2 1.78 1.24 2.07 3 .61 5.95 1.5 9.58 2.45-2.2 2.59-3.89 4.79-5.81 6.75-1.2 1.23-1.53 2.02-.62 3.74 1.71 3.22 2.89 6.71 4.33 10.07.6 1.4 1.3 2.76 1.94 4.14.72 1.55.77 3.1-.83 4.07-3.56 2.17-5.14 5.9-7.08 9.21-2.83 4.85-6.72 8.64-10.67 12.44-1.04 1-2.21 1.87-3.1 3.15 2.47-.38 5.22.27 6.82-2.52 1.58 1.79 2.16 3.71 1.7 6.07-.17.86.03 2.03.55 2.68.27.34 1.65 0 2.42-.31 2.84-1.15 5.63-2.44 8.46-3.63.19-.08.54.2.52.2-.27 1.22-.43 2.28-.76 3.29-.5 1.54-.83 3.25-1.75 4.52-3.48 4.8-5.57 10.09-5.96 15.97-.24 3.49-.65 7.15.13 10.48 1.14 4.89 3.32 9.54 4.97 14.32.81 2.36 2.85 3.36 4.82 3.89 1.54.42 1.32 1.47 1.52 2.26.14.54-.44 1.62-.98 1.9-4.64 2.42-8.16 6.16-11.68 9.86-1.77 1.87-3.14 4.12-5.02 6.62z"/></svg>