<svg viewBox="0 0 218.46 218.46" xmlns="http://www.w3.org/2000/svg"><path d="m173.26 96.31c-.23.03-.78.12-1.34.18-1.01.11-2.02.27-3.03.27-.74 0-1.51-.12-2.22-.34-3.78-1.19-7.28-3.44-11.53-2.7-1.67.29-3.37.38-5.25.58 1.57.22 3 .25 4.31.65 1.9.59 2.47 2.63 1.41 4.3-.65 1.02-1.37 2.01-1.86 3.1-.31.69-.21 1.55-.38 2.32-.2.88-.38 1.79-.76 2.61-1.06 2.3-2.22 4.54-3.31 6.82-.1.21-.01.51-.01 1.01 3.59 0 7.13-.02 10.66 0 1.53.01 3.05.31 3.51 2.01.21.77.12 1.89-.32 2.51-2.86 3.98-5.84 7.86-8.81 11.76-.37.48-.84 1.05-1.37 1.22-2.16.7-3.11 2.54-4.24 4.24-1.35 2.03-3.32 2.76-5.41 1.61-5.11-2.82-10.63-4.61-16.01-6.77-2.08-.83-3.5-.67-5.13.93-4.35 4.28-9.65 6.74-15.73 7.36-7.7.78-15.35.67-22.98-.96-2.66-.57-5.16-1.15-7.32-2.9-1.12-.9-1.98-.49-2.3.98-.23 1.05-.45 2.13-.89 3.1-.66 1.44-.93 2.51.63 3.73 1.31 1.04.82 2.81-.61 3.88-1.07.81-2.11 1.67-3.08 2.59-1.27 1.19-2.46 2.45-.35 3.98.15.11.12.45.3 1.18 3.52-1.48 6.89-2.86 10.23-4.31 3.2-1.4 6.37-2.86 9.53-4.33 1.26-.59 2.15-.2 3.32.52 1.5.92 3.37 1.26 5.07 1.86.48.17 1.05.24 1.41.55 2.28 1.98 4.36 1.18 6.83.11 3.63-1.57 7.53-2.52 11.3-3.77.46-.15.84-.57 1.31-.71.77-.23 1.59-.28 2.36-.48.47-.12.92-.34 1.34-.59 2.22-1.29 3.16-1.16 5.32.33 1.29.89 2.8 1.47 4.17 2.26 1.97 1.14 4.02 2.2 5.82 3.57 1.61 1.23 1.05 3.63-.88 4.53-4.47 2.07-8.96 4.1-13.42 6.18-.74.34-1.53.75-2.04 1.35-1.72 2.04-3.5 2.63-5.14.84-2.22-2.42-4.71-2.42-7.34-1.64-2.47.73-4.87 1.76-7.18 2.91-1.69.84-1.61 1.02-1.27 2.9-2.55.32-4.68-.8-6.67-2.03-3.29-2.04-6.38-4.4-9.69-6.41-3.19-1.95-6.48-1.85-9.85-.08-2.35 1.23-4.95 1.99-7.32 3.19-1.17.59-2.32 1.56-3.04 2.65-.68 1.04-1 2.28.05 3.68 2.72 3.62 5.2 7.35 9.63 9.24 1.4.6 2.45 2.03 3.64 3.1 1.62 1.44 2.67 1.47 3.84-.32 1.26-1.94 2.22-4.07 3.36-6.22 1.83.75 4.14 1.43 6.18 2.6 2.57 1.48 5.35 1.23 8.02 1.36 4.04.2 8.11-.18 12.17-.3.48-.01.96 0 1.46.32-.52.04-1.04.09-1.55.13.03.19.07.38.1.56 1.42-.33 2.88-.57 4.26-1.02 3-.98 6.02-1.95 8.93-3.17 2.65-1.11 3.08-2.36 2.25-5.64 1.05-.13 2.24-.64 3-.27.84.41 1.44 1.56 1.84 2.51.41.97.44 2.09 1.06 3.25.63-1.75 1.24-3.51 1.9-5.25 1.15-3.05 2.33-5.71 6.16-6.71 7.25-1.91 14.55-2.78 22.01-2.6 1.82.04 3.67-.17 5.46.05 1.85.22 3.17 1.84 3.27 3.62.02.39-.15.89-.41 1.19-.83.96-2 1.71-2.57 2.79-2.34 4.44-4.58 8.93-6.69 13.48-.97 2.09-1.55 4.36-2.55 6.67-.59-1.52-1.36-1.43-2.56-1-4.87 1.77-9.78 3.45-14.71 5.03-2.36.76-4.7-1.76-4.1-4.22.52-2.12-.04-3.26-1.88-3.84-1.62 4.89-5.87 6.94-10.07 8.65-5.5 2.24-11.18 4.1-16.9 5.69-2.79.77-5.86.72-8.81.74-4.06.03-8.12-.19-12.17-.37-4.32-.19-7.62-2.66-10.78-5.22-.43-.35-.05-1.77.07-2.69.08-.66.35-1.29.51-1.86-3.43-1.49-6.39-.11-9.4.82-2.59.8-5.24 1.44-7.78 2.37-1.46.53-2.73 1.56-4.15 2.24-.58.28-1.57.55-1.95.26-1.62-1.23-3.07-1.47-4.55.53-.09-.21-.19-.41-.28-.62.88-1.01 1.76-2.02 2.33-2.68-2.58-2.01-4.92-3.7-7.09-5.58-1.24-1.08-2.31-2.08-4.16-2-1.47.06-2.71-.73-3.07-2.35-.36-1.63.57-2.36 1.92-3.07 3.95-2.1 8.11-3.85 11.38-7.12 1.09-1.09 2.88-1.47 4.33-2.23.43-.23.78-.61 1.16-.93-.06-.17-.11-.35-.17-.52-2.82-.27-5.65-.63-8.48-.8-2.49-.15-3.66-1.93-2.32-4.02 1.94-3.03 4.06-5.96 6.05-8.96.46-.69.72-1.52 1.3-2.78-2.43.39-4.3.65-6.16.99-2.56.46-3.33.04-3.55-2.61-.2-2.48-1.59-4.25-3.03-6.01-2.23-2.74-4.43-5.43-4.47-9.25 0-.41-.79-1.02-1.31-1.16-.76-.2-1.61-.05-2.45-.05 7.09-6.08 14.05-12.03 21.32-18.26 1.52.9 3.36 2.09 5.3 3.11 4.2 2.2 8.42 4.37 12.7 6.4 1.23.58 2.69.79 4.06.9.52.04 1.39-.57 1.61-1.09.9-2.14 1.67-4.35 2.39-6.56.62-1.9 2.69-2.82 4.63-2.89 2.95-.1 4.71 2.24 7.28 2.89 3.03.77 5.88 2.25 8.85 3.31 3.1 1.1 6.19.58 9.18-.48 1.61-.57 3.22-1.25 4.65-2.16 1.4-.9 2.77-2.01 3.79-3.31 1.04-1.33 1.98-1.8 3.7-1.51 2.09.34 4.19.48 6.38-.48 1.33-.58 3.19-.09 4.79.11 1.93.25 3.82.71 6.21 1.17-.68-1.49-1.01-2.6-1.63-3.52-2.04-3.07-4.25-6.03-6.24-9.13-.81-1.26-1.26-2.76-1.81-4.17-.79-2.03-1.54-4.08-2.24-5.97 0-.88.07-1.69-.01-2.49-.18-1.64-.09-3.07 1.16-4.45 1.3-1.43 2.22-3.19 3.3-4.81-.09-.22-.17-.44-.26-.67-.88 0-1.78-.09-2.65.03-.86.12-1.69.46-2.62.43 3.3-1.43 2.86-4.91 3.99-7.33 1.57-3.35 2.51-7.03 3.35-10.66.33-1.42-.14-3.13-.59-4.6-1.99-6.53-4.1-13.03-6.16-19.54-.49-1.55-.92-3.11-1.22-4.93 1.21 2.11 1.93.67 2.97.04 4.08-2.44 8.12-5 12.42-6.99 4.11-1.91 8.52-3.17 12.8-4.72.73 2.19 2.45 1.99 4.07 1.79 3.88 4.94 5.3 10.75 6.35 16.72.25 1.41.97 2.73 1.39 4.12.36 1.2.57 2.45.93 3.66.18.6.54 1.14.82 1.71.23.06.47.13.7.19-1.29 1.8-2.62 3.57-3.87 5.41-2.24 3.31-4.46 6.63-6.62 9.99-1.54 2.39-3.01 4.83-4.41 7.31-.43.76-.51 1.71-.84 2.87 5.33-1.25 9.83-3.23 14.14-5.7 1.37-.79 2.78-1.52 4.18-2.27 1.3-.7 2.62-.53 3.47.57.8 1.03.58 2.14.02 3.52-.83 2.03-.84 4.4-1.27 7.07 1.27-.3 2.08-.38 2.79-.69 1.51-.66 2.85-.41 3.8.82.94 1.22.36 2.27-.51 3.5-1.06 1.51-1.55 3.41-2.29 5.15-.91 2.14-1.92 4.24-2.67 6.43-.27.81.09 1.84.19 3.08zm-18.59-3.13c-7.27-2.33-14.69-3.31-22.5-1.99 7.41 2.68 14.95 2.23 22.5 1.99zm-36.52 41.5c-.08-.16-.17-.32-.25-.47-2.41 1.08-4.82 2.16-7.22 3.24.06.14.12.28.18.42 2.43-1.06 4.86-2.13 7.29-3.19z"/><path d="m20.26 52.61c.21-.77.5-1.53.61-2.31.05-.35-.27-1.07-.46-1.08-1.61-.13-1.2-1.11-.69-1.81 3.48-4.85 6.04-10.33 10.69-14.41 2.8-2.45 4.89-5.71 7.21-8.67.34-.43.22-1.22.39-2.4 1.56.69 3.27 1.24 4.76 2.15 3.42 2.08 6.64 4.49 10.12 6.44 2.24 1.26 4.79 2 7.23 2.89.4.14.99-.08 1.44-.27 2.04-.89 4.11-1.74 6.06-2.8 1.12-.61 2.14-1.51 3.03-2.44 1.12-1.18 2.24-1.54 3.65-.6 2.81 1.85 5.63 3.68 8.42 5.57.96.65 1.8.71 2.79.07 1.16-.74 2.35-1.53 3.63-2 1.84-.68 3.32.22 4.18 2 .9 1.88 1.55 3.79 3.43 5.26 1.42 1.12 1.93 3.46 2.72 5.32 1.24 2.94 1.86 3.19 4.59 1.97 1.47-.66 3.05-1.13 4.61-1.56 2.24-.61 3.67.66 3.27 2.94-.66 3.74-1.48 7.46-2.13 11.21-.22 1.26.09 2.64-.23 3.86-.92 3.64-1.98 7.25-3.12 10.83-.2.64-1.02 1.24-1.7 1.54-4.78 2.11-9.61 4.11-14.39 6.23-.8.36-1.42 1.14-2.12 1.72.65.72 1.17 1.69 1.98 2.1 1.51.76 1.8 1.05.2 2.22-1.15.84-1.72 2.47-2.6 3.7-.32.45-.75.98-1.24 1.13-1.28.38-1.88 1.12-2.18 2.42-.14.61-.99 1.05-1.49 1.6-.98 1.07-1.93 2.17-2.95 3.32-1.62-2.15-3.87-1.14-5.8-.6-4.38 1.24-8.68 2.77-12.98 4.28-2.8.99-5.37 2.78-8.56 2.24-.16-.03-.43.05-.52.18-1.82 2.48-3.84.92-6.17.33 1.51-2.6 2.78-5.15 4.4-7.45 1.33-1.89 2.31-4.16 4.49-5.36 1.09-.6 2.19-1.54 3.34-1.61 1.69-.11 2.49-.98 3.29-2.21 2.74-4.18 5.53-8.34 8.51-12.82.22.93.38 1.61.55 2.36.12.03.3.08.48.14 3.43 1.14 3.9.76 4.42-2.86.65-4.46 1.46-8.9 2.24-13.35.27-1.55-.65-4.6-1.9-5.32-.41-.24-1.36-.14-1.7.19-1.78 1.73-3.45 3.57-5.34 5.58-.72-.83-1.9-1.91-2.74-3.22-1.07-1.67-2.11-1.99-3.91-1.02-5.54 2.96-11.52 5.15-16.12 9.68-5.06-5.64-11.98-7.94-18-11.63-1.57-.96-3.24-1.75-4.87-2.6-.71-.37-1.44-.67-2.16-1.01-.21-.01-.43-.02-.64-.03z"/></svg>