<svg viewBox="0 0 218.46 218.46" xmlns="http://www.w3.org/2000/svg"><path d="m98.31 73.3c.78-.52 1.59-1 2.33-1.57 2.43-1.83 4.75-.91 5.69 1.96.51 1.57 1.6 2.99 2.59 4.36 1.14 1.57 2.48 2.99 3.68 4.52.42.54.76 1.16 1.03 1.79.41.95-.1 2.38 1.45 2.73-.21.33-.36.72-.64.99-2.95 2.81-5.92 5.59-8.86 8.4-.13.12-.02.49-.02.92.86 0 1.72.17 2.5-.03 2.58-.66 4.09 1.35 6.03 2.28.15.07.37.37.33.44-1.04 1.82 1.05 3.36.17 5.49-1.68 4.07-2.65 8.44-3.76 12.73-.58 2.24-.85 4.57-1.25 6.82-4.12-1.12-8.08-2.19-12.42-3.36.56.64.79 1.14 1.16 1.27 1.9.7 2.52 2.17 3.05 3.99.23.79 1.59 1.37 2.54 1.81 1.6.75 3.38 1.16 4.89 2.04.79.46 1.6 1.61 1.62 2.48.02.73-.96 1.97-1.69 2.14-1.83.43-2.42 1.83-3.23 3.13-1.46 2.36-2.83 4.77-4.35 7.09-.38.59-1.18.91-1.94 1.46.25.52.53 1.11.77 1.62-1.61.37-3.15.72-4.8 1.09.07-1.53-1.28-2.27-2.77-2.8-2.83-.99-5.67-1.92-8.51-2.87l-.51.78c.38.33.81.97 1.14.93 1.81-.22 2.97.8 3.37 2.22.42 1.5-.46 2.7-2.14 3.05-.98.2-1.95.54-2.94.62-3.9.31-7.8.67-11.7.74-1.65.03-3.3-.64-4.97-.91-.42-.07-1.24.09-1.29.3-.55 2.14-.99 4.32-1.46 6.51-3.44.68-6.53-1.22-9.75-2.73-.84-.39-1.81-.49-2.69-.79-.57-.19-1.12-.48-1.65-.78-2.19-1.24-4.29-2.72-6.59-3.71-2.24-.96-2.38-.85-1.37-2.96.11-.23.22-.45.32-.68.02-.04-.04-.11-.15-.34-.61.69-1.15 1.74-2.15.42-.24-.32-1.23-.09-1.88-.1-4.55-.02-9.12.27-13.55-1.13-3.49-1.11-4.24-2.28-3.58-5.79.87-4.61 1.91-9.19 2.62-13.83.35-2.25.11-4.6.13-6.9 0-.52-.07-1.04-.05-1.55.09-2.35-.17-2.56-2.63-2.71-1.85-.11-3.69-.42-5.54-.65.18-.17.35-.34.53-.5-.13-.67-.34-1.34-.36-2.01-.05-1.27-.12-2.56.05-3.81.17-1.24.55-2.47.98-3.66.24-.66.66-1.36 1.2-1.78 1.32-1.04 1.73-2.14.85-3.67-.3-.53-.62-1.26-.48-1.78.57-2.05 1.24-4.07 2.01-6.05.67-1.72 2.05-2.19 3.73-1.55.99.37 1.32.07 1.62-.9.94-3.09 2.08-6.11 2.95-9.21.36-1.29.21-2.73.31-4.1.03-.47-.02-1.04.21-1.4 1.1-1.69 2.29-3.33 3.5-5.07.78 1.46 1.89 1 3.14.29 3.59-2.04 7.22-4.01 10.83-6.01.34-.19.66-.45 1.02-.52 5.28-.97 6.49-4.99 7.69-9.45.97-3.59 2.13-7.28 4.28-10.12 2.12.3 3.91.52 5.69.82 3.07.52 6.12 1.11 9.19 1.63 1.07.18 2.18.12 3.23.34 1.53.33 3.14.59 4.51 1.3 1.16.6 2.02 2.13 3.1-.15.07.21.25.46.19.63-2.12 6.15-4.27 12.29-6.41 18.44-.41 1.18.27 2.73-1.26 3.58-.12.07.34 1.21.59 2.02-1.02 1.23-2.69 2.4-1.9 4.67.1.29-.75.9-1.54 1.8v-2.31c-5.82-1.57-11.67-3.14-17.99-4.84.39 2.88.69 5.56 1.12 8.21.38 2.31.92 4.6 1.35 6.91.08.44-.03.91 0 1.36.06.97.16 1.93.24 2.9.21.19.41.38.62.57-5.34.62-10.69 1.25-16.24 1.9 1.68 1.05 3.15 1.96 2.89 4.25-3.03.08-3.23 2.1-3.67 4.58-.75 4.22-2.22 8.32-3.37 12.47-.3 1.09-.53 2.19-.85 3.51 1.62.32 3.15.35 4.43.93 1.87.84 3.75 1.86 5.27 3.2.94.83.94 2.09.04 3.64-1.31 2.23-1.84 4.96-2.49 7.53-.49 1.94-.64 3.97-1 6.33 3.52-.39 6.7-.57 9.82-1.12 3.8-.67 7.55-1.66 11.32-2.47.98-.21 1.55.13 1.62 1.31.1 1.7.19 3.29-.73 4.9-.52.91-.41 2.19-.59 3.3.16.12.32.25.47.37 3.17-2.25 6.31-4.55 9.53-6.73.62-.42 1.58-.65 2.31-.54 2.31.35 3.41-1.28 4.65-2.64 1.86-2.03 3.63-4.14 5.47-6.19 1.51-1.69 3.35-3.13 3.97-5.49.14-.52.54-1.12.99-1.37 2.38-1.31 2.85-3.13 2.37-5.76-.36-1.96.23-4.08.25-6.13.01-1.4-.35-2.8-.32-4.2.06-2.38.28-4.76.46-7.13.12-1.62.06-3.14-1.15-3.72-.29-1.47-.27-2.66-.76-3.56-1.47-2.72-3.04-5.41-4.78-7.97-1.18-1.74-.9-3.29 0-4.86-.18-.17-.29-.33-.35-.32-3.02.7-4.99-1.32-7.2-2.73-.77-.49-1.61-.89-2.17-1.19 1.47-1.95 3.01-3.91 4.45-5.93.35-.49.27-1.27.6-1.77.35-.52.94-1.19 1.47-1.23 2.88-.25 5.78-.3 8.67-.46 1.34-.07 2.67-.3 4-.36 1-.05 1.73.23 1.03 1.47-.56 1-1.18 1.99-1.58 3.05-.39 1.05-.55 2.19-.8 3.29.21.11.41.22.62.33z"/><path d="m136.2 80.91c-3.69.16-7.16.3-10.63.49-1.14.06-3.06-1.58-2.93-2.89.2-1.94.71-3.85 1.03-5.79.45-2.69 1.08-5.38 1.21-8.1.25-5.34 1.34-10.42 3.45-15.34.55-1.28.38-2.88.47-4.34.06-1.03.1-2.08 0-3.11-.22-2.11.53-2.91 2.92-3.49 3.03-.73 5.87-1.67 8.26-3.87 1.05-.97 2.78-1.15 4.07-1.91 3.82-2.27 7.98-3.97 11.13-7.35.92-.99 2.66-1.24 4.33-1.95.32 1.01.79 1.76.77 2.51-.08 4.39 1.23 8.54 2.03 12.79 1.07 5.72 2.28 11.51.34 17.32-1 2.99-1.99 5.99-2.97 8.99-.12.35-.1.75-.15 1.11 3.53.97 7.01 1.93 11.05 3.03-2.22 2.68-4.07 5-6.03 7.21-.84.95-1.3 1.48-.44 2.87 1.38 2.24 2.26 4.79 3.29 7.24 1.08 2.57 1.94 5.24 3.16 7.73.87 1.78.06 2.64-1.14 3.66-.99.84-1.96 1.78-2.69 2.85-2.91 4.24-5.51 8.71-8.66 12.77-1.94 2.51-4.67 4.41-7.02 6.6-.77.72-1.5 1.49-2.51 2.5 3.66.43 6.46-.64 6.86-2.4 2.05 1.67 2.52 3.68 1.9 6.19-.23.91.24 1.98.42 3.25 3.99-1.64 7.82-3.2 11.63-4.76-.36 1.58-.55 2.69-.89 3.76-.43 1.36-.64 2.98-1.52 3.96-3.02 3.36-4.31 7.55-5.35 11.65-1.94 7.66-1.53 15.32 2.06 22.61.75 1.52 1.31 3.18 1.64 4.84.66 3.32 2.64 5.13 5.8 6.05.59.17 1.04 1.46 1.18 2.3.09.53-.38 1.5-.85 1.72-4.6 2.14-7.87 5.91-11.4 9.3-1.65 1.58-2.71 3.77-4.02 5.7-.65.95-1.35 1.62-2.51.69-.74-.6-1.49-1.2-2.22-1.82-.93-.78-1.73-1.83-2.79-2.33-2.53-1.19-3.48-3.37-4.56-5.73-1.12-2.43-2.81-4.63-4.45-6.79-1.4-1.84-2.82-3.53-3.03-6.01-.12-1.34-.97-2.6-1.31-3.94-.51-2.02-1.13-4.07-1.23-6.13-.33-7.12-.19-14.27 2.41-21.02 1.44-3.72 3.18-7.39 5.95-10.43 1.02-1.12 2.02-2.26 2.87-3.5.18-.26-.21-1.34-.51-1.42-1.89-.51-3.83-.85-5.75-1.23-.86-.17-1.73-.32-2.96-.54 2.53-2.85 5.17-5.37 6.25-9.31-1.72.22-3.16.36-4.59.62-1.62.29-3.24.61-4.81 1.08-2.2.66-3.44-.68-4.55-2.12-.26-.34-.02-1.23.21-1.76 1.78-4.05 3.54-8.13 5.48-12.11 1.37-2.82 3.03-5.51 4.55-8.26.2-.36.35-.75.61-1.31-2.33-.15-4.41-.49-6.26.99-.36.29-.95.42-1.43.42-1.03 0-2.06-.14-3.09-.23.17-1.11.26-2.4.59-3.64.17-.64.67-1.23 1.13-1.74 2.02-2.22 4.09-4.39 6.09-6.63.2-.22.06-.74.09-1.52z"/></svg>