<svg viewBox="0 0 218.46 218.46" xmlns="http://www.w3.org/2000/svg"><path d="m84.83 105.23c-1.6-.55-2.67.07-3.18 1.78-.64 2.1-1.08 4.32-2.04 6.26-.66 1.33-2.02 2.35-3.18 3.38-.73.65-1.51.74-2.67.37-3.36-1.05-6.41-3.28-10.16-2.95-1.12.1-2.23.32-3.11.45-.75-.31-1.4-.85-2.01-.8-3.82.29-7.62.8-11.44 1.07-4.45.31-8.28 2.34-12.14 4.24-3.11 1.53-6.07 3.38-9.04 5.17-.56.34-.9 1.05-1.45 1.71-.22-.04-.57-.17-.92-.17-4.18.08-4.71-2.25-3.46-5.38 1.96-4.91 4.45-9.61 6.5-14.48.53-1.26 1.48-2.52.86-4.31-.24-.69 1.16-2.46 2.19-2.98 3.55-1.77 7.27-3.19 10.91-4.79 1.86-.82 3.63-1.9 5.54-2.53 1.96-.65 4.06-1.23 6.1-1.24 3.51-.02 7.03.72 10.53.61 4.72-.15 9.2.64 13.51 2.43 2.27.94 4.43 2.14 6.61 3.29 3.11 1.65 3.8 1.5 5.21-1.66 1.39-3.12 2.72-6.28 3.96-9.47.21-.53-.16-1.29-.22-1.69 2.38-2.14 4.81-4.33 7.5-6.75-2.83-1.3-5.29-.74-7.68-.78-1.4-.02-2.81.36-4.2.31-3.94-.13-6.23 2.11-8.03 5.22-.34.59-.76 1.17-1.25 1.64-1 .97-2.02 1.92-3.13 2.76-.65.49-1.72 1.24-2.19 1.01-1.05-.51-2.25-1.39-2.66-2.41-1.1-2.75-.93-2.64-3.81-2.43-2.03.15-4.09-.31-6.14-.36-5.81-.15-11.62-.25-17.43-.3-.36 0-.74.54-1.08.86-1.09 1.05-1.94 1.76-3.8.86-1.99-.95-4.43-.96-6.67-1.37-.81-.15-1.63-.3-2.45-.36-1.64-.13-3.14.14-4.18 1.63-.46.66-1 1.26-1.86 2.34.12-.75.09-.97.19-1.09 2.45-3.27 1.21-7.62 3.17-11 2.23-3.84 4.5-7.66 6.92-11.38.74-1.15.36-1.77-.5-2.15-1.08-.48-2.32-.57-3.45-.94-1.11-.35-2.32-.65-3.23-1.32-.9-.66-1.19-1.88-.36-2.85 3.01-3.56 5.94-7.19 9.19-10.52 1.72-1.76 2.04-2.48.19-3.95-1.45-1.16-2.83-2.4-4.33-3.48-.74-.54-1.64-.88-2.51-1.18-1.47-.51-4.2-4.93-3.81-6.33.06-.22.3-.43.51-.55 1.73-1.01 3.62-1.8 5.18-3.02 4.78-3.72 10.28-6.02 15.77-8.36 2.13-.91 4.22-1.89 6.34-2.83.32-.14.67-.21 1.2-.37-.55 1.65.2 2.25 1.25 3.32 3.12 3.15 6.81 5.25 10.66 7.25 1.29.67 1.5 1.9 1.35 3.46-.21 2.18-1.04 3.68-2.87 4.79-.47.29-.73.93-1.16 1.51 2.51.26 4.75.48 7.44.76-.62.97-.9 1.42-1.25 1.98.71.05 1.37.1 1.8.13-3.95 5.67-7.87 11.23-11.69 16.86-.29.42-.11 1.52.26 1.97 1.44 1.76 3.14 3.31 4.55 5.09.76.96 1.38 1.09 2.13.27 2.03-2.2 3.89-4.58 6.05-6.65 1.13-1.08 2.75-1.65 4.61-2.72-.45 1.06-.67 1.58-.94 2.2 5.53 1.28 10.93 2.54 16.34 3.77 2.27.52 4.54 1.24 6.85 1.39 1.34.09 2.79-.64 4.11-1.2 5.9-2.49 11.76-5.08 17.66-7.58 1.49-.63 3.07-1.08 4.85-1.69v12.48c3.04.39 5.68-.56 8.34-1.34 2.77-.8 5.1-2.39 7.55-3.87 3.68-2.23 7.66-3.96 11.48-5.96 3.9-2.04 7.84-4.04 10.73-7.51 1.35-1.62 3.02-1.67 4.83-1.24.51 3.06-1.14 5.21-2.47 7.62-1.09 1.98-1.33 4.45-1.87 6.72-1.17 4.87-.61 10.07-2.73 14.76-.37.83-.84 1.61-1.19 2.27.63-3.82 1.28-7.73 1.92-11.64-.11-.01-.23-.03-.34-.04-1.67 5.32-3.34 10.63-5.05 16.09.56.09 1.1.18 1.91.32-.41.52-.68 1.22-1.11 1.34-3.5.99-7.06 1.79-10.56 2.82-6.42 1.9-12.82 3.89-19.21 5.89-1.3.41-2.53 1.08-3.84 1.44-1.17.32-1.88-.39-2.37-1.46-.87-1.88-1.77-3.6-4.5-3.14-.65.11-2.23-1.32-2.22-2.03.02-2.4-.76-3.2-3.16-4.05-3.57-1.28-7.08-1.61-10.74-1.77 0 2.11 2.89 4.24 5.79 4.36.8 2.79 2.94 4.36 5.29 5.8 1.97 1.21 3.85 2.58 5.7 3.97.64.48 1.13 1.22 1.54 1.93.55.95.96 1.99 1.55 3.23-.68.59-2.08 1.39-2.93 2.59-2.09 2.96-5.18 4.86-7.56 7.51-.9 1.01-2.68 1.24-2.53 3.07 5.11 1.33 10.06.24 15.02-.7 5.42-1.03 10.88-1.9 16.29-3 3.9-.79 7.92-1.43 11.6-2.88 8.11-3.2 16.04-6.84 24.03-10.35 2.14-.94 4.25-1.95 6.32-3.04 1.19-.63 2.03-.28 2.9.53.89.82.88 1.61.48 2.75-1.17 3.32-2.25 6.67-3.15 10.07-.88 3.3-1.5 6.67-2.21 10.01-.22 1.05-.34 2.13-.57 3.18-.48 2.11-1.81 2.82-3.99 2.65-2.73-.21-5.43-.06-7.94 1.44-2.65 1.58-5.62 2.31-8.73 2.4-3.29.1-6.7-.22-9.85.51-4.7 1.09-9.37.43-14.04.6-1.95.07-3.91-.43-5.87-.66-.32-.04-.67-.14-.96-.05-4.42 1.36-8.28-1.6-12.52-1.65-.46 0-.99-.35-1.35-.69-1.65-1.54-3.18-3.3-5.84-2.38-.19.06-.55-.27-.78-.48-1.62-1.46-3.19-2.99-4.86-4.39-1.43-1.2-2.93-2.36-4.53-3.33-.44-.27-1.57 0-1.99.41-1.87 1.85-3.69 3.78-5.35 5.82-.88 1.08-1.65 2.29-3.17 1.58-1.43-.67-1.72-1.93-1.38-3.56.32-1.53.93-3.07 0-4.8-.52-.98-.09-2.47-.09-3.91zm-17.31-29.26c-1.33-3.13-2.56-6.03-3.74-8.81-3.09.94-3.54 3.66-4.83 6 2.93.96 5.66 1.85 8.57 2.81z"/><path d="m150.79 191.45c-.55.23-1.28.32-1.61.73-.5.62-.76 1.45-1.05 2.22-.82 2.19-2.02 2.88-4.33 2.49-2.08-.35-3.75.36-5.44 1.66-1.63 1.26-3.45 2.76-5.84 1.8-.55-.22-1.25-.62-1.44-1.1-.64-1.69-1.71-1.41-2.88-.8-1.47.76-2.9 1.9-4.47.24-1.47-1.54-.84-3.15-.15-4.79.4-.96.65-1.99 1.09-3.38-3.55.74-6.76.83-9.54 2.85-.78.56-2.48.68-3.25.2-.75-.48-1.3-2.08-1.11-3.02.31-1.53 1.27-2.94 1.99-4.39.33-.66.74-1.29 1.11-1.93-.1-.19-.21-.38-.31-.58-2.93.93-6.02 1.53-8.76 2.86-6.22 3.04-12.36 6.28-18.36 9.74-3.42 1.98-4.21 2.53-8.53 2.38 1.28-1.73.84-3.76 2.63-5.47 2.71-2.58 4.69-5.93 6.95-8.99.28-.37.3-.93.54-1.72-2.47.49-4.66-.31-6.93.98-4.92 2.8-10.02 5.3-15.11 7.8-2.61 1.28-5.38 2.26-8.02 3.47-.77.35-1.37 1.06-1.82 2-.74-.07-1.59-.42-2.19-.16-1.92.82-3.01-.27-3.8-1.61-1.19-2.01-2.08-4.2-3.2-6.25-.75-1.37-1.57-2.75-2.58-3.93-2.42-2.83-5.04-5.49-7.43-8.34-.58-.7-1.09-2.16-.74-2.76.52-.92 1.76-1.52 2.8-2.03 1.41-.69 2.93-1.17 4.4-1.72 6.21-2.33 12.47-4.55 18.62-7.03 3.99-1.61 7.93-3.43 11.71-5.5 2-1.1 3.97 0 4.32 1.8.38 1.92 1.5 1.69 2.84 1.31 5.86-1.64 11.71-3.27 17.58-4.86 2.98-.81 5.99-1.53 8.99-2.28 3.42-.86 6.84-1.74 10.28-2.52 1.42-.32 2.91-.6 4.35-.54 1.87.07 3.06-1.11 4.45-1.94 1.18-.7.54-1.24-.26-1.58-1.05-.44-2.13-.94-3.23-1.03-.78-.07-1.61.48-2.6.81-.54-1.38-1.91-1.33-3.4-1.42-3.57-.22-6.98.61-10.45 1.19-2.7.46-5.46.55-8.2.79-3.05.26-6.13.34-8.53 2.72-.26.26-1.07.21-1.5.02-1.76-.73-3.43-1.71-5.23-2.3-.91-.3-2.24-.31-3 .16-3.39 2.12-6.57 4.58-10.02 6.6-.67.39-2.18-.72-3.32-1.07-3.98-1.23-5.46-5.43-8.82-7.39-1.58-.92-3.24-1.72-4.89-2.51-2.56-1.24-5.14-2.46-7.73-3.63-1.03-.46-2.1-.97-3.19-1.12-2.31-.32-3.57-1.22-3.68-3.25-.11-1.84 1.4-2.72 2.77-3.23 4.21-1.55 8.47-2.99 12.77-4.25 2.73-.8 5.6-1.11 8.37-1.78 4.24-1.02 8.56-1.82 12.11-4.7 2.47-2 7.2-.88 8.81 1.93.28.49.62 1.28 1.01 1.33 2.48.32 2.13 1.83 1.56 3.34 4.67 2.28 9.31 1 13.96.27 3.27-.51 6.56-.91 9.84-1.38 6.86-.98 13.72-2.01 20.59-2.91 1.34-.17 2.78.07 4.12.37.78.18.79 2.4.09 3.1-3.15 3.17-6.34 6.31-9.46 9.51-.83.85-1.47 1.89-1.92 3.25.75-.2 1.64-.2 2.24-.62 2.83-1.98 5.54-4.14 8.4-6.07.88-.59 2.18-1.01 3.19-.87 4.9.68 9.78 1.54 14.64 2.44.71.13 1.42.71 1.93 1.26.15.16-.32 1.01-.62 1.46-3.53 5.24-7.95 9.7-12.5 14.01-1.55 1.47-3.33 2.84-5.25 3.73-1.74.8-3.8.93-5.74 1.26-3.95.67-7.94 1.11-11.85 1.94-4.09.87-8.09 2.12-12.15 3.13-4.36 1.08-8.76 2.02-13.13 3.11-3.07.77-6.12 1.65-9.14 2.58-.53.16-1.09.76-1.3 1.28-.64 1.64.66 4.51 2.18 5.36 1.19.67 1.93 2.24 3.72 1.65 2.89-.95 6.06-1.37 8.63-2.85 4.28-2.48 9.03-3.32 13.58-4.83 5.28-1.76 10.7-3.1 16.06-4.61 9.75-2.74 19.48-5.56 29.27-8.14 2.68-.7 5.55-.69 8.35-.92 1.24-.1 6.01 3.06 6.15 4.19.11.88-.06 1.97-.51 2.73-1.65 2.78-3.4 5.5-5.24 8.15-1.02 1.46-2.22 2.81-3.46 4.1-2.31 2.4-4 5.27-6.03 7.8-2.17 2.71-1.08 5.79-2.5 8.36-.38.68-.57 1.47-.85 2.21-.14-.2-.29-.41-.43-.61zm-96.69 2.96c-1.27-.47-2.36-.87-3.37-1.24.72.86 1.43 1.72 2.14 2.57.38-.41.67-.72 1.23-1.33z"/></svg>