<svg viewBox="0 0 218.46 218.46" xmlns="http://www.w3.org/2000/svg"><path d="m129.14 89.48c-1.17-.21-1.66-.19-2.03-.39-2.72-1.45-2.86-1.31-5.1.57-1 .84-2.53 1.06-4.14 1.69.28-1.3.41-1.99.58-2.67.38-1.5.37-3.2 2.34-3.8.45-.14.76-.8 1.11-1.24 1.51-1.86 3-3.73 4.68-5.82-3.66-1.08-7.01-.76-10.29-.47-2.54.23-4.53-1.53-3.89-4.02.57-2.21 1.31-4.38 1.69-6.62.45-2.64.71-5.32.82-7.99.17-4.26 1.11-8.35 2.95-12.12 1.26-2.58 1.07-5.13.81-7.71-.23-2.27.11-3.34 2.27-4.07 1.37-.46 2.81-.74 4.16-1.24 1.01-.37 1.95-.94 2.89-1.47 2.52-1.42 4.99-2.91 7.53-4.28 3.32-1.78 6.6-3.51 9.34-6.25 1.1-1.1 3.1-1.31 4.83-1.98.3 1.21.66 1.9.6 2.55-.42 4.63 1.24 8.91 2.08 13.34 1.33 7.02 2.11 14.05-1.47 20.79-.75 1.42-.97 3.14-1.33 4.74-.32 1.45.73 1.55 1.81 1.8 2.91.67 5.79 1.49 9.09 2.36-2.33 2.79-4.38 5.17-6.33 7.64-.39.5-.74 1.64-.47 1.96 2.71 3.32 3.27 7.53 4.83 11.31.44 1.06 1.02 2.05 1.51 3.09 1.33 2.81 1.1 3.73-1.45 5.46-.91.62-1.91 1.14-1.49 2.86 2.15-1.24 4.21-2.39 6.24-3.6 4.01-2.41 7.96-4.94 12.03-7.26 2.29-1.3 4.7-2.43 7.17-3.34 2.37-.87 3.89.4 3.97 2.84.22 6.43.43 12.86.8 19.28.23 4.01.77 8 1.1 12.01.06.68-.29 1.4-.87 2.1-.26-.92-.53-1.84-.71-2.5-.77.79-1.51 2.06-2.59 2.51-1 .42-2.36-.03-3.47-.09.33.22.82.57 1.32.91-.02.17-.04.34-.07.51-.52-.04-1.07.02-1.55-.14-1.02-.34-2-.79-2.99-1.23-1.21-.54-2.2-.48-3.34.43-.63.5-1.92.6-2.74.34-2.71-.86-5.33-2.01-8.03-2.94-.62-.21-1.39 0-2.08.04-.36.02-.88.24-1.06.07-2.12-1.86-4.34-.48-6.55-.37-1.2.06-2.57-.28-3.62-.87-1.09-.61-1.72-2.06-.72-3.07 1.67-1.68.62-3.76 1.52-5.49-.16-.09-.32-.19-.48-.28-3.96 3.74-7.92 7.48-11.88 11.21.1.2.21.41.31.61 1.96-.46 3.93-.93 5.94-1.4.15-.51.33-1.08.58-1.9 1.87 1.85 2.19 3.84 1.98 6.08-.1 1.1.15 2.23.27 3.68 4.09-1.66 7.81-3.17 11.5-4.67-.22 1.35-.27 2.41-.57 3.39-.45 1.49-.8 3.13-1.67 4.35-3.55 4.98-5.74 10.41-6.07 16.54-.06 1.1.09 2.21-.03 3.3-.57 5.2.83 9.96 2.96 14.63 1.01 2.23 1.63 4.64 2.37 6.98.67 2.13 2.66 2.94 4.33 3.25 2.02.36 1.52 1.84 1.88 2.82.16.43-.79 1.46-1.44 1.94-1.47 1.07-3.25 1.77-4.57 2.98-2.93 2.68-5.74 5.52-8.44 8.43-1.1 1.18-1.8 2.74-2.85 4.39-.62-.61-1.33-1.09-1.73-1.75-1.34-2.21-3.25-3.67-5.58-4.65-1.82-.76-2.83-2.13-3.66-3.91-.92-1.99-2.41-3.71-3.43-5.66-1.99-3.8-3.94-7.63-5.66-11.56-.67-1.52-.96-3.34-.93-5.02.13-5.98.19-11.98.87-17.9.26-2.29 2.08-4.41 3.23-6.58 1.04-1.95 2.12-3.88 3.25-5.79.64-1.08 1.32-2.16 2.14-3.09 1.33-1.49 1.36-1.79-.37-2.64-2.08-1.02-4.19-1.99-6.29-2.98 1.96-2.59 3.96-5.24 5.96-7.88-.13-.16-.25-.33-.38-.49-2.45.2-4.9.37-7.35.6-1.26.12-2.64.77-3.73.42-1.39-.45-2.53-1.66-3.73-2.5 1.57-3.24 3.02-6.13 4.37-9.06.52-1.12.72-2.39 1.21-3.52.62-1.43 1.33-2.84 2.11-4.19 1.18-2.05 2.46-4.05 3.89-6.39z"/><path d="m54.23 74.91c.34 2.36.74 4.59.98 6.85.38 3.63 2.17 7.11 1.12 10.91-.09.31.61.84 1.17 1.57-4.97 1.59-10.2.95-15.46 2.24.34.41.56.77.87 1.02 2.27 1.83 1.84 3.16-.33 4.81-.62.47-1.3 1.12-1.51 1.83-1.6 5.2-3.09 10.43-4.59 15.66-.12.42-.06.89-.09 1.56 1.54.3 3.22.3 4.56.98 1.98 1 3.75 2.43 5.5 3.81.3.23.35 1.32.08 1.67-2.69 3.46-2.84 7.65-3.51 11.69-.17 1.04-.31 2.09-.5 3.47 3.46-.37 6.64-.54 9.76-1.08 3.8-.66 7.54-1.66 11.32-2.48 1-.21 1.28.3 1.67 1.29.88 2.24-.68 3.9-.93 5.85-.1.75-.27 1.48-.41 2.22.13.13.27.27.4.4 2.02-1.31 4.07-2.59 6.07-3.94 1.21-.82 2.27-1.89 3.54-2.6.76-.43 1.8-.55 2.71-.52 2.71.09 3.75-2.1 5.22-3.67 2.49-2.68 4.95-5.39 7.35-8.15.56-.64.8-1.55 1.28-2.27.58-.85 1.3-1.61 1.89-2.45.57-.82 1.5-1.69 1.52-2.56.13-5.83.11-11.66.04-17.49-.01-1.38-.35-2.76-.55-4.23h-2.56c.64-.75.96-1.05 1.2-1.41 1.06-1.56 1.45-2.94.08-4.76-1.82-2.41-3.35-5.09-4.67-7.82-.61-1.25-.44-2.88-.65-4.57-3.71 1.02-5.61-3.22-9.03-4.11 2.24-2.44 4.47-4.83 6.65-7.25 1.1-1.22 2.16-2.14 4.07-2.05 2.14.1 4.3-.49 6.46-.59 1.15-.05 2.33.29 3.34.44.27 2.96-3.28 4.52-2.1 7.9.82-.53 1.57-.94 2.25-1.45 2.71-2.06 4.39-1.22 5.77 1.79 1.31 2.87 3.41 5.43 5.45 7.9.99 1.2 2.04 2.15 2.26 3.81.1.77.79 1.46 1.24 2.22-3.38 2.46-7.03 5-9.47 9.03.63.21 1.13.57 1.55.49 2.92-.59 4.84 1.61 7.23 2.49.26.1.58.83.52.89-1.59 1.45.81 3.11-.39 4.81-.96 1.36-1.05 3.34-1.5 5.05-1.27 4.76-2.52 9.52-3.87 14.62-2.99-1.15-5.99-2.36-9.02-3.46-.87-.32-1.85-.36-2.78-.45-.14-.01-.51.58-.44.69.39.63.87 1.7 1.35 1.72 2.11.06 2.66 1.08 2.84 3.02.07.77 1.33 1.62 2.22 2.08 1.8.91 3.8 1.44 5.57 2.4.74.4 1.62 1.55 1.52 2.24-.12.88-1.02 2.05-1.85 2.33-1.4.48-2.13 1.31-2.82 2.51-1.51 2.62-3.17 5.16-4.79 7.71-.15.24-.49.36-.72.56-.88.73-2.45 1.42.22 2.27-1.67 1.26-3.98-1.11-4.8 1.61-1.37-3.11-5.73-5.03-12.42-5.21.44.26.85.59 1.32.76 1.49.55 3.41.86 3.47 2.77.07 1.96-1.78 2.65-3.35 3.02-1.48.35-3.06.29-4.59.38-3.95.21-7.89.45-11.84.56-.95.03-1.92-.38-3.09-.63-.64 2.01-1.35 4.22-2.21 6.94-1.33-.29-3.19-.56-4.96-1.12-2.52-.79-4.98-1.77-7.45-2.73-.61-.24-1.23-.64-1.66-1.14-1.97-2.28-4.71-2.81-7.85-3.74.05-.9.11-2.09.16-2.98-.26.04-.76.23-1.25.2-1.46-.08-2.93-.21-4.38-.38-4.23-.5-8.49-.86-12.67-1.63-2.34-.43-3.23-2.86-2.73-5.18.99-4.58 1.95-9.17 2.6-13.81.44-3.1.28-6.29.46-9.43.07-1.31-.34-1.8-1.74-1.87-2.14-.1-4.26-.51-6.36-.78.12-.73.48-1.53.24-1.81-1.77-2.07-.28-4.06.1-6.02.68-3.61 1.42-7.22 2.37-10.76.52-1.93 1.46-3.75 2.31-5.57.52-1.11 1.52-1.31 2.63-.9.52.2 1.02.47 1.69.78.9-2.9 1.74-5.65 2.63-8.38.33-1.02.78-2.01 1.14-3.02.17-.47.52-1.07.38-1.44-1.55-3.9 2.62-5.55 3.48-8.63.23.47.46.94.7 1.43.17.01.4.1.54.02 5.98-3.08 11.98-6.15 17.92-9.33.66-.35 1.19-1.24 1.47-1.99 1.74-4.6 3.38-9.25 5.1-13.86.27-.73.81-1.37 1.19-2 .75.32 1.26.67 1.81.76 4.76.77 9.53 1.51 14.3 2.24.63.1 1.3 0 1.92.13 1.46.33 3.03.51 4.32 1.19 1.25.67 2.16.95 3.43-.13-.3.84-.62 1.68-.9 2.52-2.73 8.28-5.47 16.56-8.17 24.85-.14.43.07.97-.03 1.42-.14.61-.43 1.19-.99 1.81-.2-2.46-2.16-2.4-3.53-2.8-4.37-1.28-8.8-2.38-13.22-3.52-.47-.12-1-.02-1.73-.02z"/></svg>