<svg viewBox="0 0 218.46 218.46" xmlns="http://www.w3.org/2000/svg"><path d="m25.57 190.74c2.12-8.29 7.32-15.71 7.39-24.68.16.02.33 0 .4.07 1.54 1.75 3.03 3.53 4.61 5.25.36.4.94.65 1.46.84 8.92 3.11 17.63 2.8 26.12-1.54 2.19-1.12 4.5-2.01 7.05-3.13-.44-.39-.75-.81-1.17-1.03-3.38-1.73-7.04-3.06-10.08-5.25-1.88-1.35-3.56-.29-5.42-.85 2.6-3.77 2.27-8.2 3.41-12.26.27-.97.42-1.99.59-2.99.34-1.99.66-3.97 1.05-6.41 2.75 2.89 5 .61 7.22.11 3.44-.78 6.77-2.03 10.16-3.06.28-.09.61-.04.52-.03.13 1.01.12 1.87.36 2.66 1 3.4 1.98 6.8 3.14 10.15 1.69 4.9 3.53 9.76 5.31 14.66h16.89c.81-3.19.71-6.09-1.46-8.81-.58-.72-.57-2-.64-3.03-.13-1.69.03-3.41-.18-5.08-.22-1.82-.79-3.59-1.07-5.4-.08-.49.18-1.36.54-1.53 2.72-1.3 5.47-2.55 8.28-3.66 1.45-.57 3.02-.81 4.53-1.45-3.81-.41-7.39-2.74-11.24-1.24-.9-1.29-1.69-2.71-2.77-3.85-.49-.53-1.74-.97-2.3-.71-2.68 1.25-5.15 2.94-7.87 4.08-1.33.56-3.07.52-4.55.27-4.12-.7-8.17-1.81-12.4-1.87-1-.01-2-.8-2.76-1.13.37-1.97.71-3.73 1.06-5.57-3.3-1.12-6.41-2.17-9.7-3.28.15 2.41.27 4.33.41 6.52-2.5-1.67-4.06.39-5.78 1.32-3.36 1.81-5.73 1.59-7.99-1.57-2.14-2.98-3.99-6.18-5.98-9.3-3.4-.15-4.3-1.42-5.31-5.53-.83-3.37-1.85-6.7-2.83-10.03-.1-.33-.57-.53-.77-.86-.91-1.49-1.82-2.98-2.66-4.51-.72-1.32-1.38-2.67-2.01-4.03-1.09-2.36-2.22-4.7-3.18-7.11-.53-1.33 1.56-3.45 3.49-3.41 3.32.07 5.16-1.59 6.12-4.88-.64-.2-1.25-.5-1.89-.58-2.4-.29-3.34-2.02-2.1-4.12.57-.98 1.21-1.98 2.04-2.74 3.63-3.35 7.34-6.62 11.02-9.91 3.24-2.89 5.52-6.5 7.61-10.25.16-.28.28-.57.45-.84 3.08-5 4.36-5.04 7.8-.33.44.6 1.27 1.15 1.98 1.24.35.05.94-.95 1.26-1.56 1.71-3.33 3.43-6.65 5.04-10.04 2.58-5.44 5.04-10.92 7.61-16.36.25-.53.87-.89 1.32-1.33.16.14.33.27.49.41l-2.93 6.96c.06.05.13.09.19.14.37-.49.76-.97 1.1-1.48 1.2-1.83 2.31-3.72 3.63-5.46.29-.38 1.42-.54 1.91-.29 2.88 1.45 5.63 3.18 8.53 4.57 2.54 1.21 5.22 2.15 7.87 3.13 2.43.9 4.93 1.62 7.35 2.56 2.92 1.14 5.8 2.24 9.02 1.39.26-.07.59.13.99.23.08 5.95-3.62 10.48-5.48 15.64-1.3 3.62-2.73 7.2-4.11 10.8-.85 2.2-2.49 3.41-4.74 4.04-6.34 1.76-12.66 3.58-18.97 5.42-1.15.33-2.23.88-3.77 1.5.47.99.84 2.02 1.4 2.92 1.32 2.1 1.16 3.78-.97 4.97-3.36 1.86-6.22 4.51-10.09 5.61-2.18.62-4.42 1.72-5.61 4.15-.77 1.56-2.19 1.67-3.7.71-.21-.14-.42-.28-.65-.38-.11-.05-.25 0-.73.03 0 1.95-.12 3.92.03 5.87.24 3.24.62 6.47 1.01 9.69.49 4.08 3.24 6.23 6.68 7.89 1.64.79 3.61.65 5.01 2.32.54.64 2.64.53 3.72.06 2.75-1.2 5.43-2.64 7.95-4.29 1.96-1.29 3.66-2.99 5.42-4.58 2.14-1.93 3.67-1.96 5.38.08.3.36.52.88.57 1.34.43 3.6 1.54 5.01 4.77 5.96-.23 2.58 1.58 5.73 3.94 6.29-.21-1.67-.4-3.2-.63-5.03 1.45-.12 3.2-.39 4.94-.4 4.62-.03 9.19-.24 13.65-2.42.57 1.02 1.08 2.09 1.74 3.04.36.52.98.86 1.49 1.28.42-.51 1.04-.96 1.22-1.55 1.17-3.78 1.13-4.69 6.73-4.66 1.83 0 3.83-1.47 4.13-3.16 1.17-6.36.47-12.58-2.65-18.21-1.29-2.32-3.69-4.17-5.92-5.77-2.6-1.87-5.56-3.25-8.38-4.8-.37-.2-.85-.34-1.26-.3-1.27.14-2.16-.34-3.06-1.23-.57-.58-1.51-.96-2.33-1.08-1.34-.2-1.55-1-1.07-1.9 1.35-2.5 2.81-4.94 4.3-7.36.75-1.22 1.54-2.48 2.55-3.47.78-.77 1.94-1.61 2.93-1.61 3.7 0 7.28.76 10.74 2.22 2.13.89 4.43 1.41 6.69 1.96 2.29.56 3.85 2.05 5.57 3.53 2.77 2.39 1.07 5.31 1.4 8.02 1.31-1.08 2.61-2.13 4.08-3.34.61.89 1.17 1.85 1.86 2.7 3.51 4.31 6.51 8.86 8.17 14.28.99 3.25 1.06 6.46.37 9.61-.85 3.86-2.28 7.6-3.45 11.39-.07.24-.28.51-.22.71.86 3.29-1.39 5.45-2.9 7.83-1.96 3.11-4.1 6.11-6.1 9.2-.29.44-.13 1.16-.4 1.62-.54.93-1.07 2.1-1.93 2.54-.63.32-2.01-.11-2.65-.67-1.41-1.23-3.02-1.66-4.74-2.19-2.4-.73-4.63-2.02-6.95-3-.67-.28-1.43-.35-2.38-.57.62 2.16 1.16 4 1.68 5.85.08.28.2.62.11.87-2.39 6.51-4.87 12.99-7.16 19.54-.66 1.88-2.3 3.61-1.35 5.93.1.23-.55.77-1.08 1.45 6.58-.51 12.59-2.94 19.34-3.01-5.15 4.61-3.73 10.03-3.23 15.82.78-.67 1.32-1.08 1.8-1.56 2.08-2.09 3.02-5.21 5.94-6.53.42-.19 1.11-.49 1.33-.31 2.8 2.25 6.32 1.71 9.48 2.54 1.52.4 3.14.58 4.56 1.19 3.32 1.44 6.52 3.15 9.83 4.62 3.77 1.67 6.25 4.73 8.69 7.82 1.22 1.54.36 3.78-1.86 5.76-1.89 1.69-3.77 3.39-5.56 5.19-2.11 2.12-4.11 4.34-6.16 6.52-1.24 1.32-2.7 1.56-3.56.22-1.35-2.09-3.45-2.36-5.49-2.98-1.81-.55-3.56-1.37-5.39-1.82-4.66-1.14-9.33-2.24-14.04-3.16-2.01-.39-4.1-.37-6.16-.41-1.53-.03-3.17 0-3.67-1.74-.53-1.88 1.23-2.83 2.19-4.07.5-.65 1.09-1.23 1.64-1.85l-.41-.5c-2.79.18-5.59.44-8.38.51-4.09.1-7.76 1.64-11.57 2.85-1.52.48-2.37 1.47-3.58 2.04-1.44.67-3.12.97-4.73 1.16-4.94.59-9.89 1.1-14.84 1.53-1.93.17-3.91.23-5.82 0-1.76-.21-2.83.74-3.5 1.9-2.14 3.71-5.97 4.29-9.48 5.51-2.5.87-5.11 1.49-7.52 2.56-1.98.88-3.91 1.3-6.07 1.4-4.08.18-8.09-.2-11.97-1.33-2.39-.7-4.59-2.04-6.86-3.14-2.55-1.24-5.12-2.47-7.61-3.83-.89-.48-1.58-1.33-2.36-2.01zm50.73-21.69c-.09.07-.18.13-.26.2.61 1.36 1.23 2.72 1.9 4.2.4-.93.71-1.66 1.07-2.5-.89-.63-1.8-1.27-2.7-1.91z"/></svg>