<svg viewBox="0 0 218.46 218.46" xmlns="http://www.w3.org/2000/svg"><g fill="#f7931e"><path d="m134.35 165.95c-.84 4.69-1.36 9.32-2.58 13.75-.68 2.47-2.45 4.66-3.86 6.9-1.7 2.68-3.33 5.45-5.37 7.85-2.08 2.45-4.57 4.58-7 6.7-2.1 1.83-4.4.65-6.48-.15-2.65-1.02-5.2-2.33-7.74-3.61-2.37-1.19-2.48-3.76-.54-5.53 4.76-4.34 7.4-9.88 7.86-16.21.25-3.48 1.13-7.3-1.16-10.5-1.17-1.63-2.91-2.84-4.23-4.38-.78-.9-1.69-2.03-1.79-3.12-.12-1.27.34-2.48 2.2-2.96 4.81-1.23 9.52-2.84 14.25-4.36.99-.32 1.96-.79 2.84-1.35 2.74-1.75 5.73-1.21 7.59 1.48 3.23 4.7 4.41 10.14 6.02 15.5z"/><path d="m102.95 26.12c-1.77 2.97-3.18 5.35-4.6 7.73.18.11.35.22.53.33.96-1.51 1.87-3.06 2.91-4.52.39-.54 1.08-.87 1.64-1.3.02.69.3 1.52.02 2.04-3.08 5.53-6.66 10.6-12.93 12.94-5.93 2.21-11.76 4.82-17.87 6.32-4.6 1.13-9.4-.36-13.7-2.45-2.45-1.19-1.6-3.69-1.35-5.73.33-2.73.97-5.42 1.24-8.15.17-1.68.51-2.54 2.35-1.72 2.77 1.23 5.77 1.06 8.3-.09 3.5-1.6 6.84-3.72 9.87-6.09 2.44-1.91 4.38-4.5 6.43-6.88.5-.58.64-1.5.84-2.28.28-1.11 2.96-1.95 4.02-1.03 4.19 3.61 8.28 7.32 12.31 10.9z"/><path d="m115.13 128.02c.74 4.71 1.6 8.67 1.93 12.68.28 3.39-.89 6.08-4.62 7.4-2.84 1.01-5.28 3.22-8.14 4.09-6.64 2-13.05.89-19.34-2.08-3.15-1.49-6.53-2.71-10.15-2.97-2.17-.15-3.18-2-2.65-4.21 1.05-4.42 2.09-8.85 3.11-13.28.43-1.86 1.27-3.68 3.24-3.78 1.32-.07 2.93.76 4.02 1.65 3.18 2.59 6.55 4.6 10.78 4.54 4.58-.07 9.16-.2 13.74-.47 1.15-.07 2.29-.71 3.38-1.21 1.38-.62 2.71-1.35 4.69-2.36z"/><path d="m200.09 128.11c0 1.69.05 3.39-.01 5.08-.09 2.77-2.62 8.54-6.62 9.6-5 1.32-9.96 2.79-14.96 4.11-.8.21-1.79.23-2.54-.05-3.45-1.28-6.83-2.71-10.25-4.05-.79-.31-1.67-.77-2.45-.68-3.43.4-5.24-1.6-3.93-4.86 1.47-3.68 3.72-7.03 4.03-11.19.05-.62 2.03-1.57 3.11-1.55 4.66.07 9.32.31 13.97.73 5.29.48 8.31-2.55 10.83-6.52.26-.41.36-.93.65-1.31.65-.86 1.67-2.48 2.01-2.35 1.21.44 2.75 1.27 3.18 2.35 1.38 3.42 2.32 7.01 3.43 10.54-.15.05-.3.09-.45.14z"/><path d="m21.91 144.87c-.5.28-1.04.58-1.58.87-1.26-1.78-.31-5.82 1.5-7.4 3.38-2.96 7.05-5.39 11.1-7.4 2.88-1.43 5.19-4.1 8.13-5.27 4.49-1.78 9.28-3.68 14.22-1.89 3.41 1.24 6.66 3.01 9.82 4.81.69.39 1.12 2.02.95 2.96-.63 3.67-1.47 7.31-2.43 10.91-.16.59-1.31.89-1.96 1.37-3.65 2.73-6.54.01-9.53-1.4-5.18-2.45-8.12-2.19-12.22 1.93-2.5 2.51-4.57 5.45-6.91 8.12-.3.34-1.38.5-1.69.24-3.14-2.54-6.2-5.18-9.39-7.87z"/><path d="m153.3 144.3c-1.09-.28-1.77-.38-2.4-.63-.88-.36-1.75-.77-2.56-1.26-1.56-.94-2.96-2.24-4.62-2.9-5.14-2.04-9.72-.54-13.69 2.93-1.13.99-1.72 2.58-2.58 3.87-.34.51-.74.98-.3.37-1.52-.97-3.8-1.6-4.42-2.97-1.54-3.41-2.67-7.11-3.24-10.8-.23-1.51.96-3.87 2.25-4.88 4.36-3.42 8.57-7.48 14.35-8.24 4.02-.53 8.17-.55 12.22-.22 2.81.23 5.61 1.28 8.29 2.29 1.13.43 2.04 1.63 2.85 2.64.39.49.66 1.63.38 2-2.95 3.8-2.41 8.85-4.71 12.89-.87 1.52-1.25 3.31-1.84 4.92z"/><path d="m120.8 52.6c-2.22-2.43-4.11-1.44-6.12-.93-.83.21-2.06-.26-2.82-.82-2.22-1.64-4.39-3.39-6.38-5.29-.8-.76-1.7-2.18-1.49-3.03.27-1.08 1.6-1.93 2.53-2.81.88-.84 2.05-1.45 2.72-2.42 2.37-3.42 5.15-6.26 9.09-7.87 3.57-1.46 6.98-3.36 10.64-4.53 2.42-.77 5.15-.6 7.74-.85.49-.05 1-.02 1.46-.16 4.41-1.42 7.05.34 8.12 4.97.92 3.99 2.29 7.88 3.38 11.83.19.69 0 1.48-.02 2.23-.69-.04-1.46.1-2.06-.16-7.98-3.39-15.52-1.16-22.87 1.97-3.36 1.43-4.34 3.73-3.92 7.87z"/><path d="m137.26 110.55c-.71-.57-1.85-1.19-2.59-2.13-1.41-1.78-2.64-3.72-3.88-5.62-1.71-2.63-1.48-6.21 2.65-6.9 4.07-.68 8.51-1.19 11.67-4.27 3.02-2.95 6.13-6.05 6.11-10.79 0-.61-.18-1.3-.49-1.83-.66-1.14-.11-1.37.66-2.34 2.66-3.4 4.69-.81 6.99.09 2.7 1.06 5.41 2.13 8.15 3.07 2.22.76 2.75 1.88 1.83 4.18-1.2 2.99-1.89 6.17-2.83 9.26-.3.99-.49 2.14-1.12 2.9-3.86 4.75-8.48 8.45-14.44 10.31-3.59 1.12-7.13 2.4-10.7 3.6-.46.15-.94.22-1.99.46z"/><path d="m61.41 88.23c-3.38-1.61-6.77-3.14-10.1-4.82-4.95-2.51-7.51-7.12-10.28-11.63-2.27-3.69-2.61-7.78-3.36-11.82-1.09-5.84-1-5.69 4.27-8.36 2.42-1.22 4.47-3.18 6.71-4.76.64-.46 1.35-1.05 2.06-1.09.48-.03 1.47.8 1.46 1.22-.06 2.84-.94 5.8-.37 8.48.74 3.5 2.06 7.12 4.07 10.04 2.43 3.54 5.86 6.33 10.25 7.6 2.93.85 2.89.97 5.01 3.99-3.15 3.62-6.29 7.22-9.71 11.15z"/><path d="m158.76 70.81c-7.26.59-12-2.76-15.97-7.64-1.43-1.76-2.97-3.46-4.24-5.33-2.17-3.18-1.68-5.61 1.39-7.79 1.92-1.36 3.78-2.84 5.83-3.98 1.27-.71 2.8-1.08 4.26-1.27 2.07-.27 3.14.72 4.31 2.71 1.25 2.13 3.66 4.03 5.99 4.95 2.35.93 5.22.55 7.86.73.9.06 1.91-.19 2.68.14.61.27 1.45 1.38 1.3 1.83-1.23 3.84-2.62 7.63-4.06 11.4-1.21 3.14-3.73 4.31-6.96 4.26-.99-.02-1.97 0-2.38 0z"/><path d="m128.8 108.58c-3.97 2.63-7.47 4.95-10.96 7.28-5.06 3.37-10.16 1.94-15.14-.08-2.14-.87-4.06-2.33-6.03-3.59-1.44-.93-2.16-2.05-1.24-3.91 1.08-2.17 1.14-4.52 1.28-6.99.19-3.19-.14-7.03 3.06-9.57.83-.66 1.05-2.08 1.9-3.26 1.52 4.92 4.64 8.26 9.08 10.36 5.12 2.42 8.71-1.59 13.5-3.49 1.53 4.45 3.03 8.81 4.56 13.25z"/><path d="m73.07 86.45c4.04 7.21 8.92 12.57 18.63 10.26-.98 3.43-1.77 6.26-2.59 9.09-.34 1.16-.95 2.27-1.08 3.45-.41 3.87-5.94 6.95-9.46 5.17-4.33-2.19-8.65-4.38-12.96-6.61-3.83-1.98-4.92-6.09-7.12-9.33-1.81-2.66-.77-3.6 2-4.82 4.33-1.9 8.27-4.68 12.56-7.2z"/></g></svg>