<svg viewBox="0 0 218.46 218.46" xmlns="http://www.w3.org/2000/svg"><g fill="#f7931e"><path d="m166.52 164.72c2.97-1.09 6.18-1.78 8.83-3.39 2.31-1.41 4.25-.22 6.34-.24.23 0 .63 1.3.68 2.01.14 2.16-.05 4.36.24 6.5 1.22 9.04 1.91 18.01-2.54 26.47-1.64 3.11-4.3 5.28-7.82 5.58-1.48.13-3.3-.89-4.59-1.87-2.98-2.26-6.21-3.96-9.76-5.01-.69-.2-1.53.2-2.31.21-.58 0-1.16-.17-1.74-.26.16-.58.25-1.2.5-1.74.3-.64.93-1.17 1.09-1.83.81-3.41 1.65-3.98 5.38-3.26 2-7.61.86-15.42 1.06-23.86-1.72-2.57-4.34-5.68-6-9.23-1.37-2.92-1.74-6.35-2.34-9.59-1.19-6.45.08-12.44 2.81-18.45 3.31-7.29 11.13-8.66 16.31-4.65 1.53 1.19 3.74 1.88 4.65 3.4 1.12 1.87 2.46 2.68 4.54 2.83v.6c-.48.26-1.02.81-1.43.73-2.07-.42-2.94.86-3.85 2.32-3.97 6.31-3.73 12.88-.6 19.26.97 1.99 3.56 3.18 5.43 4.73.35.29.75.5 1.13.75l.1.8c-2.56.6-5.18 1.84-7.68 1.65-4.26-.33-6.22 2.48-8.81 4.6.13.32.26.63.39.95z"/><path d="m83.46 91.87c7.48-3.02 13.21-7.46 15.06-14.94 1.7-6.84-.6-13.14-5.26-18.67-.23.08-.66.28-1.1.39-.63.16-1.28.25-1.92.37-.13-.68-.3-1.36-.37-2.06-.07-.69.16-1.47-.09-2.08-.66-1.66-.06-2.88.88-4.24 1.65-2.38 2.94-5.04 4.72-7.31.68-.87 2.29-1.29 3.51-1.38.83-.06 2.3.66 2.49 1.32.44 1.52 1.31 1.61 2.55 1.62 2.1.02 3.95.53 5.33 2.4.64.87 1.8 1.38 2.77 1.97 4.62 2.83 7.08 7.03 7.83 12.3 1.5 10.48-.44 20.33-6.51 28.99-2.71 3.87-6.49 7.02-9.96 10.32-1.17 1.11-2.81 1.32-4.46.29-4.33-2.7-8.74-5.28-13.12-7.91-.59-.35-1.19-.7-2.35-1.38z"/><path d="m79.3 106.9c.61 1.57 3.13 2.54 1.28 4.81-3.59-3.99-5.37.49-7.74 1.73-2.09 1.09-3.17 3.14-3.94 5.53-1.79 5.56-2.14 11.08-1.01 16.77.37 1.9.45 3.87.5 5.81 0 .45-.6 1.16-1.08 1.34-4.17 1.53-8.4 1.77-12.67.36-2.89-.95-5.8-1.85-9.12-2.9 0-1.11.05-2.84 0-4.57-.2-6.25-.87-12.52-.49-18.73.19-3.04 1.7-6.43 3.65-8.83 3.88-4.78 7.79-9.73 13.41-12.72 1.34-.72 2.87-1.08 4.27-1.7 1.33-.58 2.71-1.13 3.89-1.95 1.85-1.27 3.68-.7 4.88 1.2 1.14 1.8 2.75 3.32 4.19 4.91.43.48 1.04.81 1.53 1.23 2.63 2.25 2.48 4.94-.36 6.83-.39.26-.75.55-1.19.87zm-32.95 15.89c.21.05.41.09.62.14.74-3.24 1.47-6.48 2.21-9.72-.27-.06-.54-.12-.81-.18-2.29 2.9-2.1 6.34-2.02 9.76z"/><path d="m89.79 42.36c-.73 2.78-1.32 5.54-2.2 8.21-.66 2-3.71 3.48-6.12 1.63-5.5-4.22-11.83-5.12-18.3-4.24-3.83.52-7.51 2.38-11.13 3.91-.71.3-1.11 1.85-1.26 2.88-.26 1.79-.68 2.75-2.9 2.54-2.56-.25-4.42-1.09-6.66-2.54-2.55-1.65-3.86-3.99-5.81-5.9-2.1-2.06-1.21-5.1 1.53-6.2.94-.38 1.84-.97 2.62-1.62 3.55-2.98 6.82-6.38 10.64-8.96 5.15-3.48 11-5.07 17.35-4.02 3.51.58 7.28.48 10.47 1.79 3.5 1.44 6.77 3.83 9.56 6.43 1.4 1.3 1.51 3.98 2.22 6.08z"/><path d="m167.89 21.76c1.46.58 3.21.87 4.41 1.83 3.42 2.73 6.63 5.73 10.37 9.02-1.74.7-2.86 1.16-4.15 1.67 1.82 3.06-.96 4.63-2.34 6.13-3.57 3.89-3.21 8.52-1.69 12.38 1.17 2.96 4.02 5.92 7.78 6.96.8.22 1.51.75 2.26 1.14-.42.75-.69 1.64-1.27 2.23-3.11 3.19-6.28 6.33-9.49 9.43-.37.35-1.25.62-1.64.43-4.42-2.16-9.07-4.01-13.09-6.76-3.73-2.56-4.53-7.13-4.04-11.33.61-5.2 2.26-10.27 3.17-15.45 1.08-6.16 3.61-11.38 8.58-15.31.47-.37.59-1.19 1.13-2.37z"/><path d="m107.07 161.9c-1.76-1.11-3.25-2.04-4.72-2.99-.4-.26-.96-.52-1.09-.91-1.42-4.02-2.82-8.06-4.11-12.12-.54-1.69.5-2.95 1.86-3.57 4.05-1.84 8.13-3.63 12.29-5.19 6.49-2.45 13.09-1.62 19.31.68 2.25.83 4.25 3.55 5.4 5.89 1.72 3.5 3.46 7.37 2.14 11.42-1.37 4.2-3.12 8.3-4.99 12.31-.42.89-2.17 1.87-3.04 1.67-1.21-.28-2.36-1.49-3.2-2.56-.81-1.05-1.12-2.48-1.78-3.67-2.56-4.61-7.33-5.64-11.82-6.84-1.48-.4-3.43.16-4.9.85-.75.35-1.03 1.92-1.31 2.99-.2.76-.04 1.62-.04 2.05z"/><path d="m182.9 69.93c4.04 1 6.9 4.11 9.12 7.91.64 1.1 1.29 2.35 1.39 3.57.7 9.09-.77 17.87-4.27 26.29-1.3 3.14-2.68 6.25-3.96 9.4-1.98 4.87-3.64 4.68-8.64 2.89-3.79-1.36-7.73-2.31-11.84-3.51-.24-3.41 2.66-5.33 5.39-7.37.7-.52 1.71-1.07 1.89-1.78 1.24-4.92 4.27-9.46 3.68-14.77-.45-4-.34-8.26-4.03-11.19-1-.79-.38-4.47.77-5.18 3.42-2.09 6.88-4.12 10.52-6.27z"/><path d="m68.47 145.52c-.23.75-.47 1.5-.91 2.92 4.76 1.04 9.49 2.16 14.25 3.09 3.16.62 5.12-1.53 7.03-3.56 1.03-1.09 1.98-2.25 3.08-3.51 3.3 3.91 5.08 8.21 6.39 12.78.44 1.54.28 2.48-.9 3.64-5.34 5.21-11.29 9.24-18.7 10.93-4.74 1.08-8.97-.56-13.23-2.01-4.97-1.69-8.86-4.95-12.06-9.07-1.31-1.68-.64-5.4 1.4-7.35 1.72-1.64 3.34-3.41 5.24-4.82 1.11-.82 2.66-1.05 4-1.56.51-.19 1.01-.4 1.49-.65.82-.43 1.61-.9 2.42-1.35l.51.51z"/></g></svg>