<svg viewBox="0 0 218.46 218.46" xmlns="http://www.w3.org/2000/svg"><g fill="#f7931e"><path d="m141.51 154.92c-1.52 1.09-2.92 1.99-4.19 3.04-1.79 1.49-3.32 3.37-5.26 4.61-7.27 4.64-14.92 8.53-23.43 10.41-.87.19-1.8.13-2.7.16-6.42.2-12.83.1-19.19-.92-.3-.05-.65.04-.95.13-3.72 1.11-4.74.61-6.4-3.63-.61 1.07-1.2 1.78-1.44 2.58-.74 2.56-1.17 5.22-2.05 7.72-1.49 4.24-2.17 4.46-6.18 2.78.72 4.46 2.03 5.38 6.43 4.51 4.69-.93 9.43-1.64 14.04-2.86 2.19-.58 4.13-2.13 6.17-3.27.91-.51 1.75-1.18 2.71-1.57 2.82-1.15 4.19-.65 6.38 1.57 2.62 2.65 5.35 5.21 8.18 7.63 1.3 1.11 2.58 2.16 2.2 3.95-.38 1.78-1.76 2.6-3.61 2.61-.35 0-.72.31-1.05.52-2.06 1.29-3.99 2.83-6.18 3.85-12.84 6-25.95 7.05-39.35 1.83-.67-.26-1.56.14-2.31 0-1.15-.2-3.06-.34-3.25-.94-.88-2.81-2.72-5.56-1.16-8.76 1.34-2.75 2.49-5.6 3.81-8.6.79-.25 1.9-.59 3.02-.94.03-.26.05-.52.08-.78-1.69-.52-3.35-1.15-5.06-1.53-1.59-.36-3.1-.7-3.44-2.57-.34-1.83.67-2.78 2.27-3.53 2.36-1.12 2.76-3.65 2.91-5.76.18-2.62-.29-5.35-.88-7.95-.68-3.03-2.63-5.23-5.56-6.46.86-2.74 2.26-3.65 5.05-3.84 3.43-.23 6.85-.71 10.27-1.08-.03-.2-.06-.39-.1-.59-4.37-2-8.74-4.03-13.13-5.97-.84-.37-1.81-.42-2.72-.62.6-.85 1.17-1.72 1.81-2.54.96-1.23 2.07-2.36 2.93-3.66.93-1.41 1.7-2.93 2.42-4.45.98-2.08 1.85-4.21 2.67-6.09 3.79 1.45 5.63 4.78 9.53 5.69 4.37 1.02 8.57 2.37 13.15 2.18 4.36-.18 8.27-.99 10.68-5.11.16-.27.45-.48.71-.68.25-.19.54-.33.92-.56 3.16 4.84 5.66 10.21 11.33 12.71q-.91 1.39-2.67.67c-9.78 10.67-20.98 14.62-34.84 9.03 1.05 1.9 1.99 3.58 2.91 5.25 2.49-.79 4.33 1.8 3.79 4.99-.5 2.93-.78 5.9-1.25 9.54 1.13-.74 1.78-.93 1.98-1.33 1.5-3.14 3.13-6.24 4.27-9.51.95-2.72 2.7-3.59 5.12-2.08.92.58 2.06.98 3.14 1.08 9.34.88 17.71-1.79 25.07-7.42 1.54-1.18 2.13-3.52 3.37-5.16.85-1.13 2.02-2.63 3.17-2.73.93-.08 2.08 1.6 3.02 2.61.55.59.75 1.55 1.36 2.03 2.69 2.09 5.52 4.01 8.19 6.12 1.1.87 1.91 2.09 3.31 3.67zm-58.74-6.59c4.56.4 8.99.09 13.11-2.2-4.36.73-8.72 1.46-13.11 2.2z"/><path d="m172.24 92.57c-1.77 3.18-3.74 7.38-6.35 11.15-1.68 2.43-4.18 4.34-6.53 6.22-.71.56-2.23.52-3.23.23-4.09-1.18-8.49-1.74-11.52-5.33-.48-.57-1.6-.64-2.45-.86-1.48-.39-2.83-.82-3.08-2.66-.23-1.72.58-2.74 2.05-3.4.37-.17.79-.31 1.06-.58 4.56-4.72 9.85-8.8 13.13-14.65.47-.84.61-2 .53-2.98-.16-1.93-.51-3.85-.92-5.74-.15-.68-.53-1.52-1.08-1.87-1.52-.97-2.15-2.22-1.64-3.91.56-1.85 2.14-2.25 3.82-2.34 4.25-.24 8.51-.34 12.75-.73 2.97-.27 5.51 1.08 5.81 3.99.46 4.44.54 8.91.79 13.42.19-.12.65-.62 1.18-.73 1.19-.24 2.8-.84 3.57-.31 2.57 1.74 4.53.47 6.06-1.12 2-2.08 3.75-4.5 3.9-7.64.11-2.36 1.66-3.41 3.76-3.87 1.92-.42 3.27.25 4.2 2.01 1.48 2.78 3.28 5.42 4.48 8.31.47 1.14-.05 2.92-.59 4.21-2.88 6.86-6.97 12.8-13.07 17.31-2.4 1.78-4.97.71-7.42 1.21-1.74.35-3.6.07-5.41.07-2.81 0-3.91-1.23-3.79-4.09.09-2.03.02-4.07.02-5.34z"/><path d="m119.02 143.55c-1.63-2.07-2.82-3.71-4.16-5.23-1.3-1.48-2.93-2.7-4.06-4.28-.83-1.16-1.86-3.04-1.44-4.05.94-2.31 2.27-4.93 4.23-6.26 5.81-3.93 12.1-6.87 19.43-6.91 3.83-.02 7.65-.59 11.47-.93 5.88-.53 11.03 2.53 16.63 3.38 1.25.19 2.52.18 3.78.32.54.06 1.26.09 1.56.43.91 1.06 1.5 2.41 2.48 3.37 1.74 1.7-.24 2.58-.8 3.49-2.36 3.77-4.95 7.38-7.52 11.02-.38.54-1.04.88-1.96 1.63.07-2.55-.35-3.92-2.74-2.33-.41.27-1.33-.16-1.99-.36-10.41-3.16-20.59-2.25-30.57 1.77-.94.38-1.85 1.07-2.53 1.83-.67.73-1.03 1.74-1.81 3.13z"/><path d="m170.49 175.26c.95-.86 1.87-1.68 2.78-2.5.23.23.47.45.7.68-2 3.68-4.08 7.33-5.97 11.07-.68 1.34-.87 2.92-1.37 4.36-.29.82-.58 1.77-1.18 2.32-1.46 1.35-6.6.75-8.09-.64-.88-.82-1.96-1.53-3.07-1.95-6.36-2.41-13.02-3.09-19.71-2.53-3.06.26-6.03 1.59-9.02 2.5-.43.13-1 .56-1.08.95-.67 3.07-2.99 4.06-5.87 4.56-.67-2.04-1.54-4.22-2.09-6.48-.8-3.24-1.45-6.52-2.01-9.81-.38-2.23.74-3.94 2.76-4.65 3.2-1.13 6.45-2.46 9.77-2.78 7.23-.7 14.53-1.21 21.79-1.02 4.93.13 9.99.77 14.54 3.31 1.73.97 3.8 1.32 5.71 1.98.54.19 1.05.47 1.41.64z"/><path d="m95.79 30.76c6.48 3.06 12.92 4.32 17.16 9.79 2.2 2.84 4.1 5.65 4.38 9.27.42 5.36.72 10.74 1.07 16.1.24 3.69-.53 7.11-2.43 10.31-1.12 1.88-2.03 3.89-3.03 5.84-1.87 3.66-4.28 4.33-7.41 1.77-2.59-2.12-4.94-4.31-8.7-4.26-.92.01-2.11-1.94-2.7-3.21-.27-.58.4-1.91 1.01-2.54 5.55-5.73 7.15-15.16 3.69-22.28-1.07-2.21-3.82-3.13-7.42-1.98 1.49-6.39 2.89-12.38 4.39-18.81z"/><path d="m89.26 80.85c.42-1.29.7-2.15.98-3.01.21.08.42.17.63.25.83 2.52 1.46 5.14 2.55 7.54 1.05 2.33 2.58 4.44 4.09 6.97-1.34.5-2.78 1.47-4.22 1.48-3.04.02-5.26 1.58-7.43 3.27-3.69 2.88-7.63 5.58-10.78 8.98-2.57 2.77-4.19 6.44-6.16 9.75-.49.82-.52 1.96-1.09 2.69-.87 1.11-2.2 2.9-3.03 2.74-1.33-.25-2.94-1.62-3.49-2.92-1.29-3.01-3.43-4.69-6.32-5.94-.97-.42-1.61-1.79-2.22-2.84-.41-.71-.57-1.59-.74-2.41-.09-.43-.09-1.24.09-1.32 3.08-1.24 3.43-4.54 5.1-6.81 4.82-6.54 11.04-11.42 17.64-15.96 3.17-2.18 6.45-3.83 10.12-4.99 2.52-.8 3.72-.16 4.28 2.52z"/><path d="m88.38 33.74c.34 4.73.91 9.17.79 13.59-.03 1.13-2.12 2.85-3.52 3.17-4.5 1.01-9.1 1.91-13.69 2.08-10.22.38-19.5-2.72-27.82-8.7-.6-.43-1.63-.24-2.27-.64-1.16-.73-2.49-1.51-3.13-2.63-.32-.55.49-2.14 1.2-2.83 2.39-2.33 4-5.02 4.91-8.22.85-2.99 2.62-4.39 4.93-3.94 1.22.24 2.35.91 3.73 1.48-.82 2.12.9 2.95 2.63 3.94 7.09 4.06 14.67 5.81 22.79 4.91 2.22-.25 4.38-1.02 6.58-1.55.77-.18 1.54-.35 2.87-.64zm-1.82 13.8c.41-.05.82-.1 1.23-.14-.24-2.24-.47-4.48-.71-6.73-.31.02-.61.05-.92.07.13 2.27.27 4.53.4 6.8z"/><path d="m158.49 22.14c2.36-.05 5.75 2.53 6.81 3.76 1.86 2.16 4.17 3.91 6.22 5.92.82.81 2.18 2.07 1.98 2.71-.41 1.28-1.85 2.18-2.63 3.39-1.13 1.76-2.42 3.55-2.97 5.51-.51 1.84-.3 3.93-.12 5.88.17 1.82.53 3.54 2.61 4.54 1.89.9 1.91 3.23.21 4.57-2.18 1.72-4.6 3.14-6.7 4.93-2.33 1.99-4.56.89-6.55-.68-3.28-2.59-4.13-6.49-5.37-10.16-.86-2.57-2.35-5.16-2.34-7.73 0-7.51 2.21-14.54 6.45-20.81.62-.92 1.85-1.43 2.39-1.83z"/></g></svg>