<svg viewBox="0 0 218.46 218.46" xmlns="http://www.w3.org/2000/svg"><g fill="#f7931e"><path d="m174.75 29.82c-2.35.4-3.88.57-3.19 3.42.28 1.18-1.91 2.98-3.02 4.47-3.54 4.75-2.98 11.03 1.28 14.95 2.14 1.97 3.86 4.53 7.69 4.33-.45 1.06-.58 1.9-1.06 2.38-1.67 1.67-3.49 3.19-5.2 4.82-1.58 1.51-3.03 3.15-4.64 4.61-.53.48-1.58 1.02-2.06.8-3.51-1.6-6.97-3.32-10.39-5.12-4.75-2.5-7.87-9.41-6.69-14.59 1.26-5.53 2.26-11.14 3.87-16.57 1.45-4.88 3.58-9.5 8.19-12.49 3.31-2.15 3.32-2.41 6.66.23 2.62 2.07 4.96 4.49 7.39 6.8.43.41.64 1.04 1.18 1.94z"/><path d="m157.07 114.01c.09-5.54 5.04-7.05 7.54-10.43 1.07-1.44 1.66-2.74 1.99-4.52.69-3.76 2.05-7.44 1.39-11.31-.54-3.12-.56-6.41-2.83-9.08-1.52-1.79.03-5.44 2.18-6.52 1.85-.93 3.42-2.44 5.12-3.67.97-.71 2.08-2.05 2.94-1.92 1.59.24 3.33 1.06 4.49 2.18 3.47 3.37 6.27 7 6.37 12.39.18 9.52-2.41 18.31-5.95 26.94-.89 2.17-1.92 4.3-2.95 6.41-1.84 3.75-3.3 4.13-7.19 2.68-3.4-1.26-6.94-2.16-10.45-3.12-.82-.22-1.76-.03-2.63-.03z"/><path d="m125.03 149.24c-4.1 6.52-11.66 7.68-17.96 11.06-5.48 2.94-11.11 3.36-16.94 3.6-1.51.06-3.04-.63-4.55-.62-1.6.01-3.35.12-4.75.78-2.11 1.01-4.73.01-4.64-2.34.11-2.91.7-5.79 1.01-8.7.15-1.43-.04-2.92.26-4.31.3-1.4.69-3.11 1.67-3.93.79-.66 2.88-.73 3.77-.13 3.8 2.51 7.89 1.84 11.87 1.36 7.15-.87 12.32-5.23 16.96-10.34 1.31-1.44 2.89-2.4 4.76-1.49 1.67.81 2.53 2.23 1.67 4.28-.19.44.17 1.27.51 1.76 2.01 2.94 4.1 5.83 6.35 9.02z"/><path d="m174.77 125.16c-.54.65-.67.97-.82.98-5.64.32-6.41 5.02-7.28 8.9-.88 3.93-.76 8.29 1.45 11.88 1.57 2.56 4.08 4.54 6.29 6.92-.8.28-2.08.86-3.41 1.15-4.78 1.06-9.47 2.29-13.66 4.98-1.81 1.16-3.29 1.02-4.23-1.19-.28-.66-.75-1.25-1.21-1.81-6.47-7.89-6.99-17.14-5.45-26.54.67-4.12 2.39-8.25 5.62-11.38 3.1-3.01 9.23-3.34 12.55-.55 2.24 1.88 4.27 4.03 6.57 5.83.78.61 2.12.52 3.59.84z"/><path d="m174.67 158.55c.19 2.79.24 5.24.54 7.66.82 6.47 1.5 13 .05 19.39-1 4.43-2.21 9.12-6.8 11.59-2.31 1.24-4.63 1.93-7.03.03-1.45-1.15-3.03-2.14-4.64-3.05-2.77-1.57-5.6-3.04-9-2.45-.39.07-1.18-.15-1.21-.32-.07-.47.11-1.01.3-1.48.43-1.08 1.05-2.1 1.35-3.22.5-1.83 2.22-2.68 5.39-2.14.34-2.96.76-5.89.99-8.83.22-2.76.29-5.54.31-8.31 0-.65-.47-1.3-.72-1.95-.83-2.09.19-3.58 2.42-3.94 3.28-.53 6.52-1.31 9.8-1.87 2.8-.47 5.62-.77 8.25-1.12z"/><path d="m37.19 133.96c1.07-3.75 3.66-6.02 6.61-8.06 1.93-1.34 3.65-2.99 5.54-4.39 1.23-.91 2.65-2.97 3.72.28.18.56 1.09.94 1.74 1.27 3.32 1.7 6.95 2.96 9.9 5.14 2.24 1.66 3.75 4.39 5.34 6.8 1.38 2.09 2.43 4.41 3.61 6.63.18.35.46.74.43 1.09-.26 2.61-.51 5.22-.91 7.81-.49 3.14-2.67 4.89-5.4 6.05-2.53 1.08-5.37 1.44-6.97 4.33-.41.74-3.09 1.02-4.09.43-.96-.57-1.26-2.5-1.54-3.9-.19-.91 0-1.99.29-2.9 1.33-4.28-1.17-7.19-3.57-10.08-2.36-2.83-4.83-5.57-7.39-8.21-.67-.69-1.8-1.02-2.78-1.3-1.48-.43-3-.66-4.52-.98z"/><path d="m137.26 105.23c-.29 8.93-1.81 17.42-5.92 25.35-1.79 3.46-3.61 4.13-7.01 2.36-3.48-1.82-6.9-3.76-10.29-5.74-1.37-.8-1.05-1.67-.13-2.93 5.8-8.02 7.96-16.64 3.66-26.09-.76-1.66-1.9-3.14-2.86-4.71-1.06-1.74-.01-2.68 1.43-3.14 3.55-1.14 7.14-2.14 10.73-3.12.47-.13 1.33-.03 1.56.28 2.42 3.32 6.31 5.58 7.32 9.89.61 2.59 1.01 5.24 1.51 7.86z"/><path d="m58.93 84.48c-3.3-4.11-9.35-6.82-11.14-13.72 1.75-.28 3.63-.93 5.45-.78 3.46.29 5.52-1.93 7.89-3.69 1.76-1.3 3.45-2.7 5.28-3.9 4.35-2.87 6.8-7.04 8.33-11.85.32-.99.22-2.1.47-3.12.15-.63.47-1.54.93-1.71.59-.22 1.54-.01 2.11.36 3.73 2.42 7.4 4.94 11.09 7.42 1.2.81 2.86 1.23 2.98 3.41-.9-.2-1.55-.34-2.27-.49-.42 1.89-.55 3.89-1.33 5.61-.76 1.69-2.04 3.21-3.34 4.57-3.2 3.36-6.66 6.48-9.81 9.89-3.56 3.86-8.16 5.41-13.04 6.56-1.06.25-2.04.81-3.6 1.46z"/><path d="m61.27 87.6c-.05.22-.08.64-.17.65-4.41.78-5.8 4.98-8.38 7.7-3.91 4.15-6.88 9.04-4.67 15.16.61 1.68 1.97 3.12 3.12 4.57 1.02 1.27.96 1.98-.72 2.38-4.63 1.11-9.24 2.3-13.88 3.36-1.77.41-4.22-1.43-4.27-3.53-.13-5.45-.17-10.91.13-16.35.39-7.05 4.85-12.28 8.3-18.03 1.4-2.35 2.17-1.23 3.55-.84 2.49.7 5.02 1.26 7.54 1.87.16.04.34-.01.49.04 2.93.98 5.86 1.97 8.96 3.01z"/><path d="m112 90.82c-1.1-.68-2.74-1.54-4.22-2.63-5.52-4.07-11.76-5.2-18.43-4.65-.45.04-.85.51-1.3.56-1.27.13-2.85.61-3.75.05-.69-.43-.9-2.3-.68-3.39.61-3.01 1.73-5.93 2.33-8.94.42-2.11 1.68-2.84 3.5-3.5 6.09-2.2 12.22-1.29 18.34-.37 2.22.33 4.36 1.18 6.56 1.7 3.95.93 6.36 3.76 8.56 6.84 1.1 1.53.26 2.73-.88 3.8-2.57 2.41-5.18 4.78-7.69 7.25-.78.77-1.31 1.81-2.34 3.29z"/></g></svg>