<svg viewBox="0 0 218.46 218.46" xmlns="http://www.w3.org/2000/svg"><g fill="#f7931e"><path d="m113.34 75.4c-2.16-1.19-4.11-2.19-5.97-3.33-1.88-1.16-2.39-2.78-1.21-4.78.79-1.34 1.7-2.63 2.27-4.05.47-1.18.31-2.62.79-3.8.77-1.89 1.84-3.66 3.14-6.16 3.68 5.67 8.77 4.45 13.53 4.67 10.34.47 20.05-1.83 29.23-6.45 1.87-.94 3.6-2.17 5.66-3.43.35.54.81 1.14 1.16 1.8 2.14 4.11 4.22 8.24 6.41 12.33.36.67 1.11 1.12 2.09 2.06-1.56 1.95-2.9 4.21-4.79 5.82-2.66 2.27-5.64 4.2-8.63 6.04-6.31 3.86-13.14 4.79-20.42 3.61-4.82-.78-9.72-1.03-14.58-1.59-1.58-.18-3.13-.61-4.23-.83-.98 1.63-2.24 2.95-2.56 4.46-.56 2.61-.62 5.35-.7 8.04-.02.83.84 1.69.82 2.52-.09 3.18.79 6.06 2.09 8.91.68 1.49.22 2.49-1.54 3.06-3.28 1.08-6.4 2.66-9.71 3.58-2.1.58-4.5 1.39-6.34-1.24-1.55-2.23-3.67-4.05-5.36-6.19-.62-.78-.98-1.94-1.03-2.95-.28-5.07-.47-10.14-.58-15.22-.06-2.81 2.29-3.17 4.23-3.51 3.2-.55 6.49-.58 9.68-1.17 2.17-.4 4.23-1.39 6.57-2.19z"/><path d="m163.33 199.37c-.68.05-1.73.42-1.97.12-4.4-5.36-10.75-5.08-16.72-5.9-2.09-.29-4.16-.65-6.25-.91-4.62-.58-8.81 1.11-13.02 2.57-.44.15-.62 1-.95 1.5-.39.61-.76 1.67-1.22 1.71-.64.06-1.81-.53-1.94-1.04-.89-3.54-1.4-7.17-2.36-10.69-.67-2.45-1.44-5.05-2.9-7.05-1.85-2.51-.22-4.76-.09-7 .09-1.49 2.21-1.58 4.06-1.53 2.68.07 5.39-.84 8.06-1.45 9.09-2.07 18.11-2.76 27.23.07 3.62 1.12 7.46 1.5 11.2 2.24 3.12.61 5.49 2.25 7.21 4.97.69 1.09 1.78 1.94 2.77 2.81 1.44 1.26 1.73 2.58.78 4.31-2.04 3.72-3.06 8-6.17 11.16-.32.32.11 1.28-.06 1.87-.31 1.09-.54 2.45-1.31 3.08-.64.53-2.08.44-3.04.17-1.13-.32-2.12-1.13-3.16-1.72-.05.24-.1.49-.15.73z"/><path d="m112.94 194.28c.04.06.33.53.71 1.11-2.1 1.01-4 2.11-6.02 2.86-3.87 1.43-7.72 3.18-11.73 3.84-5.83.95-11.53 3.25-17.59 2.39-4.01-.57-8.01-1.27-12-1.93-1.91-.31-3.83-.57-5.7-1.05-1.05-.27-2.13-.76-2.98-1.43-2.96-2.33-6.22-3.15-10.36-2.18 0-1.01-.02-1.93 0-2.85.01-.48.22-.98.15-1.45-.75-5.09 1.16-9.71 2.49-14.44.35-1.25.82-2.5.92-3.78.22-2.62 2.1-3.54 4.13-3.79 1.86-.23 3 1.15 3.81 2.88.65 1.39 1.47 3.02 2.69 3.76 3.09 1.88 4.9 5.85 9.14 5.84 3.01 0 6.02-.31 9.02-.19 7.21.3 14.15-.78 20.59-4.05 2.48-1.26 4.47-3.44 6.87-4.91 1.05-.65 2.8-1.14 3.74-.68.92.44 1.52 2.14 1.71 3.37.48 3.22.57 6.49 1.01 9.71.13.95 1.39 1.87 1.28 2.68-.19 1.34-1.09 2.59-1.87 4.28z"/><path d="m179.3 133.31c-.88 1.06-2.05 2.79-3.55 4.16-1.42 1.3-3.21 2.17-4.77 3.33-.94.7-1.73 1.6-2.61 2.39-.53.48-1.13 1.34-1.64 1.3-2.14-.16-4.34.92-6.36-1.29-4.37-4.8-9.91-7.94-16.09-10.03-4.32-1.46-8.56-.6-12.84-.05-.72.09-1.44.23-2.16.29-3.26.25-5.98 1.34-7.48 4.54-.15.32-1.09.64-1.31.48-.57-.41-1.23-1.04-1.35-1.68-1-5.12-1.09-10.48-4.18-15.01-1.75-2.56-.95-5.2 2.09-5.78 4.87-.93 9.8-1.53 14.71-2.23 3.85-.55 7.71-1.26 11.58-1.45 2.38-.12 4.79.69 7.2.96 1.67.19 3.36.09 5.03.27 1.06.11 2.48.14 3.06.8 1.98 2.25 4.66 2.66 7.27 3.41 7.37 2.11 12.79 7.45 13.4 15.61z"/><path d="m59.86 101.65c.83-4.65 1.66-9.29 2.56-14.36 2.15 1.29 5.02.75 5.81 3.88.12.47.93.99 1.5 1.1 3.73.76 7.47 1.57 11.25 2.02 1.17.14 2.45-.88 3.72-1.26 1.25-.38 2.72-1.11 3.77-.75.86.3 1.66 1.95 1.75 3.05.35 4.32.44 8.67.54 13 .01.44-.43 1.12-.84 1.29-.8.34-1.71.51-2.59.55-8.38.41-16.66-.07-24.71-2.74-.68-.23-1.41-.3-2.1-.45-.41.62-.83 1.26-1.41 2.14-1.44-2.23-1.12-4.09.4-6.02-4.71-.58-8.98.57-12.66 2.41-3.67 1.83-6.6 5.11-9.77 7.69.33.95.53 1.55.74 2.14-.67-.06-1.47.09-1.98-.22-.95-.58-1.86-1.33-2.58-2.19-2.41-2.85-4.69-5.75-8.68-6.61-2.15-.47-2.98-2.5-1.86-4.37 4.95-8.27 11.01-15.28 20.93-17.68 2.6-.63 5.21-1.31 7.85-1.61 1.03-.12 2.18.72 3.25 1.17.27.12.48.65.68.63 3.43-.35 2.61 2.38 2.72 4.05.22 3.52.04 7.07.12 10.6.02.87.44 1.73.68 2.59.31-.02.62-.04.92-.06z"/><path d="m116.51 135.54c-.64 1.12-.66 1.12-3.68-.77-3.59 4.32-8.98 5.3-14.03 7.06-6.27 2.18-12.66 1.94-19.01.87-6.08-1.03-12.08-2.53-18.11-3.85-1.49-.33-2.96-.76-4.46-1.09-2.98-.64-5.68-6.76-3.71-8.97 2.04-2.29 2.07-4.76 1.54-7.36-.46-2.23.53-3.22 2.46-3.74.62-.17 1.3-.23 1.86-.51 2.62-1.35 4.77-1.36 6.3 1.65.3.59 1.32 1.04 2.06 1.13 6.71.78 13.45 2.14 20.14 1.95 5.54-.16 11.24-1.38 16.32-4.2 2.92-1.62 5.15-.33 5.96 3.03.89 3.71.98 7.76 4.36 10.56.98.82 1.23 2.52 2 4.24z"/><path d="m122.93 107.53c.55-6.22 1.09-12.3 1.66-18.78 1.21.7 2.09 1.55 3.07 1.69 1.81.26 3.68.03 5.51.13 4.81.27 9.62.51 14.41.95 9.41.86 17.8-1.99 25.74-6.69 2.92-1.73 5.05-.6 5.48 2.68.17 1.29.94 2.51 1.51 3.73.2.42.67.71.97 1.1 3.75 4.84 3.26 7.85-1.54 11.61-3.23 2.53-7.08 3.46-10.8 4.79-7.31 2.61-14.94 2.65-22.5 2.64-6.63 0-13.27-.67-19.89-1.2-.75-.06-1.39-1.18-2.14-1.74-.57-.43-1.22-.76-1.48-.91z"/><path d="m63.39 50.08c-.8 4.14-1.71 9.33-2.85 14.47-.54 2.43-3.42 3.65-5.93 3.61-4.62-.07-9.25.32-13.88.42-1.42.03-2.84-.27-4.26-.41.32-1.63.11-3.7 1.05-4.82 3.58-4.29 4.43-9.32 4.5-14.55.06-4.41-.03-8.85-.62-13.21-.25-1.85-1.69-3.73-3.02-5.21-1.8-1.99-1.89-4.38.34-5.85 3.29-2.18 6.62-4.29 9.96-6.4 2.81-1.78 5.39-.9 7.54 2.11 4.19 5.85 5.7 12.45 6.04 19.48.15 3.09.67 6.16 1.14 10.36z"/><path d="m105.29 153.97c2.61.5 1.88 2.48 1.79 3.96-.13 2-.66 3.97-.95 5.97-.57 3.95-1.38 4.88-5.14 4.47-6.25-.68-12.15.64-17.89 2.77-2.79 1.03-5.44 2.52-8.02 4.02-.89.52-1.26 1.87-2.09 2.57-.88.73-2.17 1.74-3.01 1.54-1.07-.26-2.39-1.49-2.68-2.55-.63-2.28-1.35-4.19-3.72-5.2-.71-.3-1.17-1.24-1.69-1.93-.38-.5-.56-1.18-1.01-1.57-2.03-1.77-2.44-4.3-.55-6.12 3.75-3.62 7.36-7.55 11.65-10.41 3.24-2.16 7.37-3.49 11.27-4.05 5.7-.81 11.54-1.2 17.31.23.97.24 2.12-.3 3.46-.52 2.38 1.98 2.88 4.1 1.28 6.83z"/><path d="m94.14 73.43c-2.24-.45-4.43-.56-6.35-1.34-5.93-2.4-11.65-1.86-17.45.44-2.33.92-4.86 1.69-6.96-.84-.59.35-1.14.66-2.04 1.19-.2-.89-.63-1.67-.46-2.29.52-1.85 1.23-3.65 1.93-5.44 1.39-3.6 2.72-7.24 4.31-10.75.44-.97 1.62-2.1 2.59-2.24 6.12-.84 12.26-1.78 18.41-1.98 6.29-.21 12.23 1.69 17.25 5.61.76.6.83 2.82.43 4.03-1.07 3.22-2.62 6.28-3.87 9.45-.67 1.69-.99 3.52-1.68 5.21-.33.81-1.21 2.08-1.69 2.01-1.29-.17-2.55-.86-3.73-1.53-.39-.22-.46-.99-.69-1.53z"/><path d="m157.41 150.17c-.13 1-.32 2.45-.46 3.58-.74.09-1.53-.04-2 .29-1.19.83-2.29 1.82-3.34 2.84-4.15 4.01-8.91 6.35-14.85 6.21-6.32-.15-12.64-.07-18.96-.02-6.12.05-6.96-1.63-7.19-7.07-.11-2.51-.8-4.99-.92-7.49-.13-2.6.95-3.82 2.98-3.87.47-.01 1.11-.01 1.39.27 3.61 3.61 8.17 1.94 12.13 1.66 4.42-.31 8.76-2.06 13.06-3.42.89-.28 1.43-1.65 2.16-2.49.95-1.09 1.75-2.71 2.93-3.09 1.72-.55 3.2.48 3.93 2.42.28.73 1.33 1.13 1.91 1.79 1.76 2.02 3.45 4.09 5.18 6.13.58.68 1.19 1.32 2.05 2.28z"/></g></svg>