<svg viewBox="0 0 218.46 218.46" xmlns="http://www.w3.org/2000/svg"><g fill="#f7931e"><path d="m163.8 128.18c-.51.64-.66 1-.8.99-4.85-.19-5.71 3.64-6.71 6.97-1.27 4.24-1.02 8.62.33 12.82 1.04 3.22 3.24 5.59 6.53 6.79.23.08.44.23.63.38.11.09.15.27.36.69-5.52 2.12-11.01 4.22-16.49 6.33.06.22.13.44.19.66 5.38-.91 10.75-1.82 15.83-2.67.42 6.2.71 11.71 1.21 17.2.45 4.93.2 9.74-1.94 14.26-.99 2.09-2.26 4.04-3.53 5.98-1.14 1.75-2.79 1.63-4.58 1.05-1.54-.5-3.19-.7-4.72-1.22-3.64-1.23-7.25-2.58-11.01-3.93 3.92-5.31 4.6-11.24 4.45-17.3-.08-3.18.7-6.38-.36-9.58-.3-.9.42-2.14.69-3.32-1.95-2.91-3.9-6.09-6.13-9.06-2.18-2.89-1.9-6.29-2.5-9.52-1.22-6.53-.39-12.79 2.48-18.81 2.26-4.75 5.34-7.3 10.38-7.35.87 0 1.79.52 2.63.93 2.06 1.01 4.08 2.09 6.11 3.16.5.26 1.02.54 1.41.93 1.54 1.58 2.56 3.81 5.56 3.6z"/><path d="m164.31 32.57c-1.84.61-2.81.94-4 1.33 1.38 3.02-1.27 4.55-2.67 6.44-3.51 4.73-3.25 11.3.93 15.47 1.9 1.89 3.7 3.65 6.68 4.15 2.1.35.71 2.14-.07 2.98-1.32 1.43-2.9 2.62-4.36 3.92-1.4 1.24-3.2 2.26-4.12 3.79-1.57 2.64-3.68 1.88-5.45 1.08-3.77-1.7-7.76-3.34-10.85-5.96-1.98-1.68-2.86-4.97-3.64-7.71-1.24-4.32.23-8.53 1.4-12.68 1.31-4.67 2.46-9.41 4.2-13.91.91-2.33 2.67-4.56 4.6-6.2 1.33-1.13 1.62-3.98 3.99-3.34 1.71.46 3.32 1.62 4.72 2.79 2.83 2.36 5.48 4.94 8.64 7.84z"/><path d="m146.14 116.67c.36-1.29.56-2.31.94-3.25.32-.78.69-1.79 1.34-2.15 3.13-1.7 5-4.33 6.12-7.59.87-2.52 2.05-5.02 2.34-7.61.31-2.82-.22-5.73-.44-8.6-.08-1.05-.23-2.11-.53-3.11-.44-1.45-.8-3.01-1.62-4.23-1.41-2.1-1.4-2.83.64-4.26 2.44-1.7 4.84-3.46 7.23-5.23 1.5-1.11 5.03-.77 6.86 1.15 3.51 3.67 6.4 7.47 6.29 13.21-.17 9.22-2.41 17.78-6.11 26.09-.92 2.07-1.71 4.2-2.64 6.27-1.9 4.22-3.54 4.11-7.65 2.57-1.81-.68-3.45-1.89-5.29-2.38-1.9-.51-3.95-.42-5.94-.62-.54-.05-1.08-.18-1.56-.26z"/><path d="m119.49 155.05c-.44.22-.85.28-.97.5-3.21 5.94-9.66 6.83-14.94 9.45-3.44 1.71-7.14 3.37-10.89 3.89-4.29.6-8.76.02-13.13-.28-1.56-.11-2.8-.46-4.2.86-1.88 1.78-4.77.58-4.75-2.04.02-3.25.73-6.49 1.09-9.74.12-1.03-.04-2.11.17-3.11.28-1.33.42-3.07 1.3-3.78.9-.72 2.88-.96 3.95-.46 6.93 3.17 13.4 1.92 19.76-1.52 3.78-2.04 6.96-4.79 9.85-7.94.59-.64 1.38-1.28 2.18-1.46.58-.13 1.86.43 1.92.82.9 5.74 4.8 9.66 8.21 13.89.15.18.21.43.45.93z"/><path d="m174.47 123.42c-.05-.18-.28-1.03-.52-1.95-.63-.06-1.25-.12-1.81-.18-.13-.26-.27-.4-.26-.54.42-5.43 2.37-10.38 4.71-15.21.59-1.23 1.32-1.64 2.45-.63.06.05.11.14.18.16 3.62.86 7.21 1.87 10.87 2.49 1.23.21 2.63-.51 3.93-.9 2.07-.62 4.18-1.2 6.17-2.02 2.01-.84 3.95-1.89 5.84-2.97 1.14-.65 1.69-.45 2.28.72 1.49 2.95 2.86 6 4.76 8.68 1.77 2.51.6 4.48-.65 6.24-4.44 6.25-9.96 10.71-18.31 10.15-2.14-.14-4.4.3-6.5.85-3.6.94-7.21.5-10.83.47-.71 0-1.57-.11-2.09-.52-.63-.49-1.27-1.32-1.35-2.06-.08-.71.57-1.49 1.12-2.77z"/><path d="m31.53 139.81c1.23-4.75 4.75-7.03 8.06-9.51 1.69-1.27 3.3-2.64 5.07-3.79.53-.35 1.88-.44 2.11-.13 2.44 3.47 6.42 4.79 9.92 6.18 4.61 1.84 6.31 5.53 8.33 9.29.65 1.21 1.26 2.44 1.91 3.65.74 1.35 1.94 2.24.84 4.37-.89 1.72 0 4.28-.27 6.42-.47 3.55-2.74 5.46-6.22 6.2-2.2.47-4.36 1.09-5.57 3.44-.87 1.69-2.73 1.88-4.29 1.31-.74-.27-1.42-1.55-1.58-2.47-.48-2.71-.79-5.46-.97-8.2-.3-4.75-3.47-7.99-6.02-11.49-2.67-3.68-6.68-5.13-11.31-5.29z"/><path d="m131.24 110.7c-.09 8.64-1.22 17.05-5.37 24.83-2.37 4.43-4.63 5.09-8.91 2.5-2.15-1.3-4.36-2.5-6.61-3.61-3.18-1.57-3.39-2.81-1.32-5.81 5.37-7.81 7.06-16.1 2.69-24.98-.78-1.58-1.77-3.05-2.69-4.56-1.04-1.71-.22-2.78 1.38-3.07 4.09-.74 8.21-1.3 12.32-1.86.38-.05.9.23 1.22.51 4.78 4.18 7.71 9.23 7.27 15.81v.25z"/><path d="m53.44 89.88c-.74-.84-1.73-2.15-2.9-3.27-1.6-1.54-3.38-2.9-5.01-4.42-.79-.73-1.5-1.58-2.07-2.48-.51-.8-.79-1.76-1.36-3.08.92-.29 2.1-1.06 3.19-.93 4.42.51 7.6-1.48 10.65-4.35 1.86-1.76 4.38-2.81 6.29-4.53 4.22-3.78 7.16-8.32 7.36-14.25.02-.49.58-1.22 1.03-1.35.54-.16 1.35.05 1.85.38 3.03 2.04 5.91 4.31 9.02 6.2 1.31.8 2.06 1.55 1.83 3.02-.45 2.97-.92 5.95-1.53 8.9-.15.72-.76 1.41-1.32 1.96-3.87 3.78-7.86 7.43-11.65 11.28-3.13 3.17-7.01 4.53-11.2 5.45-1.3.29-2.54.89-4.18 1.49z"/><path d="m55.41 93.92c-2.58 1.14-4.73 2.3-6.03 5.13-1.19 2.61-3.92 4.48-5.49 6.97-3.41 5.4-2.98 9.38 1.02 14.39.53.67.94 1.43 1.55 2.36-1.01.46-1.7.9-2.45 1.09-3.87.95-7.76 1.79-11.63 2.75-3.52.88-5.32-.23-5.8-3.87-1.02-7.69-.9-15.37 2.06-22.63 1.51-3.7 4.1-6.95 5.98-10.52 1.24-2.35 2.48-1.99 4.63-1.14 5.19 2.04 10.57 3.61 16.15 5.46z"/><path d="m105.19 95.85c-1.51-1.05-2.83-2.12-4.29-2.95-4.49-2.56-9.24-4.34-14.51-3.97-1.42.1-2.79.73-4.21.93-1.23.17-2.89.56-3.63-.05-.72-.59-.89-2.39-.65-3.52.68-3.24 1.58-6.46 2.63-9.6.32-.95 1.24-2.13 2.12-2.39 5.82-1.7 11.79-1.54 17.74-.8 2.57.32 5.14.8 7.66 1.42 4.21 1.03 7.01 4.02 9.34 7.42.38.56.13 2.13-.4 2.64-3.82 3.68-7.78 7.21-11.79 10.87z"/></g></svg>