<svg viewBox="0 0 218.46 218.46" xmlns="http://www.w3.org/2000/svg"><g fill="#f7931e"><path d="m116.83 174.28c1.38 1.69 2.44 3.91 4.21 4.94 2.45 1.43 5.38 2.57 8.17 2.75 5.1.32 10.3.22 15.37-.45 3.11-.41 6.1-2.1 9.05-3.4 5.18-2.29 10.34-4.64 15.4-7.18 1.48-.74 2.6-2.2 3.87-3.34 2.3-2.05 5.19-1.45 5.62 1.53.5 3.44 2.75 5.63 4.55 8.16 1.56 2.19 3.46 4.14 5.11 6.27.27.35.23 1.29-.06 1.65-4.62 5.64-9.48 10.93-16.7 13.45-3.18 1.11-6.02 3.18-9.16 4.44-1.92.77-4.12 1.08-6.21 1.14-5.92.16-11.85.02-17.77.11-4.21.07-8.21-.56-12.25-1.92-4.48-1.5-9.22-2.21-13.85-3.29-2.33-.55-3.21-2.14-2.6-4.34 1.2-4.27 2.57-8.49 3.86-12.73.42-1.39.78-2.81 1.2-4.2.31-1.03.67-2.05 1-3.07.4-.17.79-.34 1.19-.51z"/><path d="m51.66 209.72c-4.09-3.71-7.74-7.05-11.43-10.36-.9-.81-1.82-1.63-2.87-2.21-3.2-1.8-3.59-3.75-.85-6.27 4.11-3.78 8.37-7.41 12.58-11.09 3.34-2.92 7.54-3.65 11.67-4.49 4.22-.86 8.45-1.82 12.73-2.12 5.67-.4 11.39-.48 17.07-.2 4.44.22 8.84 1.22 13.27 1.79 2.46.32 2.82.81 1.94 3.06-1.24 3.15-2.51 6.29-3.64 9.48-.48 1.36-.76 2.82-.9 4.25-.28 3.01-1.09 3.94-4.04 4.4-.63.1-1.21.54-1.84.58-1.27.09-3.19.54-3.73-.09-2.62-3.11-6.02-2.13-9.05-1.88-5.56.46-11.14 1.23-16.6 2.4-3.36.72-6.62 2.2-9.72 3.76-2.55 1.28-3.76 3.75-3.98 6.65-.04.59-.29 1.16-.6 2.37z"/><path d="m148.48 147.62c.1 6.98-1.82 12.03-5.03 16.72-1.17 1.71-1.75 3.83-2.79 5.65-.95 1.67-1.97 3.38-3.31 4.73-1.59 1.61-4.26 1.24-5.24-.79-1.2-2.49-3.01-3.56-5.62-4.05-2.2-.41-4.43-1.13-6.39-2.18-.96-.52-1.8-2.08-1.86-3.21-.05-.9 1.03-2.52 1.84-2.69 3.74-.77 4.56-3.72 4.74-6.58.24-3.72-.25-7.5-.52-11.24-.17-2.44-1.99-3.76-3.75-5.11-2.85-2.19-2.72-7.48.23-9.45 3.9-2.6 7.81-5.2 11.72-7.79 2.23-1.48 4.24-.63 5.66 1.07 1.75 2.09 3.07 4.54 4.6 6.82.86 1.27 1.81 2.49 2.65 3.78.62.95 1.44 1.92 1.61 2.97.66 4.18 1.09 8.39 1.45 11.34z"/><path d="m63.03 33.52c1.35.35 2.62.82 3.92 1 5.52.79 10.08-1.74 14.11-4.89 3.23-2.52 5.79-5.9 8.62-8.92.32-.34.6-.78.71-1.22.62-2.38 2.52-3.03 4.45-1.38 4.06 3.48 8.06 7.02 11.91 10.38-1.85 3.1-3.42 5.75-5 8.39.17.11.35.22.52.32 1.11-1.8 2.19-3.63 3.36-5.39.31-.47.9-.77 1.36-1.14.13.6.56 1.35.34 1.78-3.07 6.22-7.43 11.19-14.03 13.84-4.29 1.72-8.6 3.37-12.92 5-.98.37-2.04.79-3.04.74-4.03-.22-8.13-.22-12.05-1.07-2.82-.61-4.36-4.11-3.92-6.99.51-3.36 1.07-6.71 1.67-10.45z"/><path d="m92.63 171.55c.49-1.86.29-2.79-2.02-2.72-2.58.08-5.18-.43-7.77-.67-.53-.05-1.11.11-1.58-.07-1.22-.46-2.74-.78-3.45-1.69-.49-.63-.18-2.38.37-3.24 2.44-3.78 4.15-7.74 3.8-12.31-.34-4.43-.8-8.82-5.91-10.75-1.06-.4-1.81-1.61-3.24-2.96 2.02-.98 3.86-1.52 5.24-2.63 2.41-1.94 4.73-4.06 6.75-6.41 2.3-2.68 3.07-2.82 5.79-.53 1.97 1.66 4.1 3.18 6.31 4.52 3.67 2.22 5.25 5.74 6.01 9.61 1.31 6.63 1.66 13.28-1.15 19.71-1.19 2.72-2.29 5.47-3.48 8.19-1.19 2.71-2.25 3.08-5.66 1.95z"/><path d="m152.98 43.49c-.74-.58-1.48-1.16-2.23-1.74l.22.61c-1.06.35-2.13 1.01-3.19.99-6.81-.18-13.29 1.11-19.36 4.22-2.7 1.38-5.11 3.05-3.78 7.1-2.15-1.36-3.96-1.55-5.99-.55-.67.33-2.04-.06-2.74-.59-2.5-1.9-4.91-3.93-7.24-6.04-1.89-1.72-1.05-4.46 1.37-5.51 1.15-.5 2.36-1.35 3.02-2.38 2.12-3.29 4.75-5.83 8.33-7.54 4.01-1.92 7.73-4.51 12.3-5.05 1.7-.2 3.42-.19 5.12-.42 1.24-.16 2.5-.42 3.66-.86 2.32-.87 6.39 1.08 7.1 3.53 1.32 4.56 2.63 9.12 3.94 13.68-.18.18-.36.36-.54.54z"/><path d="m155.14 84.86c-.02-5.11.55-5.68 4.27-4.89 3.97.85 7.88 1.98 11.84 2.89 1.59.37 1.62 1.05 1.16 2.46-1.14 3.46-1.86 7.06-3.09 10.48-1.76 4.9-5.49 8.05-9.93 10.63-3.89 2.26-8.27 2.72-12.39 4.12-.98.33-2.11.59-2.82 1.26-2.64 2.47-6.36.03-6.91-2.52-.42-1.93-.32-3.81-2.8-4.62-.63-.21-1.22-2.35-.89-3.27.4-1.11 1.64-2.25 2.79-2.69 2.63-1.01 5.41-1.68 8.16-2.36 3.49-.86 5.87-3.05 7.6-6.06 1.22-2.12 2.37-4.28 3-5.43z"/><path d="m56.07 48.46c-.42 1.45-1.2 2.91-1.17 4.35.05 2.49.22 5.11 1.01 7.44 2.75 8.04 7.61 14.02 16.42 16.04 1.16.27 1.97 2.06 2.67 2.84-2.3 2.89-4.35 5.51-6.46 8.08-.26.32-.81.59-1.21.58-3.51-.12-7.04-.14-10.52-.58-1.23-.16-2.43-1.27-3.47-2.14-4.67-3.9-7.87-8.94-10.16-14.43-1.28-3.07-1.46-6.61-2.14-9.94-.16-.79-.35-1.57-.47-2.37-.25-1.56.25-2.73 1.92-3.05 4-.76 6.62-3.74 9.74-5.94.97-.68 2.12-1.11 3.18-1.66.22.26.44.53.66.79z"/><path d="m105.4 90.98c.34.46.78.8.87 1.22 1.07 5.07 5.15 7.36 9.14 9.44 2.61 1.36 5.32-.18 7.79-1.4.57-.28 1.04-.76 1.61-1.04 2.91-1.39 2.86-1.36 4.15 1.67 1.08 2.54 2.26 5.03 3.47 7.51.77 1.59.51 2.49-1.14 3.46-3.53 2.09-6.83 4.57-10.31 6.76-4.76 3-9.57 1.59-14.19-.34-2.33-.97-4.44-2.5-6.6-3.85-1.68-1.05-2.27-2.47-1.09-4.3 2.43-3.74 2.7-7.92 2.53-12.21-.03-.74.14-1.6.52-2.23.93-1.54 2.04-2.97 3.25-4.7z"/><path d="m161.52 72.49c-6.95.06-11.85-1.94-15.16-7.26-1.05-1.68-2.66-3-3.82-4.62-2.54-3.54-1.91-6.3 1.69-8.68 2.09-1.38 4.02-3.03 6.16-4.32.65-.39 2.31-.35 2.6.1 4.35 6.55 10.89 7.97 18.08 8.04h.99c4.2 0 4.31.03 3.24 3.91-.84 3.02-1.9 5.98-3.01 8.92-.77 2.05-2.37 3.23-4.59 3.43-2.36.21-4.73.37-6.17.49z"/><path d="m84.05 117.36c-.69-.3-2.03-.81-3.31-1.45-3.92-1.94-7.98-3.66-11.67-5.97-3.4-2.13-5.02-5.9-6.78-9.39-.52-1.04-1.35-2.75-.95-3.23.71-.84 2.27-.97 3.47-1.41 1.99-.72 4.09-1.24 5.94-2.22 1.6-.85 2.99-2.16 4.36-3.38.86-.77 1.99-1.74 2.32-.1.51 2.54 2.49 3.65 4 5.22 2.49 2.6 5.65 3.81 9.24 4.18 1.46.15 2.95.73 2.62 2.78-.48 3.04-.89 6.1-1.44 9.13-.59 3.28-3.82 5.89-7.8 5.83z"/></g></svg>