<svg viewBox="0 0 218.46 218.46" xmlns="http://www.w3.org/2000/svg"><g fill="#0009b9"><path d="m68.59 65.35c.42 2.8 1.49 5.56 1 8.01-.47 2.34-2.55 4.37-3.92 6.53.12.19.24.38.36.57 1.77-1 3.61-1.89 5.29-3.04 1.58-1.08 2.97-2.43 4.45-3.65.31-.26.64-.53 1.01-.68 3.56-1.47 5.05-.44 4.68 3.47-.4 4.24-2.43 7.66-6.19 9.74-1.38.76-1.76 1.63-2.23 3.05-1.94 5.95.68 10.81 3.58 15.47 1.66 2.65 4.18 4.76 6.3 7.12 1.08 1.21.29 5.12-1.17 5.29-1.55.18-3.2.11-4.73-.21-5.76-1.19-9.52-5.09-12.8-9.64-.34-.47-1.15-.71-1.78-.81-.24-.04-.6.59-.9.91.47.43.93.86 1.41 1.28.35.3.83.5 1.07.86 1.48 2.23-.44 6.76-3.09 6.78-6.6.05-13.29-4.29-11.56-12.71.7-3.39 3.05-4.45 6.8-4.4-.77-1.08-1.17-1.89-1.79-2.45-1.78-1.62-3.43-3.24-3.37-5.92 0-.33-.7-.8-1.17-.99-2.9-1.16-5.92-2.07-8.71-3.44-1.81-.89-1.99-4.58-.64-6.3 1.29-1.64 3.49-1.71 5.47-.22 2.18 1.64 4.46 3.14 7.36 2.64.6-.1 1.19-.84 1.55-1.43.1-.16-.58-1.1-1.04-1.25-1.72-.56-2.65-1.75-2.94-3.42-.9-5.34-.2-10.06 6.52-11.92 2.57-.71 5.23-1.08 8.01-1.63-.44-1.64-.09-3.39 1.26-5.24 1.27-1.74 2.76-2.77 4.62-3.6 3.18-1.41 6.45-2.7 9.41-4.49 1.76-1.06 3.01-2.96 4.47-4.5.23-.24.34-.67.61-.8 2.69-1.37 2.08-3.86 2.21-6.2-2.59-.2-5.15-.24-7.65-.64-1.35-.21-2.62-.98-3.9-1.55-1.87-.84-2.09-2.62-1.22-3.92.76-1.12 2.44-2.24 3.74-2.27 4.08-.1 8.16.32 12.25.53.63.03 1.26 0 2.22 0-3.14-3.47-4.02-8.37-2.31-11.45 2.08-3.73 6.69-6.03 11.69-4.45 3.7 1.16 4.65 5.35 5.84 8.98.26-.11.71-.16.95-.41 2.12-2.28 4.11-4.68 7.18-5.85.35-.13.52-1.38.38-2.03-.98-4.73 3.36-10.3 6.51-11.14 3.01-.81 6.39-.61 8.65 1.73 2.73 2.82 3.74 6.36 1.98 10.3-1.54 3.45-4.5 5.07-8.54 4.37-1.83-.32-3.65-.75-5.19-1.07-1.16 2.95-2.12 5.86-3.47 8.59-.63 1.27-1.92 2.28-3.09 3.19-2.49 1.93-5.03 3.56-5.15 7.35-.05 1.72-1.42 3.5-2.49 5.05-.93 1.36-.58 1.91.74 2.43 3.12 1.24 3.66 2.92 1.83 5.72-2.67 4.07-5.22 8.26-9.79 10.57-1.66.84-3.3 1.72-5.01 2.41-1.75.7-2.97-.36-3.81-1.7-.82-1.3-.31-2.38.74-3.49 1.01-1.06 1.72-2.43 2.42-3.74.18-.34-.05-1.3-.32-1.41-.83-.34-1.94-.79-2.65-.5-1.36.55-2.76 1.38-3.73 2.46-4.96 5.56-11.75 7.3-18.2 9.17zm55.22-58.9c.88 1.89-.67 2.17-1.77 2.74-2.22 1.14-2.49 1.84-1.74 4.29 1.48 4.83 2.88 4.12 7.04 4 2.45-.07 4.58-1 5.07-3.81.42-2.4.15-4.49-1.86-6.39-2.19-2.05-4.35-1.41-6.73-.83zm-65.53 59.74c-3.33.58-5.46 2.36-5.39 4.4 1.77-1.44 3.65-2.97 5.39-4.4zm39.29-50.13c2.16.58 4.32 1.15 6.72 1.8-1.74-3.44-4.62-1.33-6.72-1.8z"/><path d="m83.24 139.4c0-1.99-.07-3.78.02-5.56.17-3.33 2.66-4.7 5.51-3.09.18.1.34.27.53.31 3.01.54 3.9 2.49 3.55 5.29-.04.34.02.69.04 1.04 0 .06.06.12.21.38.83-.12 1.88-.6 2.62-.3 1.62.64 3.18 1.55 4.57 2.6 1 .76 1.54.86 2.39-.14.94-1.11 2.07-2.05 3.13-3.05 1.24-1.17 2.64-1.25 4.15-.6 1.55.67 3.1 1.33 4.63 1.99 1.89-3.29 3.62-4.32 5.74-3.15 1.11.61 1.91 1.77 2.91 2.61 1.46 1.21 4.77.69 5.88-.85.36-.5.76-.97 1.14-1.45 2.79-3.54 6.63-1.55 8.83 1.15.53.65 1.42 1.6 1.99 1.51.9-.15 1.84-.93 2.47-1.69.93-1.11 1.38-2.36.85-3.99-.47-1.47 1.34-3.19 3.15-3.36 4.24-.41 6.22 2.21 4.71 6.22-.12.32-.19.67-.36 1.28 3.6-.99 3.03 3 5.05 4.05-.59-1.26-1.35-2.47-1.71-3.79-.45-1.6-.13-3.18 1.47-4.1 1.68-.97 2.97-.3 4.18 1.02.33.36 1.17.38 1.77.36.8-.03 1.63-.46 2.37-.33 1.73.3 3.41.87 5.12 1.27 2.28.53 3.63-.67 3.27-2.99-.28-1.81 0-3.26 1.76-4.1 2.16-1.03 4.48-.8 5.75.71.58.69.81 1.66 1.28 2.71 4.27 1.39 8.76 2.95 7.9 9.72 2.17-.4 4-.95 5.84-1.01 1.26-.04 2.56.55 3.79.99.2.07.28 1.17.22 1.19-1.15.35-2.33.83-3.5.84-2.05.01-4.1-.32-6.16-.4-.46-.02-1.02.3-1.39.63-1.28 1.12-2.5 2.31-4.03 3.73.36 3.11-.79 4.23-4.51 4.6-3.36.33-5.77-1.24-8.31-2.97-.75-.52-2.09-.73-2.94-.44-1.72.57-3.29 1.61-4.94 2.41-1.76.85-3.48 1.92-5.35 2.37-.85.21-2.54-.61-2.88-1.39-.46-1.05-.37-2.72.2-3.73.57-1.03 2.01-1.59 3.05-2.37.67-.5 1.3-1.05 1.95-1.57-.06-.25-.11-.5-.17-.75-1.53-.29-3.06-.58-4.31-.81-.74 1.68-1.06 3.43-2.09 4.48-.99 1.01-2.71 1.29-4.36 2v4.24c.02 2.04-1.22 3.87-2.96 4.21-1.76.34-3.23-.19-3.89-1.93-.28-.75-.12-1.7-.06-2.55.06-.88.25-1.76.43-2.96-1.36-.29-2.64-.56-4-.85-.05.47-.13.75-.1 1.01.4 3.44-.44 4.45-3.93 4.3-1.49-.06-3.01-.36-4.43-.82-2.63-.85-2.94-2.88-1.04-5.87-1.08-1.77-2.73-1.87-4.62-2.01-3.02-.22-6.12-.52-8.55-2.82-.22-.2-1.28.1-1.61.47-2.61 2.97-5.42 5.69-9.29 6.88-2.21.68-4.47-.8-5.99-3.55-1.94 2.08-4.06 3.76-7 2.97 0 1.82.04 3.6 0 5.38-.06 2.36-1.1 3.64-2.96 3.78-1.57.11-3.7-1.54-4.04-3.22-.19-.94-.19-1.91-.3-2.86-.1-.88-.23-1.75-.36-2.78-1.54.44-3.09 1.41-4.37 1.14-4.52-.97-7.86 1.11-11.3 3.47-2.12 1.45-4.48 2.61-6.85 3.65-1.45.64-2.81.03-3.58-1.47-.97-1.88-.37-4 1.51-4.94 2.02-1.01 4.12-1.86 6.17-2.82.74-.34 1.48-.73 2.08-1.26.11-.1-.34-1.3-.66-1.37-2.12-.43-3.6-1.67-4.9-3.29-.44-.55-1.6-.94-1.58-1.36.11-2.08.28-4.22.92-6.18.27-.82 1.76-1.78 2.65-1.73 1.1.06 2.23.99 3.17 1.76.53.44.66 1.35 1.03 2.01.91 1.63 1.97 2.43 4.15 2.04 2.59-.46 5.32-.14 7.99-.16h1.29zm103.83 1.18c.5 0 1.19.01 1.19 0 .05-1.36.05-2.73.05-4.09-.18 0-.35-.01-.53-.02-.23 1.3-.45 2.61-.71 4.11z"/><path d="m93.85 108.12c.16-.57.29-1.07.42-1.53.29 0 .52-.05.55 0 1.18 2.44 3.63 1.82 5.61 2.4 4.99 1.48 7.42-2.5 10.66-4.81.94-.67 1.94-1.68 2.94-1.7 1.12-.03 2.53.63 3.34 1.46 1.02 1.04.66 2.46-.37 3.54-.83.87-1.69 1.71-2.2 2.22 1.54 1.26 3.4 2.1 4.05 3.5.67 1.43.15 3.41.15 5.47h10.95c-4.59-.31-7.42-3.23-9.75-6.68-.52-.77-.56-2.45-.05-3.18.59-.85 2.31-1.82 3.03-1.53 3.2 1.32 6.46.61 9.67.88.86.07 1.69.46 2.54.68.62.15 1.35.52 1.86.34 4.54-1.62 8.93-3.71 12.47-6.95 1.37-1.25 1.77-3.67 2.38-5.63.71-2.3 2.54-3.79 4.44-3.29 2.2.57 3.1 2.35 2.49 4.91-.37 1.52-.76 3.04-1.04 4.15 2.59.85 5.05 1.36 7.24 2.43 2.67 1.31 1.77 4.13 2.18 6.72.75-.31 1.53-.58 2.27-.95 1.87-.93 3.37-.51 4.53 1.36 1 1.61.11 2.95-1.01 3.82-2.21 1.7-4.49 3.5-7.03 4.55-2.41 1-5.19 1.21-7.82 1.58-4.28.61-8.61.89-12.86 1.65-2.25.4-4.44 1.38-6.52 2.38-3.73 1.77-7.54 3.34-11.72 2.61-2.68-.47-5.35-1.39-7.82-2.54-.85-.4-1.22-2.06-1.58-3.22-.21-.66.04-1.47.09-2.28-2.69 1.17-2.98 1.95-1.66 3.99.86 1.32.55 3.23-.88 3.97-3.02 1.55-6.17 2.06-9.28.26-1.64-.95-3.13-2.17-4.8-3.06-.71-.38-1.82-.52-2.55-.25-3.79 1.42-7.53 2.54-11.65 1.38-.89-.25-2.02.28-3.03.48-2.64.52-5.19.21-7.63-.9-2.07-.94-2.57-2.71-1.19-4.51 1.78-2.34 4.29-3.38 7.16-3.22 2.69.15 3.87-1.74 4.81-3.54.9-1.73-.29-3.33-1.62-4.56-2.08-1.91-3.91-3.86-3.74-7.01.09-1.65 1.08-3.02 2.76-3.19 1.71-.18 3.37 1.13 3.54 2.77.29 2.9 2.42 4.83 5.7 5.03z"/><path d="m124.43 197.96c-.25 2.17-.17 3.98-.72 5.56-.76 2.2-2.18 4.11-2.54 6.56-.12.84-1.89 2.01-2.88 1.99-1.02-.02-2.37-1.11-2.94-2.1-.64-1.11-.73-2.63-.76-3.98-.08-4.71-.03-9.42-.03-14.28-.28.07-1.06.14-1.07.27-.17 2.15-2.24 2.31-3.48 3.21-1.8 1.31-5.49-.77-5.73-3.42-.26-2.83-.17-5.76.25-8.57.59-3.92 3.72-5.92 6.86-7.76.76-.44 1.54-.84 2.39-1.29-.99-1.76-1.99-3.39-2.85-5.08-1.85-3.65-1.49-5.56 1.84-7.97 1.53-1.11 3.35-1.88 5.14-2.53.93-.34 2.08-.06 3.23-.06.41-2.08-.88-3.3-2.25-4.44-.88-.74-1.92-1.29-2.78-2.05-1.7-1.48-1.52-3.68.6-4.48 1.82-.69 3.89-.77 5.86-.97.4-.04 1.01.46 1.27.88 2.28 3.64 4.63 7.24 6.7 10.99 2.52 4.56 1.08 12.92-2.59 16.59-.62.62-1.3 1.32-1.57 2.11-.41 1.21-.27 2.23 1.5 2.45 2.79.34 5.28 3.03 5.42 5.88.09 1.84-.3 3.7-.46 5.55-.12 1.44.02 2.96-.38 4.31-.5 1.67-1.14 3.47-2.28 4.72-1.19 1.31-2.71.49-3.89-.68-.51-.5-1.14-.87-1.87-1.42zm.73-7.85c-.17-.01-.35-.02-.52-.04-.58 1.66.21 3.39 0 5.07l.53.03v-5.06z"/><path d="m120.65 56.33c-2.79 1.14-5.59 2.45-8.52 3.37-.95.3-2.4-.13-3.31-.72-1.14-.74-1.43-2.24-.44-3.3 1.57-1.68 3.39-3.13 5.12-4.65.25-.22.61-.31.91-.46 1.21-.63 2.93-.99 3.46-1.98.41-.77-.65-2.34-1.05-3.55-.96-2.9.71-4.92 2.48-6.77 1.22-1.27 2.68-2.36 4.17-3.34 2.6-1.71 7.63-1.19 8.94 3.03.36 1.15 1.07 2.19 1.85 3.73.65-.81 1.18-1.52 1.76-2.18 1.24-1.43 2.42-2.94 3.79-4.24 1.92-1.83 4.67-.4 5.56 1.56 1.37 3.02.33 6.51-2.38 8.43-1.47 1.04-2.96 2.09-4.27 3.32-.41.38-.6 1.68-.3 1.99.62.64 1.8 1.42 2.46 1.21 4.71-1.51 9.5-.79 14.24-.63 2.37.08 3.57 1.82 3.37 3.86-.18 1.81-2.17 3.54-4.2 3.51-1.44-.03-2.9-.14-4.32-.39-3.38-.59-5.79 1.55-5.55 4.81 1.44.32 2.87.49 4.17.98 1.59.6 2.07 2.13.96 3.31-3.69 3.88-8.11 6.4-13.65 6.17-2.41-.1-4.01-1.91-3.71-4.02.1-.72.84-1.33 1.13-2.05.35-.88.83-1.88.69-2.74-.08-.47-1.29-1.04-2.02-1.08-5.15-.25-6.02-1.79-11.31-7.17zm14.13-5.48c-.42.45.23 1.21 3.84 2.6-1.5-1.02-2.67-1.81-3.84-2.6zm-4.92-13.44.13-.56c-1.42-.74-2.69-2.21-4.56-.69 1.48.42 2.96.84 4.43 1.25z"/><path d="m178.87 78.51c.63.79 1.31 1.55 1.89 2.37 2.62 3.69 2.43 7.67 1.28 11.8-.59 2.12-1.69 3.75-3.64 4.77-1.48.78-2.94 1.35-4.08-.6-.19-.34-.79-.44-1.35-.72.49-2.16.99-4.34 1.53-6.69-1.88-.03-2.78.77-3.2 2.13-.32 1.05-.51 2.13-.74 3.21-.56 2.7-2.68 4.52-5.38 4.59-2.28.06-3.77-1.9-2.89-4.02.71-1.7 1.75-3.25 2.52-4.93 1.6-3.47 1.78-4.79-1.97-7.34-.95-.65-1.59-1.77-2.54-2.88.22.03.01-.06-.04 0-2.16 2.21-4.56 3-7.59 1.72-.67-.28-1.82.31-2.65.71-1.89.92-3.73 1.45-5.72.33-2.73-1.53-2.97-4.89-.37-6.61 1.52-1.01 3.13-1.98 4.83-2.6.77-.28 1.88.33 2.83.57.77.2 1.53.67 2.29.65 1.21-.03 1.55-.75.86-1.83-2.47-3.87-.66-9.42 3.66-11.27 4.23-1.81 8.63-.42 11.08 3.49 1.42 2.27.73 5.21-1.65 6.98 1.38 1.16 2.16.97 2.72-.97 1.4-4.85 4.86-7.24 9.53-8.16 2.13-.42 4.29-.47 5.77 1.68 1.12 1.62.66 3.49-1.04 4.48-2.29 1.34-4.55 2.74-6.74 4.24-.36.25-.51 1.13-.42 1.65.2 1.12.63 2.2.96 3.3.09-.01.19-.03.28-.04z"/><path d="m43.11 136.13c.32-2.49.39-4.4.86-6.21.5-1.92 3.18-3.38 5.08-2.88 1.31.35 2.66.87 3.74 1.66.57.42.8 1.57.83 2.41.06 1.34.15 2.01 1.78 1.31 2.94-1.26 5.11.78 5.08 3.99-.03 3.92-3.04 4.61-5.52 6.01-.31.17-.67.25-1.07.87.92.29 1.82.6 2.75.86 1.77.51 2.46 1.86 2.14 3.46-.96 4.82-1.59 9.74-4.3 14.07-1.55 2.48-3.38 3.21-5.49 1.72-1.43-1-1.5-2.17-.89-3.72.94-2.41 1.71-4.9 2.44-7.38.2-.69.03-1.49.03-2.39-3.97 1.29-7.39 2.91-9.65 6.44-.69 1.08-1.93 1.81-2.89 2.74-.31.3-.6.68-.77 1.08-.88 2.06-2.48 2.97-4.17 2.32-1.84-.7-3.24-3.03-2.32-4.72 1.49-2.72 3.34-5.26 5.26-7.7.95-1.2 2.45-1.95 3.63-2.98 1.41-1.23 1.29-2.67-.33-3.35-1.55-.65-4.16-.67-4.6-1.69-.7-1.63-1.65-2.83-2.78-4.06-1.67-1.81-1.76-4.17-.3-5.54 1.56-1.46 4.58-1.21 6.27.22 1.53 1.3 3.34 2.28 5.16 3.49z"/></g></svg>