<svg viewBox="0 0 218.46 218.46" xmlns="http://www.w3.org/2000/svg"><g fill="#0009b9"><path d="m114.57 42.17c1.93-.13 2.72-1.11 2.92-3.01.1-1 .9-1.96 1.47-2.88.16-.26.61-.33.91-.53.91-.59 2.39-1.86 2.62-1.67 1.12.95 2.2 2.18 2.74 3.54.94 2.36 1.08 4.92-.53 7.11-1.72 2.33-3.64 4.52-5.56 6.88v8.69c1.48.69 3.29 1.23 4.69 2.29.92.7 1.64 2.12 1.79 3.3.6 4.73-.37 9.28-1.82 13.79-.51 1.59-1.58 2.39-2.89 2.21-1.05-.14-2.36-1.02-2.88-1.95-.8-1.45-1.02-3.22-1.47-4.81-2.17-1.22-3.67.57-4.56 1.74-2.31 3.01-5.2 5.29-8.03 7.7-.27.23-.34.7-.6 1.25.43.09.67.17.92.18 4.35.21 4.89.64 5.98 4.79 1.18 4.45-2.97 12.27-7.5 13.17-3.28.65-6.77.43-10.15.22-1.01-.06-1.96-1.39-2.91-2.17-.41-.34-.74-.77-.78-.82-1.21 2.5-2.12 4.99-3.55 7.13-1.37 2.05-3.13 3.92-5.04 5.47-.78.63-2.6.65-3.6.19-1.53-.7-2.14-2.3-1.32-3.99.58-1.2 1.38-2.29 2.06-3.44.33-.56.6-1.14.96-1.81-3.64-.94-6.62-.08-9.22 1.99-.8.64-1.21 1.85-1.64 2.87-.55 1.28-.97 2.62-1.38 3.96-.67 2.19-2.3 2.89-3.99 2.91-.65 1.21-1.37 2.14-1.66 3.19-.26.96.24 2.17-.13 3.04-1.1 2.61-.1 4.3 2.3 5.83.68-.76 1.35-1.65 2.17-2.38 1.09-.96 2.2-2 3.48-2.63 1.44-.71 2.74.03 3.7 1.25.94 1.2 1.15 2.51.1 3.69-1.69 1.91-3.33 3.92-5.3 5.52-2.95 2.4-3.8 5.29-2.89 9.13.83-.25 1.73-.38 2.5-.76 2.98-1.46 3.45-1.35 5.67.43 2.06 1.65 1.52 3.37.59 5.26-.08.17-.01.42-.01.76 1.96-.09 3.91-.19 5.86-.26 1.08-.04 2.81.39 3.1-.09.76-1.25 1.07-2.86 1.2-4.37.13-1.46-.22-2.95-.31-4.44-.11-1.79-.24-3.73 1.65-4.66 1.63-.81 4.92.85 6.02 2.6 1.42 2.26 1.41 4.7 1.1 7.2-.09.74-.2 1.49-.38 2.89 3.02-.59 6.46-.27 8.01-1.84 1.65-1.66 2.26.02 3.19-.23 3-.84 6.6.04 8.79-3.28 1.04-1.58 2.69-2.49 4.79-1.54 2.02.92 2.49 2.37 2.41 4.55-.1 2.78-1.69 4.52-3.56 5.96-1.27.97-1.45 1.73-.82 2.99 1.55 3.11.88 6.5 1.09 9.76.1 1.65-.52 3.33-.68 5.01-.17 1.87-1.06 3.08-2.91 3.37-1.88.3-3.13-.67-3.74-2.41-.28-.79-.67-1.69-.55-2.46.44-2.69-1.24-4.57-2.38-6.64-.24-.44-1.02-.76-1.58-.8-1.34-.12-2.7-.04-4.29-.04.6 1.59 1.38 2.96 1.59 4.42.27 1.84.39 3.81.01 5.61-.41 1.96-2.47 2.6-4.39 1.87-.96-.36-1.98-.67-2.99-.74-2.28-.16-2.9-.77-2.72-3.05.21-2.6.45-5.19.69-7.98-2.01.18-3.62.26-5.2.5-.34.05-.75.57-.89.96-1.29 3.68-4.39 5.15-7.74 6.06-3.07.84-7.06-2.23-7.44-5.38-.21-1.74-.75-3.47-.75-5.2 0-1.65.51-3.3.72-4.54-4.03-.27-7.89-.54-12.36-.84.97 2.1 1.69 4.18 2.84 5.99 1.33 2.09.53 5.35-1.7 6.43-3.48 1.68-6.43-.3-7.68-3.19-1.96-4.5-1.68-9.13-1.45-13.8.05-.91.2-1.81.35-3.07-2.21.88-4.12 1.66-6.06 2.39-1.63.62-3.05.3-4.25-1.03-1.74-1.94-1.49-4.28.87-5.42 1.63-.79 3.47-1.28 5.26-1.56 2.56-.4 3.34-2.23 4.11-3.94-2.01-.53-4.01-.71-5.66-1.56-4.41-2.25-5.31-6-2.82-10.24 1.81-3.08 4.26-5.48 7.45-7.08.38-.19 1.04.15 1.55.29 1.68.47 3.35.95 5.2 1.49.14-4.17 2.84-6.71 4.89-9.61 1.68-2.39 4.01-4.67 1.62-7.93-.19-.26.16-.86.03-1.22-.24-.67-.54-1.69-1.02-1.83-2.22-.65-4.52-1.05-6.79-1.53-.76-.16-1.54-.19-2.28-.41-1.58-.47-2.23-1.63-2.18-3.24.04-1.71 1.15-2.73 2.58-2.96 5.37-.85 10.66-1.01 15.2 2.84.68.58 1.68.79 2.36 1.38 3.08 2.7 6.33 2.65 10.08.53-.53-.77-.91-1.71-1.61-2.27-2.17-1.75-3.01-3.56-2.17-5.13.99-1.83 3.96-2.99 6.09-2.37 3.47 1.02 6.11 4.14 6.53 7.72.05.4.15.79.36 1.82 2.6-2.76 4.07-6.3 7.72-6.72 0-1.94-.06-3.72.04-5.48.03-.47.48-.98.86-1.36 2.32-2.38 4.57-4.83 7.04-7.06 3.43-3.09 2.21-7.06 2.2-10.76 0-1.33-4.21-3.93-5.58-3.56-.75.2-1.96 1.15-1.88 1.56.26 1.34.67 3.03 1.64 3.75 1.42 1.04 2.69 1.91 2.37 3.8-.3 1.73-2.15 2.73-4.28 2.69-4.31-.09-6.89-3.01-8.81-6.16-.76-1.25 0-3.9.81-5.54 1.16-2.35 3.02-4.35 4.56-6.52.41-.58.77-1.19 1.24-1.93-1.15-.14-1.94-.24-2.73-.34-.03-.18-.05-.36-.08-.55.5-.29 1-.58 1.37-.79-.88-1.98-1.79-3.99-2.9-6.47-.81-.45-1.74.03-2.97.95-2.38 1.77-4.93 3.43-7.65 4.59-2.37 1.01-2.76 2.42-2.24 4.44 1.81.43 3.55.84 5.3 1.25 1.6.38 2.89 1.03 3.16 2.92s-.77 3.13-2.2 3.76c-2.57 1.12-5.24 2.06-7.95 2.75-2.99.76-6.06 1.28-9.12 1.65-1.99.24-3.68-.47-4.73-2.46-1.12-2.12.35-3.47 1.18-5.04.6-1.15 1.21-2.3 1.9-3.59-1.68-.68-2.8-1.33-4-1.54-.68-.12-1.59.37-2.23.82-2.51 1.76-4.95 3.63-7.44 5.42-3.78 2.72-8.4 3.35-12.65 4.86-1.56.55-3.63.93-4.58-1.25-1-2.29.13-4.97 2.27-6.07 2.25-1.15 4.59-2.2 6.61-3.67 1.34-.97 2.19-2.6 3.15-3.8-2.9-1.5-5.46-2.83-7.89-4.09.35-2.42.47-4.67 1.03-6.79.83-3.14 2.18-6.03 4.46-8.52 2.42-2.62 5.24-2.36 8.03-1.46 4.13 1.33 6.7 4.11 6.45 9.26.96-.63 1.74-.95 2.24-1.52 1.88-2.18 3.74-4.39 5.48-6.67 1.44-1.89 3.77-2.84 6-2.21 1.55.44 2.33 3.23 1.08 5.09-1.35 2-3.13 3.71-4.7 5.57-.37.44-.66.95-1.06 1.55 2.41 1.11 4.64 1.29 6.82.43 3.73-1.48 7.43-3.02 11.08-4.69 2.46-1.12 4.83-2.41 7.67-2.07 2.09.25 2.62.99 2.04 3.46 1.45-1.15 2.65-2.11 3.85-3.07 2.28-1.84 4.93-2.77 7.81-2.89 3.37-.14 5.43 2.03 5.8 6.21.2 2.23.03 4.5.03 6.74zm-22.02 121.44q-.65 5.79.69 5.75c.14-.83.11-1.7.45-2.38.78-1.56 0-2.4-1.14-3.37zm12.91-131.75c2.21.45 4.59.94 6.84 1.4-1.34-2.29-4.18-2.87-6.84-1.4zm9.31 35.37c.04.22.08.45.12.67 1.41.45 2.82.9 4.24 1.35-.19-1.03-.65-2.1-1.38-2.32-.88-.27-1.98.17-2.98.3z"/><path d="m183.44 133.97c.74.49 1.19.78 1.92 1.25-1.74 2.46-3.43 4.84-5.27 7.43 2.97.29 5.36.41 7.7.81.67.11 1.37.94 1.76 1.6.77 1.33 1.53 2.72 1.94 4.19.45 1.62.27 3.29-1.4 4.33-1.39.86-2.76.71-3.86-.42-.59-.61-.85-1.53-1.31-2.41-.64-.06-1.42-.12-2.19-.22-1.08-.13-2.78-.78-3.12-.36-1.21 1.56-2.18 3.4-2.81 5.28-.55 1.64-.54 3.47-.78 5.22.11.07.24.21.34.19 1.93-.35 4.17-1.2 5.4.96 1.45 2.55 3.51 5.21 1.37 8.43-.87 1.31-1.61 2.57.49 3.59.46.22.54 1.21.93 2.16 1.05 0 2.34-.13 3.58.04 1.08.15 1.96.54 1.38 2.12-.33.89-.1 2.07.13 3.05.48 2.04-.36 3.39-1.99 4.39-1.67 1.02-3.32.57-4.36-.83-1.11-1.5-2.48-1.76-4.15-1.91-.38 2.9-.66 5.7-1.14 8.47-.26 1.5-.82 2.96-1.34 4.41-.43 1.19-1.37 2.23.01 3.54.64.61-1.71 4.38-2.85 4.76-1.65.56-3.93-.64-4.2-2.5-.5-3.33-.75-6.7-1.13-10.25-1.02.42-2.16.9-3.31 1.38-1.78.74-2.36.19-2.78-1.69-1.11-4.95 1.67-8.35 4.25-11.59-2.65-1.64-5.26-3.22-7.84-4.86-2.12-1.35-3.05-3.46-2.61-5.47.36-1.61 1.49-2.52 2.92-2.6.95-.06 1.96.66 2.91 1.11.29.14.57.48.69.79 1.16 3.04 3.39 3.39 5.99 2.52.34-1.26.68-2.47.97-3.68.07-.31.09-.78-.09-.99-1.46-1.74-.63-3.82-.96-5.71-.71-4 1.15-7.13 3.26-10.26-.15-.15-.29-.29-.44-.44-1.78.46-3.55 1.06-5.36 1.33-1.33.2-2.98.42-4.04-.17-2.47-1.36-2.03-4.62.59-6.16 2.49-1.46 4.9-3.09 7.46-4.42 1.6-.83 1.33-2.06.66-2.94-.76-1-.99-2.81-3.04-2.6-.39.04-.96-1.41-1.41-2.18-2.88-4.92-.3-8.5 3.08-10.91 1.19-.84 2.58-1.92 3.9-1.94 2.43-.03 4.98-.68 7.36.58 2.43 1.29 3.53 2.57 4.63 6.13 1.12-.64 2.29-1.1 3.19-1.87 1.49-1.26 3.66-1.46 4.88-.23 1.45 1.46 1.66 3.52-.1 4.72-2.45 1.67-5.27 2.79-7.95 4.12-.49.24-1.03.37-1.9.68zm-6.12 48.55c-.28-.02-.56-.04-.84-.06-.41 3.66-.82 7.33-1.23 10.99l.78.09c.43-3.67.86-7.35 1.29-11.02zm-1.82-18.43c1.78-.29 3.41-.56 5.15-.84-1.65-1.68-4.49-1.16-5.15.84zm-7.22-32.07c-.11-2.12-.23-4.27-.34-6.35-1.67 1.9-1.55 4.45.34 6.35z"/><path d="m180.91 37.64c2.26-.64 3.74-2.42 3.88-4.47.06-.85.03-1.71 0-2.57-.08-2.56 1-3.48 3.51-2.92 1.17.26 2.32.65 3.49.92 2.85.65 3.46 2.28 1.88 5.33-.8 1.54-1.6 2.96-1.95 4.72-.9 4.51-5.11 6.36-8.03 9.17-1.08 1.04-1.96 1.97-2.16 3.32-.29 1.95-.29 3.94-.43 6.23 1.12-.23 2.11-.44 3.09-.62 2.03-.38 3.67.36 4.29 2.17.61 1.77-.14 2.94-1.72 4.04-2.96 2.08-6.12 2.35-9.51 1.83-.62-.1-1.26-.14-1.81-.2-.17.19-.36.31-.35.39.79 4.02-2.3 6.55-3.79 9.67-1.2 2.51-4.46 2.61-6.45.45-2.31-2.51-2.21-7.2.07-9.76 2.04-2.3 4.02-4.68 5.82-7.17.54-.75.39-2.01.52-2.8-3.03.73-5.98 1.39-8.89 2.2-.55.15-.96.88-1.4 1.38-2.1 2.37-5.03 2.03-6.03-.71-.54-1.47 1.86-8.77 3.27-9.27 1.91-.68 3.94-.99 5.92-1.47.19-.05.36-.15.76-.32-.15-1.32-.3-2.65-.47-4.1 2.24-1.56 2.35-1.69-.01-3.72-2.21-1.9-2.31-4.43-1.66-6.63 1.2-4.06 3.59-7.64 7.75-9.17 3.8-1.39 7.52-.45 10.32 2.49 2.53 2.66 1.61 5.94.79 9.06-.21.79-.44 1.57-.71 2.51zm-.93 12.24c-.62.21-1.43.35-1.43.51-.08 2.44-.06 4.89-.06 7.33.24 0 .48-.01.73-.02.24-2.5.49-5 .76-7.82z"/><path d="m179.32 94.6c1.55 0 2.9-.01 4.25 0 1.83.02 2.89 1.17 3.34 2.73 1.03 3.57-1.18 6.73-4.85 7.24-.88.12-1.74.4-2.9.67 3.18 3.82 2.79 7.41.31 10.77-1.58-.47-2.93-1.12-4.33-1.24-2.18-.18-3.57-1.09-4.28-3.15-.15-.45-.62-.78-.94-1.17-.31.39-.68.74-.92 1.17-1.04 1.87-1.86 3.89-3.12 5.59-.61.83-2.28 1.76-2.99 1.46-1.45-.6-2.91-1.77-3.75-3.1-1.45-2.27-.65-5.7 1.58-7.94 1.28-1.29 2.86-2.28 4.18-3.54.87-.83 1.52-1.89 2.05-3.1-3.83.46-7.01-.01-9.54-2.9-1.97-2.26-2.39-6.47-.39-7.56 1.01-.55 2.87-.61 3.82-.03 2.37 1.46 2.25 1.66 5.22.82-.15-.55-.15-1.21-.47-1.65-1.83-2.62-1.74-4.9.43-7.13 1.19-1.23 2.38-2.47 3.67-3.58.59-.51 1.48-.66 2.17-1.07.93-.55 2.1-1.01 2.64-1.85 1.22-1.86 3.96-2.79 5.9-1.49.94.63 1.9 1.54 2.35 2.55.88 1.98 1.53 4.09 2.05 6.21.48 1.97-.19 3.9-1.98 4.75-2.81 1.34-3.1 3.75-3.51 6.55zm-3.57-17.97c2.01.53 3.77 1 5.61 1.49-1.44-2.72-2.62-3.07-5.61-1.49z"/></g></svg>