<svg viewBox="0 0 218.46 218.46" xmlns="http://www.w3.org/2000/svg"><g fill="#0009b9"><path d="m78.71 187.86c-.62.28-1.27.49-1.84.85-1.79 1.11-2.57.92-3.33-1.08-.58-1.53-.97-3.14-1.6-5.24-.92.82-1.95 1.29-2.09 1.95-.29 1.41-.97 3.08.92 4.13 1.71.95 1.68 2.38.62 3.75-1.62 2.08-3.67 3.5-6.48 3.31-1.98-.14-3.25-1.46-3.28-3.42-.03-2.31 0-4.63 0-7.15-.77.44-1.36.87-2.02 1.15-1.93.82-4.28-.8-4.05-2.86.49-4.42 2.43-8.07 6.21-11.06-3.31-2.23-2.72-5.08-.83-7.95-5.93-2.24-6.94-8.76-2.26-13.17 2.45-2.31 2.8-4.22 1.24-6.91-1.98.57-2.74 1.81-2.62 3.91.11 1.96-1.72 4.04-3.53 4.12-1.62.07-3.01-.75-3.26-2.4-.23-1.58-.21-3.3.14-4.85.84-3.66 2.7-6.72 6.3-8.37-3.03-4.78-2.07-9.22 2.45-11.94 3.89-2.34 9.38-.67 11.99 3.9 1.02-.49 2.08-.94 3.1-1.49 2.98-1.61 5.43-1.22 7.21.85 2.97-.74 5.67-1.5 8.42-2.06 1.49-.3 3.06-.24 4.59-.39 2.8-.27 5.59-.57 8.37-.86-.25-5.38 3.32-9.41 8.85-10.32 1.39-.23 2.86-.6 4.21-.37 1.12.19 2.49.92 3.07 1.85 1.97 3.16 1.02 4.78-2.7 5.36-1.18.18-2.3.74-3.38 1.32 6.09.12 7.34-.05 8.72 4.46 7.71-.86 15.41-1.73 23.46-2.63-.38-.87-.55-1.37-.81-1.82-1.36-2.3-.84-4.78-.37-7.11.18-.91 1.54-2.21 2.39-2.23 1.2-.03 2.82.65 3.55 1.59.89 1.15 1.54 2.93 1.38 4.33-.25 2.16 1.08 3.12 2.32 4.06.59.45 2.22.42 2.71-.07 2-2 4.05-2.64 6.74-1.57 1.56.62 3.14 1.2 4.63 1.97 1.29.67 2.25 1.63 1.92 3.37-.21 1.08-.15 2.21-.22 3.32-.11 1.68-1.15 2.54-2.55 3.35-4.18 2.42-6.29 2.26-9.88-1-.38-.34-.88-.54-1.06-.64-.64 2.91-1.26 5.67-1.85 8.43-.39 1.83-1.5 2.93-3.34 2.86-1.77-.06-2.79-1.61-2.72-3.67.04-1.2.08-2.4.19-3.6.16-1.7-.69-2.49-2.24-1.68-1.71.89-3.11 2.38-4.83 3.24-3.32 1.66-6.71 3.19-10.18 4.48-.82.3-2.3-.3-3.07-.96-.81-.7-1.76-2.14-1.53-2.93.31-1.05 1.6-1.94 2.66-2.59.8-.49 1.94-.38 2.84-.75.67-.28 1.2-.91 1.8-1.39-.1-.21-.2-.43-.3-.64-2.18.3-4.35.71-6.54.85-1.47.09-2.97-.18-4.45-.33-.26-.03-.5-.37-.74-.36-2.41.14-4.81.32-7.82.53 1.28 1.18 2.28 2.15 3.33 3.05.85.73 1.79 1.36 2.66 2.07 1.16.94 1.17 2.13.35 3.19-.89 1.14-1.98 2.09-3.66 1.29-1.39-.66-3.13-.93-4.17-1.93-1.66-1.61-2.87-3.69-4.25-5.58-.34-.47-.64-.97-.96-1.46-.39.43-.79.85-1.16 1.3-2.45 2.99-5.13 5.44-9.36 5.73-1.56.11-3.02 1.34-4.56 2-2.32.99-5.11-.62-4.58-2.85.31-1.31 1.71-2.41 2.77-3.46.46-.46 1.28-.55 2.04-.85-.04-.81-.08-1.64-.12-2.69-2.48.44-4.92.76-7.3 1.31-1.72.4-3.01.27-3.92-1.46-.2-.39-1.05-.72-1.51-.64-3 .57-5.24 2.24-7.32 4.54-2.3 2.55-1.04 5.01-.84 7.7 2.32-.09 4.79.03 5.34 2.69.42 2.07.11 4.33-.09 6.49-.09.94-.54 1.98-1.17 2.68-.77.87-1.85 1.92-2.86 2-.91.06-1.95-1.03-2.83-1.75-.33-.27-.39-.89-.56-1.36-.48-1.26-.99-1.56-2.34-.69-2.08 1.34-1.77 3.28-1.88 4.8 2.2.35 4.51.35 6.48 1.18.92.39 1.38 2.32 1.67 3.63.41 1.93 1.57 2.29 3.2 1.99 1.04-.19 2.06-.64 3.1-.71 2.16-.16 3.29 1.36 2.71 3.41-.83 2.88-3.06 3.6-6.17 3.72.49 1.1.78 2.07 1.3 2.88 2.11 3.23 3.61 6.57 2.37 10.54-.31.59-.61 1.19-.92 1.78zm41.47-59.92c-.68 1.32-1.29 2.48-1.98 3.81 2.55-.65 2.95-1.44 1.98-3.81z"/><path d="m159.76 101.19c-.68-2.76-.5-5.39 2.63-7.55-1.4.08-2.18.37-2.61.1-1.07-.68-2.5-1.47-2.78-2.49-.23-.84.73-2.41 1.61-3.06 1.19-.88 2.8-1.18 4.7-1.92-.5-.54-.97-1.27-1.64-1.69-.56-.35-1.36-.32-2.05-.5-2.35-.61-4.56-2.63-4.61-4.45-.07-2.59-.49-5.56 2.53-6.82 1.45-.61 3.32-.16 4.98-.38 1.12-.15 2.2-.61 3.49-.99-1.66-1.16-2.76-2.05-3.97-2.74-1.71-.97-1.14-2.27-.65-3.57-2.77-1.79-3.17-2.84-1.24-5.41 2.71-3.6 2.71-7.72 2.82-11.84.01-.49-.89-1.01-1.37-1.51-.22.14-.43.28-.65.42 0 1.36.32 2.83-.08 4.06-.5 1.55-1.61 2.89-3.63 2.65-1.93-.23-2.37-1.76-2.86-3.28-1.53-4.81.03-8.82 3.12-12.47.18-.21.33-.45.48-.65-3.37-4.76-3.1-8.39.52-13.04 2.12-2.72 8.45-3.53 11.01-.41.92 1.12.96 3.03 1.19 4.61.15 1.03-.08 2.11-.14 3.27 1.64-.26 2.75-.99 3.23-2.58.18-.61.42-1.21.7-1.77.76-1.51 1.4-3.3 3.69-2.51 2.11.73 3.15 2.7 2.41 4.85-.71 2.1-1.58 4.16-2.6 6.12-.36.68-1.34 1.17-2.14 1.47-2.35.87-2.71 2.93-3.54 5.25.98-.22 1.55-.43 2.14-.47 1.91-.13 3.51 1.2 3.59 3.41.09 2.38-.24 4.77-.37 7.16-.03.49-.07.99.01 1.47.35 1.95-.49 3.39-2.25 3.79-1.62.37-3.31-.63-3.7-2.48-.25-1.21-.05-2.51-.05-3.88-1.99.05-2.42 1.61-2.35 2.74.18 3.35-.15 6.36-3.09 8.53-.15.11-.07.53-.1.8 4.54.76 6.39 3.1 6.13 7.66.92.33 1.81.83 2.74.93.81.08 1.73-.17 2.49-.51 4.26-1.91 8.44-4.04 12.77-5.77 1.2-.48 3.1-.34 4.22.31 2.29 1.33 1.71 5.71-.87 7.35-1.89 1.2-3.95 2.13-5.9 3.24-.6.34-1.1.86-1.65 1.3l.26.78c1.38-.18 2.88-.08 4.11-.6 1.92-.82 3.4.18 4.35 1.22.54.58.1 2.6-.5 3.61-1.72 2.87-4.21 4.4-7.76 3.24-.41-.13-.96.15-1.44.27-3.31.87-5.6-.1-7.29-3.02-.23-.39-.77-.82-1.19-.85-1.82-.09-3.65-.04-5.55-.04q-2.26 8.37-4.3 9.8c1.4 2.11 2.8 4.22 4.3 6.48.4-.58 1.11-1.53 1.72-2.53 1.34-2.17 2.44-2.6 4.29-1.6 1.67.9 2.16 2.55 1.04 4.51-1.11 1.94-2.35 3.85-3.81 5.52-.91 1.04-2.34 1.61-3.91 2.64.18.51.6 1.45.82 2.44.5 2.16.99 4.33 1.31 6.53.27 1.82-.8 3-2.47 3.36-1.83.4-2.86-.89-3.56-2.36-.92-1.95-1.76-3.95-3.24-6.11-.34 1.15-.89 2.28-.96 3.44-.12 2.07-1.31 3.14-3.07 3.51-1.79.38-2.32-1.24-2.94-2.45-1-1.95-.58-3.96-.08-5.95.19-.74.35-1.48.56-2.4-3.02-.36-5.09-1.82-5.6-4.71-.22-1.22-.1-2.79.54-3.77.57-.88 2.14-1.69 3.12-1.55.96.14 2.07 1.39 2.51 2.41.49 1.13.76 1.92 2.41 1.46z"/><path d="m78.71 187.86c.31-.59.61-1.19.92-1.78 1.99-1.94 3.83-4.19 6.87-4.36 1.52-.09 3.06.27 4.6.4.78.06 1.56.07 2.33.1-.08-1.15-.11-2.3-.26-3.43-.04-.28-.5-.49-.72-.77-1.9-2.42-1.36-5.31 1.31-6.83 1.3-.74 2.45-.68 3.64.48 1.95 1.89 3.31 3.91 2.77 6.79-.29 1.5.55 2.05 1.92 2.1 2.48.09 5.02.54 7.42.15 1.32-.22 2.84-1.62 3.52-2.89 1.48-2.79 4.32-3.06 6.68-3.97 1.82-.7 4.45 3.05 3.9 5.24-.54 2.11-1.49 3.93-3.57 4.96-.54.27-1.01.69-1.52 1.04 1.01 2.34 3.05 1.07 4.77 1.68-.74-5.36 2.85-7.51 6.84-8.93 1.98-.71 4.55-1.17 6.17 1.79 1.8-1.79 3.53-3.35 5.07-5.09 2.79-3.14 6.53-4.56 10.31-5.88 1.64-.57 3.19.52 3.44 1.98.18 1.09-.7 2.56-1.5 3.54-.55.67-1.76.8-2.7 1.18-.38 2.29.07 2.87 2.32 2.62 3.32-.37 6.37-1.22 8.94-3.7 1.89-1.82 4.57-2.11 7.16-1.81.52.06 1.15.57 1.44 1.05 1.24 2.02-.49 6.58-2.7 7.5-2.37.99-4.7 2.08-7.05 3.12.08.22.17.44.25.66.71-.13 1.42-.3 2.14-.37 1.67-.16 3.07.41 3.42 2.14.33 1.64.07 3.55-1.69 4.16-2.09.74-4.39 1.26-6.59 1.2-2.29-.05-3.2-2.49-4.66-3.93-.27-.27-.51-.88-.72-.86-2.26.21-4.51.52-7.23.86 1 1.3 1.65 2.27 2.42 3.12 1.83 2.01 1.42 4.44-1.09 5.35-1.24.45-2.61.62-3.93.75-2.28.22-2.81-1.79-3.66-4.71-.33-1.12-.39-2.73-1.15-3.22-1.62-1.04-2.13.93-3 1.8-2.74 2.76-7.13 2.69-10.7-.2-3.91 4.16-9.28 3.74-12.77-.99-1.17-1.59-2.55-1.92-6.29-1.47.1 1.55.77 2.62 2.31 3.1 1.67.52 2.49 1.74 2.2 3.41-.31 1.76-1.58 2.24-3.38 2.45-2.95.34-5.61.14-7.87-1.93-.92-.84-1.86-1.71-2.57-2.71-1.67-2.35-3.87-2.37-5.48-.01-.37.55-1.02 1.01-1.65 1.26-2.98 1.2-5.97 1.18-8.74-.57-1.38-.87-2.19-2.17-1.71-3.99.13-.48-.12-1.06-.19-1.59z"/><path d="m96.17 151.82c.23-1.34.7-2.36.5-3.23-.42-1.78.36-2.87 1.6-3.82 1.16-.9 2.28-1.91 3.58-2.54 1.32-.64 2.68-.23 3.54 1.08.8 1.24 1.33 2.55.05 3.84-.25.25-.59.44-.77.73-.5.83-1.46 1.86-1.26 2.53.25.89 1.33 1.68 2.23 2.21.76.45 1.77.44 2.66.68 2.11.58 4.15-.42 4.87-2.53.94-2.76 2.71-4.54 5.6-5.21 1.78-.41 3.53-.99 5.29-1.49.34-.1.68-.2 1.03-.25 2.34-.33 5.17.91 5.46 2.37.25 1.25-1.58 3.13-3.73 4.07-1.41.62-2.71 1.47-4.06 2.22.07.19.14.39.22.58 2.7-.22 5.39-.44 8.09-.68 1.26-.11 2.52-.25 3.78-.41 1.8-.22 4.07 1.42 4.24 3.08.13 1.24-2.24 3.55-3.88 3.66-4.81.32-9.64.53-14.45.9-1.44.11-2.84.71-4.29.86-1.13.12-2.3-.1-3.45-.19-1.4-.11-2.8-.25-4.06-.36.89 1.73 1.96 3.3 2.48 5.03.28.95-.01 2.53-.68 3.19-.76.76-2.34 1.3-3.35 1.06-2.02-.49-3.96-1.46-5.8-2.47-.76-.42-1.45-1.36-1.72-2.21-.78-2.47-2.54-3.32-4.58-1.61-3.07 2.58-6.34 2.58-9.9 1.62-3.06-.82-4.55-3.44-4.29-6.58.24-2.94 1.37-5.09 3.52-7.08 3.26-3.02 7.4-1.89 10.12-.12.34.22.66.49 1.42 1.05z"/><path d="m97.9 72.22c1.15-.49 2.32-.93 3.45-1.47 2.07-1 3.46-.75 4.85 1.06 1.89 2.45 2.66 8.38-1.02 10.57-1.39.82-2.29 2.45-3.66 3.31-1.1.7-2.58.79-4 1.18-.89 2.36-1.75 5.17-3.01 7.78-1.31 2.72-2.52 2.98-5.3 1.76-.99-.43-1.94-.96-2.97-1.26-.36-.11-1.18.24-1.3.56-1.5 4.04-3.61 4.53-8.16 3.98-.96 2.77-2.82 3.82-5.84 3.13-1.57-.36-2.81 1.43-2.26 2.92.48 1.3 1.35 2.53 1.51 3.86.15 1.18-.06 2.83-.8 3.57-.89.89-2.65 1.07-3.69-.19-1.49-1.81-2.76-3.8-4.42-6.12-.6.59-1.52 1.2-2.01 2.06-1.19 2.09-2.02 4.41-3.34 6.41-.53.81-1.96 1.45-2.95 1.41-.87-.04-2.26-1.01-2.44-1.79-.79-3.33-1.7-6.72.51-10.01.7-1.04.93-2.49 1.07-3.78.13-1.21-.55-2.08-1.9-2.34-2.8-.53-3.52-1.43-3.14-3.74.3-1.81 2.75-3.37 4.73-3.01 3.46.63 5.44 2.35 6.73 5.95 1-.18 2.03-.36 3.07-.54 0-1.81-.16-3.58.05-5.31.16-1.36.66-2.72 1.21-3.99.73-1.67 2.37-1.75 3.63-1.11 1.28.65 2.4 1.86 1.65 3.68-.23.57-.34 1.19-.55 1.93 3.19.06 6.93-2.62 8.85 2.71 1.21-3.79 5.01-5.39 5.34-9.67-1.04.75-1.69 1.37-2.45 1.72-1.13.53-2.57 1.49-3.47 1.16-1.77-.65-2.48-3.22-1.43-4.73 1.92-2.77 3.95-5.49 6.23-7.96 1.77-1.92 4.83-1.3 6.81.97.32.37.79.6 1.19.89.2-.48.6-.96.58-1.43-.09-3.6.87-6.95 3.26-9.55 1.73-1.88 3.74-4 6.84-3.24.86.21 2.29.76 2.32 1.23.08 1.13-.26 2.49-.9 3.42-.91 1.32-2.26 2.34-3.42 3.49.18.18.35.36.53.54zm-12.15 21.72c.14.04.29.08.43.12 1.01-1.54 2.05-3.07 2.99-4.65.18-.31-.01-.84-.04-1.27-.36.22-.9.35-1.06.67-.83 1.68-1.56 3.42-2.33 5.13z"/><path d="m117.19 37.15c.59-.04 1.15-.08 1.72-.11 2.71-.15 3.77.82 3.95 3.47.26 3.97-.41 7.75-2.16 11.34-.8 1.64-1.96 2.68-3.86 2.15-1.78-.49-2.36-1.83-2.15-3.62.1-.84.02-1.7.02-3.26-1.97 2.62-3.57 4.78-5.2 6.92-1.83 2.4-3.55 4.91-5.58 7.14-1.46 1.61-4.24 1.29-5.51-.3-1.18-1.47-.51-4.07 1.29-5.36 1.28-.92 2.97-1.69 3.61-2.97 1.75-3.51 3.27-7.22 2.15-11.31-.17-.61-.77-1.11-1.38-1.56-.48 1.7-1.88 3.07-.4 4.93.82 1.03-.78 3.63-2.28 4.27-1.79.75-3.78.08-4.55-1.54-1.14-2.43-1.41-4.88-.3-7.41.16-.37.12-.83.16-1.24-6-1.05-7.97-2.79-8-7.04-.03-4.14 3.53-7.91 8.09-8.59 4.04-.6 6.56 1.26 7.91 5.81 3.96-.84 5.14-2.24 5.29-6.31.12-3.17 2.1-4.88 4.49-3.66.82.42 1.71 1.65 1.73 2.54.08 2.86-.25 5.73-.36 8.6-.03.89.04 1.8.22 2.68.28 1.43.69 2.83 1.1 4.46z"/><path d="m51.71 40.31c-.6 0-1.19.03-1.79 0-2.87-.2-4.83-2.21-4.96-5.08-.17-3.85 2.83-8.48 6.55-9.37 2.23-.53 4.8-.29 6.53 1.42 1.59 1.57 2.14.35 2.97-.56 1.79-1.94 3.4-4.08 5.38-5.79 2.28-1.95 5.08-2.32 7.98-1.27 1.36.5 1.92 1.5 1.4 2.83-.87 2.24-1.55 4.68-4.71 4.86-.81.05-1.58.86-2.24 1.52 4.08 1.15 7.39.74 10.08-2.82 2.05-2.7 7.25-1.65 8.48 1.39.81 2.01-.43 4.47-2.6 4.51-5.15.1-6.34 4.25-8.25 7.68-.2.37.14 1.21.46 1.66.65.92 1.32 1.92 2.23 2.52 1.58 1.04 2.15 2.36 1.33 3.95-.86 1.67-2.35 2.76-4.36 2.79-2.12.03-3.84-.69-4.84-2.71-.28-.55-.74-1.01-1.07-1.54-.99-1.6-1.96-3.22-3.06-5.04-4.3.58-8.76 2.41-12.75 5.42-1.23.93-2.6 1.68-3.98 2.39-1.76.91-3.99-.01-4.71-1.84-.73-1.85.1-3.4 2.09-4.21 1.4-.58 2.73-1.35 4.09-2.03l-.27-.67z"/><path d="m143.24 158.17c-1.04-1.62-3.49-2.8-1.45-5.23 1.13-1.35 2.57-1.68 3.93-.83.88.55 1.9 1.82 1.85 2.71-.15 2.38-1.71 3.63-4.32 3.36z"/></g></svg>