<svg viewBox="0 0 218.46 218.46" xmlns="http://www.w3.org/2000/svg"><g fill="#0009b9"><path d="m171.82 193.89c-.33 2.78-.55 5.56-1.02 8.3-.23 1.38-.83 2.71-1.37 4.02-.53 1.26-1.18 2.33-.14 3.78.8 1.11-1.05 4.19-2.6 4.76-2.14.79-3.94.17-4.39-1.99-.5-2.44-.49-4.99-.66-7.5-.07-1.06-.01-2.14-.01-3.5-1.46.59-2.69 1.09-3.92 1.59-2.03.83-2.7.32-2.91-1.76-.44-4.26.7-7.83 4.08-10.6.34-.28.51-.79.92-1.44-4.06-1.03-7.36-2.93-9.96-5.93-1.18-1.37-1.88-2.93-1.02-4.67.73-1.49 1.95-2.64 3.78-2.19.88.22 1.9.82 2.37 1.56 2.27 3.54 2.69 3.8 6.57 3.06.21-.97.57-1.93.6-2.91.03-1.02-.28-2.04-.39-3.07-.16-1.37-.3-2.75-.39-4.12-.07-1.05-.17-2.13 0-3.16.2-1.25.57-2.49 1.03-3.67.56-1.42 1.3-2.78 2.2-4.66-2.64.62-4.78 1.05-6.87 1.64-1.77.5-3.84-.09-4.5-1.47-.72-1.52-.05-3.88 1.47-4.78 2.39-1.42 4.78-2.87 7.28-4.08 1.82-.89 2.05-2.19 1.48-3.8-.55-1.56-1.21-3.14-3.33-2.62-1.92-3.04-3.44-6.1-1.41-9.64 1.81-3.14 4.87-4.62 8.14-6.19.15-1.91.71-3.95-1.81-5.42-.97-.57-1.3-2.23-2.13-3.81-.39.3-1.1.58-1.38 1.09-.9 1.66-1.69 3.37-2.42 5.11-.95 2.24-2.92 2.97-5.08 1.79-3.66-2.02-4.02-7.34-.58-10.9 1.48-1.53 3.34-2.7 4.94-4.12.59-.52.94-1.3 1.33-1.86-2.68-.53-5.19-.72-7.46-1.55-2.77-1.01-4.68-4.88-3.9-7.68.29-1.04 1.48-2.25 2.5-2.54.91-.26 2.64.3 3.15 1.06 1.21 1.81 2.68.83 4.04.79.1 0 .46-1.44.18-1.87-1.75-2.69-1.86-4.01.14-6.5 1.37-1.7 2.85-3.37 4.52-4.77 2.36-1.97 3.44-4.24 2.56-7.31-.21.62-.55 1.22-.6 1.85-.2 2.57-2.34 3.3-4.06 3.17-1.42-.11-3.19-1.45-4-2.74-1.98-3.14-1.27-6.32 1.2-9.07 1.08-1.2 1.62-2.89 2.73-4.05 1.33-1.39 2.91-2.52 3.06-4.65.03-.48.06-.96.06-.96-2.5.73-5.07 1.4-7.57 2.23-1.09.37-2.28.88-3.06 1.68-1.41 1.43-2.89 2.07-4.59.89-1.61-1.12-1.77-2.74-.98-4.55.53-1.23.86-2.57 1.18-3.88.54-2.16 1.86-3.25 4.09-3.47 1.47-.15 2.92-.58 4.39-.89v-4.32q1.94-1.6-.4-3.57c-1.7-1.43-2.54-5.62-1.23-7.99 1.3-2.35 2.78-4.7 4.62-6.64 3.98-4.18 12.5-2.5 14.56 2.88.59 1.54.32 3.49.15 5.22-.14 1.39-.73 2.73-1.3 4.7 2.23-1.13 3.58-2.2 3.83-4.23.11-.86.11-1.75-.01-2.6-.42-2.84 1.38-3.82 3.75-3.52.71.09 1.41.28 2.1.46 4.93 1.26 5.64 3.55 2.36 7.37-.37.43-.54 1.11-.6 1.7-.33 2.95-1.75 5.26-4 7.12-1.92 1.6-3.86 3.18-5.71 4.87-.48.44-.85 1.22-.91 1.88-.22 2.28-.29 4.58-.43 7.01 1.2-.31 2.28-.59 3.36-.88 2.07-.55 3.33.51 4.07 2.25.77 1.8-.34 3.03-1.63 4.04-2.82 2.23-6.15 2.13-9.48 1.92-.84-.05-1.69-.13-2.74-.21v10.25c.38-.09.76-.2 1.15-.27 3.93-.78 5.46-.62 7.19 3.04.85 1.79 1.26 3.8 1.77 5.74.64 2.4-.54 4.36-2.43 5.3-2.87 1.42-2.49 3.99-3.3 6.45 1.7 0 3.14-.19 4.52.04 2.64.45 3.33 2.43 3.26 5.05-.14 4.79-3.78 4.66-6.8 5.56-.25.07-.51.08-1.31.18 2.16 2.19 3.36 4.4 2.42 7.15-.88 2.55-2.1 4.77-5.31 4.97v1.98c2.92.24 5.51 1.18 7.46 3.42.46.53.88 1.16 1.14 1.81.9 2.21 2 2.39 3.8.67.6-.57 1.34-1.17 2.1-1.35 1.78-.41 3.24.13 4.01 1.97.83 1.99-.13 3.53-1.63 4.38-2.47 1.41-5.17 2.41-7.78 3.57-.38.17-.79.26-1.53.5 2.14.92 1.55 2.15.7 3.31-.84 1.15-1.85 2.18-2.69 3.34-.44.6-.65 1.37-.99 2.11 2.43.29 4.62.6 6.82.8 1.38.13 2.22.61 2.53 2.11.23 1.08.99 2.04 1.41 3.1.98 2.46.3 4.73-1.59 5.51-1.99.82-3.6-.26-4.6-3.03-1.85-.38-3.66-.75-5.14-1.05-3.44 3.03-3.49 7.03-3.99 11.1.65-.14 1.18-.27 1.72-.36 1.97-.3 3.37.24 4.45 2.15 1.76 3.14 3.03 6.1.04 9.19-.13.14-.27.49-.2.58.63.82 1.59 1.51 1.91 2.42.42 1.2.89 1.57 2.15 1.38.88-.13 1.89.04 2.73.36.46.18.91.92.97 1.46.14 1.17-.14 2.39.06 3.54.36 2.11-.29 3.64-2.19 4.56-2 .96-3.86.25-5-1.31-1.03-1.43-2.05-1.56-3.63-1.16zm-1.72-.5c-.29-.03-.58-.05-.88-.08-.4 3.58-.79 7.15-1.19 10.73l.76.09c.43-3.58.87-7.16 1.3-10.74zm2.7-135.04c-1.69.8-2.14 5.82-.77 8.14.27-2.83.5-5.35.77-8.14zm-4.19 27.3c1.85.46 3.69.93 5.63 1.42-1.18-2.59-2.31-2.95-5.63-1.42zm-.42 88.86c1.87-.35 3.46-.66 5.14-.97-1.52-1.78-4.17-1.32-5.14.97zm-7.27-32.62c-.19-2.06-.38-4.06-.56-5.96-1.38 1.35-1.19 4.31.56 5.96z"/><path d="m113.87 94.05c2.39-2.94 5.86-2.67 9.06-2.79 2.1-.08 3.8 1.16 4.5 3.4.19.62.62 1.16.98 1.81.66-1.44.94-2.78 1.74-3.58.76-.76 2.07-.97 3.23-1.46 1.04-1.83 2.17-3.96 3.44-6 .7-1.13 1.74-1.3 2.66-.19.26.31.31.9.24 1.33-.03.16-.66.22-1.02.33-.42.12-1.08.11-1.24.38-1.15 1.98-2.16 3.96-1.95 6.46.23 2.69.19 5.43-.08 8.11-.32 3.18-2.11 5.39-5.51 6.3 1.62 3.22.66 6.13-.68 9-.12.25-.2.56-.18.84.24 4.4-1.86 7.8-4.19 11.34-1.39 2.1-2.96 3.29-4.89 3.77.13 2.38.38 4.53.33 6.68-.04 1.91-1 3.33-2.84 4.21-1.8.85-3.56 1.84-5.17 2.98-.56.4-1.04 1.54-.9 2.2.46 2.13-.2 3.82-1.12 5.72-1.34 2.75-2.21 5.75-3.15 8.68-.65 2.03-1.84 3.09-3.64 2.88-1.78-.21-2.78-1.56-2.6-3.75.18-2.21.51-4.4.85-7.26-.98.72-1.55 1.1-2.08 1.52-2.57 2.03-4.91 4.5-7.75 6-4.05 2.13-8.55 2.87-13.15 1.58-1.8-.51-3.49-1.33-3.56-3.46-.08-2.57.62-3.33 3.57-3.89 1.82-.35 3.72-.26 5.57-.46.89-.1 1.76-.4 2.64-.62 0-.26 0-.52 0-.77-1.49-.5-2.97-1.06-4.48-1.5-1.85-.54-2.84-1.65-2.61-3.62.19-1.64 1.67-2.74 3.63-2.58 1.56.13 3.1.64 4.66.67 1.97.05 3.94-.24 5.92-.33 2.23-.1 2.62-2.07 3.54-3.47.19-.29.18-.97-.03-1.23-1.11-1.41-2.49-2.64-3.44-4.14-.63-.99-1.28-2.6-.89-3.46.65-1.41 2.02-2.59 4.01-2.14 3.03.68 4.03 3.44 5.74 5.48.43.52.83 1.06 1.35 1.73 1.16-4.42 2.62-8.34 6.6-10.57-.6-1.37-1.51-2.54-1.54-3.74-.04-1.54.61-2.92 2.42-3.67 1.5-.62 2.72-1.92 4.02-2.88-1.76-.92-3.43-1.28-4.14-2.31-.77-1.1-.77-2.82-.9-4.29-.23-2.6.3-4.95 2.19-7 .57-.62.75-2.1.45-2.95-1.04-2.95-1.27-5.83-.1-8.76.17-.17.33-.34.5-.5z"/><path d="m35.22 93.94c1.62-2.72 2.63-5.58 4.58-7.45 3.64-3.48 8.7-1.39 9.66 2.81.46 2.04.83 4.3.42 6.29-.57 2.76-2.2 3.53-5.74 3.81 1.2 1.89 3.9 2.11 5.74.58 1.07-.89 2.3-1.58 3.45-2.38 1.65-1.15 2.9-.11 3.99.88 1.23 1.13.93 2.55-.03 3.66-1.06 1.23-2.17 2.63-3.57 3.32-3.4 1.67-6.2 4.48-10.06 5.27-.37.08-.81.49-.95.85-.93 2.46-2.2 4.88-2.57 7.43-.48 3.3-.23 6.71-.28 10.08-.02 1.57 0 3.14 0 4.95.4-.17.61-.27.83-.36 4.86-2 7.37-.96 9.51 4.01.51 1.18.83 2.43 1.28 3.75 2.16.15 3.15-.97 3.4-3.19.25-2.18 1.79-3.78 3.32-3.61 1.59.18 3 .96 3.02 2.75.01 1.51-.19 3.12-.72 4.52-.69 1.83-1.81 3.51-2.64 5.05 3 .35 6.03.62 9.02 1.09 2.15.33 3.34 1.99 2.98 3.74-.37 1.76-1.72 2.46-4 2.17-1.4-.18-2.82-.24-4.41-.37 1.73 1.51 3.26 2.85 4.54 3.96-.97 3.47-3.17 3.48-5.6 3.58-3.52.14-6.65-.99-9.72-2.37-.96-.43-1.67-1.43-2.62-2.28-.43.6-.81 1.08-1.13 1.6-.85 1.36-1.88 1.99-3.6 1.48-1.07-.32-2.29-.2-3.45-.18-2.46.04-3.69-.7-3.92-2.45-.19-1.42 1.26-3.09 3.02-3.7 1.19-.41 2.46-.84 3.41-1.6.58-.47.63-1.59.92-2.42-.64-.12-1.29-.2-1.92-.37-1.87-.48-3.96-.4-5.23-2.33-1.08-1.65-.95-3.35-.36-5.04.64-1.85 1.48-3.62 2.22-5.41-3.4.44-3.67-.33-4.34-3.8-.87-4.47-1.28-8.89-1.25-13.41 0-.58-.74-1.17-1.68-1.62 0 1.54-.04 3.07.01 4.61.06 1.7.49 3.51-1.95 4.01-1.75.36-3.79-.62-4.22-2.7-.84-3.99-1.6-8.09-.58-12.14.44-1.74 1.71-3.06 3.87-3.18 1.9-.11 3.29-.53 3.68-3.14.47-3.11-.18-5.29-2.4-7.38-2.37-2.23-2.61-9.35-.61-11.97 1.64-2.14 4.25-2.02 5.26.48.7 1.73.76 3.71 1.08 5.59.14.84.22 1.68.33 2.52z"/><path d="m72.89 60.14c.61-1.64 1.09-3.34 1.87-4.89.93-1.87 1.88-3.82 3.25-5.35 1.59-1.78 3.28.01 4.57.81.79.49 1.22 2.06 1.24 3.15.01 1.06-.61 2.18-1.14 3.17-1.63 2.98-3.33 5.92-5.05 8.86-.2.34-.57.64-.93.83-2.53 1.37-2.54 1.36-2.34 4.14 2.07 1.27 4.23 2.2 5.8 3.73.97.94 1.58 2.89 1.38 4.25-.51 3.59-1.27 7.19-3.7 10.17-1.2 1.47-2.6 1.95-4.14 1.01-1.57-.96-1.58-2.42-.86-4.13.49-1.17.45-2.58.5-3.88.01-.32-.51-.82-.89-.96-2.19-.85-5.96 1.11-7.93 2.4-3.49 2.29-4.79 6.34-7.94 8.72-.9.68-2.55 1.23-3.44.85-.91-.39-1.66-1.92-1.87-3.06-.82-4.46 1.63-7.3 5.35-9.01 2.55-1.17 3.25-3.01 3.11-5.49-.02-.39-.15-1.03-.37-1.1-.38-.12-1.06-.05-1.3.22-1.34 1.51-2.72 3.01-3.82 4.69-1.35 2.07-2.71 2.89-4.53 2.24-1.5-.53-2.52-2.9-1.97-4.83 1-3.54 5.1-9.63 9.16-10.86-1.19-4.41-.21-8.43 2.7-11.88 2.04-2.41 4.77-3.55 7.94-2.64 2.53.73 4.5 4.15 4.56 7.44v1.08l.8.33z"/><path d="m113.87 94.05c-.17.17-.33.34-.5.5-1.26.83-2.69 2.03-4.04.77-.9-.83-1.26-2.38-1.55-3.68-.25-1.1 0-2.31-.04-3.47-.06-2.17-1.39-3.37-3.22-4.26-1.68-.82-2.97-.15-4.3.78-2.39 1.66-4.74 3.43-7.28 4.82-2.17 1.19-4.07.44-4.87-1.45-.72-1.71.05-3.12 2.19-4.23 1.8-.93 3.88-1.65 4.04-4.56-2.74.55-4.63-.41-6.13-2.73-1.34-2.07-1.76-4.23-1.09-6.36.87-2.76 2.77-5.24 5.74-5.52 2.53-.24 5.18.69 8.17 1.16-.33-1.51-.67-3.41-1.18-5.27-.47-1.71-1.46-3.31-.38-5.15 1.22-2.07 3.49-2.52 4.94-.63 2.53 3.29 4.44 6.85 3.46 11.3-.22 1 .1 2.12.14 2.85 1.67.9 3.48 1.34 4.4 2.49 1.56 1.95 3.41 1.91 5.44 1.75 4.58-.35 7.21 2.31 8.37 6.23.65 2.18-.17 4.22-2.02 4.88-2.15.76-3.41-.75-3.99-2.27-.69-1.82-1.99-1.59-3.09-1.32-1.11.27-2.36.98-2.98 1.89-.37.54.35 1.83.59 2.77.68 2.71 1.22 5.4-.82 7.84-.14.17-.02.56-.03.85z"/></g></svg>