<svg viewBox="0 0 218.46 218.46" xmlns="http://www.w3.org/2000/svg"><g fill="#0009b9"><path d="m154.24 180.07c-3.88-.94-7.06-2.95-9.42-5.97-.77-.99-.98-2.72-.84-4.05.16-1.61 1.57-2.55 3.18-2.62 1.64-.07 2.58 1.06 3.41 2.43.61 1.01 1.52 2.25 2.53 2.54 2.37.66 2.69.07 3.45-2.4.47-1.52.76-2.72-.36-4.02-.26-.3-.14-.96-.15-1.45-.04-4.62.25-9.18 2.85-13.46-1.92.48-3.84.96-5.76 1.44-2.57.64-4.21.03-4.99-1.86-.74-1.8.17-3.63 2.37-4.79 1.81-.95 3.73-1.76 5.38-2.93 1.1-.77 2.62-2.14 2.53-3.12-.14-1.6-.86-3.5-2.94-4.12-1.37-.41-2.96-4.1-2.79-5.85.45-4.57 3.68-6.8 7.28-8.64 1.75-.89 2.54-3.34 1.25-4.89-1.26-1.53-2.6-3-4.18-4.82-.02 3.11-3.43 4.06-3.69 7.07-.12 1.34-2.62 1.72-4.22.87-3.03-1.62-4.14-6.22-1.94-9 1.43-1.81 3.27-3.28 4.9-4.93.85-.86 1.65-1.76 2.91-3.13-1.22-.12-1.75-.26-2.24-.2-4.91.59-8.8-2.32-9.53-7.11-.28-1.86.42-3.41 2-4.08 1.43-.61 2.96-.38 4.03 1.32 1.25 1.98 2.99.52 4.88.37-.47-.82-.74-1.46-1.16-1.98-1.85-2.35-1.36-5.31.94-7.25 2.2-1.85 4.4-3.8 6.12-6.07.85-1.13.62-3.07.47-4.77-.19.26-.53.52-.55.79-.19 2.27-1.29 4.05-3.49 4.44-2.34.42-5.04-1.97-5.52-4.61-.49-2.74.07-5.22 2.06-7.42 1.89-2.09 3.53-4.41 5.13-6.74.47-.68.42-1.72.58-2.41-2.59.69-5.05 1.45-7.56 1.96-1.05.22-1.81.43-2.5 1.39-1.59 2.18-2.94 2.42-4.84 1.22-1.57-.99-1.83-2.82-.91-4.92.56-1.28.63-2.82 1.36-3.95.69-1.08 1.88-1.93 3.02-2.59.74-.43 1.8-.28 2.69-.48.81-.18 1.6-.48 2.53-.77-.2-1.14-.44-2.29-.6-3.45-.04-.31.03-.84.23-.95 1.91-1.05 1.02-1.98.02-3.08-3-3.29-2.81-7.95.37-11.5.96-1.08 1.81-2.27 2.83-3.29 2.35-2.34 5.38-2.3 8.21-1.6 5.55 1.37 7.38 4.93 5.84 10.54-.31 1.14-.56 2.29-.83 3.43 2.46-.51 3.69-2.1 3.74-4.86.1-5.12 1.15-5.85 6.12-4.29 4.39 1.38 4.94 3.45 1.94 7.09-.41.5-.76 1.23-.78 1.85-.07 2.89-1.67 4.89-3.68 6.67-1.89 1.67-4.09 3.07-5.63 5.01-.97 1.23-1.07 3.21-1.37 4.89-.19 1.1-.04 2.27-.04 3.67 1.08-.29 2-.56 2.93-.78 1.86-.44 3.25.38 4.17 1.88.8 1.31-.06 3.3-1.59 4.38-2.75 1.93-5.75 2.5-9.03 1.92-.82-.14-1.69-.02-2.72-.02v9.67c.58-.11 1.17-.24 1.77-.33 2.53-.37 4.84.11 5.86 2.68 1 2.51 1.88 5.16 2.16 7.82.12 1.13-1.16 3.02-2.29 3.55-2.86 1.33-2.66 3.86-3.41 6.23 1.73.09 3.26.03 4.73.29 2.26.4 3.33 2.11 2.97 4.37-.75 4.62-1.01 4.84-7.9 6.15 1.82 2.08 2.91 4.13 2.04 7.03-1.13 3.82-1.77 4.87-4.76 4.84v2.3c2.84-.01 5.4.79 7.31 3.01.45.52.9 1.11 1.13 1.75.69 1.93 1.55 2.34 3.05 1.08 1.31-1.11 2.45-2.06 4.44-1.76.63.1 1.53-1.55 2.61-2.74-3.84.59-5.93-1.8-8.24-3.5-2.84-2.09-1.42-5.12-1.03-7.74.21-1.46 1.23-2.81 1.93-4.19.19-.36.55-.82.89-.88 3-.55 6-1.12 9.03-1.45.85-.09 1.78.66 2.69.95.55.17 1.31.44 1.69.2.48-.29 1.02-1.16.9-1.61-.5-1.89-1.09-3.78-1.94-5.54-.86-1.79-1.39-3.46.28-4.96 1.64-1.48 3.44-1.15 5.23-.17 2.66 1.47 3.86 3.83 4.17 6.75.19 1.75.37 3.51.55 5.23 2.37.41 5.22-1.35 6.52-3.6 1.23-2.12 2.6-4.18 4.15-6.07 1.42-1.73 5.49-2.3 6.82-1.22 1.76 1.42 2.32 5.43.64 7.4-2.1 2.47-4.6 4.6-6.88 6.91-.53.53-.88 1.24-1.61 2.31 4.07 0 7.5.11 10.92-.05 1.69-.08 2.57.61 2.85 2.07 1.2 6.21-1.25 7.39-6.68 7.8-4.75.36-9.35 1.07-13.96 2.21-2.58.64-5.34.54-7.99.94-.75.11-1.64.63-2.06 1.24-2.1 2.98-4.5 5.28-8.54 4.73-.44-.06-1.13.09-1.35.39-2.15 2.99-5.83 2.94-8.71 4.46-.36.19-.76.32-1.39.59 2.05 1.22 1.17 2.27.14 3.52-1.31 1.59-2.41 3.36-3.7 5.2 2.46.19 4.39.35 6.33.48 1.75.11 3.1.52 3.44 2.65.18 1.11 1.21 2.07 1.54 3.19.7 2.4-.31 4.32-2.38 4.93-1.79.53-2.96-.33-3.93-2.89-1.27-.36-2.53-.78-3.82-1.06-1.07-.23-1.73.07-2.55 1.13-2.25 2.93-2.19 6.26-2.57 9.53.29.13.43.25.53.23 1.95-.46 4-1.01 5.2 1.24 1.46 2.74 3.49 5.48.86 8.7-.81 1-.6 1.72.33 2.97 1.45 1.94 3.12 2.38 5.2 2.54.46.04.89.39.95.41.21 1.83.7 3.41.46 4.87-.23 1.37-.93 2.96-1.96 3.82-1.42 1.17-3.59 1.01-4.58-.54-1.1-1.73-2.41-1.93-4.15-1.88-.37 3.14-.63 6.3-1.17 9.42-.26 1.5-1.17 2.88-1.59 4.37-.22.77 0 1.67.03 2.51.19.03.37.05.56.08-.26.76-.53 1.52-.77 2.28-.47 1.49-1.45 2.42-3.02 2.57-1.62.15-2.79-.66-3.11-2.2-.49-2.39-.74-4.83-1.09-7.25-.15-1.06-.29-2.11-.43-3.18-1.29.4-2.49.81-3.71 1.14-1.79.49-2.37-.07-2.58-1.92-.48-4.22 1.2-7.56 3.98-10.52.23-.24.4-.54.57-.83.06-.11 0-.27 0-.6zm10.64 3.79c-.26-.08-.52-.16-.78-.24-.46 3.69-.92 7.38-1.38 11.07.29.04.57.08.86.12.43-3.65.87-7.3 1.3-10.95zm.94-132.29c.46 2.48-.69 5.13.64 7.44.27-.02.54-.04.81-.07v-7.77c-.33.09-.82.22-1.45.39zm-2.76 26.24c2.24.62 4.11 1.14 5.96 1.65-1-2.65-2.62-3.21-5.96-1.65zm-.14 87.51c1.86-.25 3.55-.48 5.22-.71-1.38-1.78-4.25-1.43-5.22.71zm-7.14-32.06c-.1-2.02-.19-3.93-.29-5.93-1.65 1.81-1.53 3.94.29 5.93z"/><path d="m111.12 101.79c2.42-2.91 5.92-2.52 9.11-2.86 2.03-.22 4.3 2.38 4.89 5.62 1.45-2.51 1.39-6.47 5.22-4.99 1.12-2.14 2.05-4.2 3.27-6.07.38-.58 1.54-.8 2.36-.86.27-.02.61.99.98 1.61-3.17.69-4.76 4.03-4.46 7.51.26 2.97.14 6.03-.32 8.98-.38 2.41-2.1 4.09-4.86 4.6.1.65.29 1.27.26 1.87-.09 1.67-.04 3.39-.48 4.97-.47 1.69-.43 3.47-.79 5.03-.71 3.02-2.49 5.8-3.87 8.66-.2.42-.81.67-.96 1.1-.72 2.03-2.16 3.06-3.93 3.23 0 1.98-.12 3.84.03 5.67.27 3.38-1.93 4.69-4.51 5.83-.88.39-1.7.95-2.5 1.51-1.43 1.01-2.27 2.2-1.7 4.15.23.78-.14 1.82-.44 2.67-1.24 3.5-2.61 6.96-3.83 10.47-.73 2.11-1.97 3.1-3.65 2.67-2.23-.58-2.77-1.82-2.32-4.29.34-1.86.29-3.79.47-6.42-2.19 1.72-4.09 2.95-5.68 4.51-4.23 4.13-12.31 5.91-17.74 3.68-1.29-.53-2.84-1.13-2.63-2.85.21-1.7 1.1-3.29 2.94-3.69 1.78-.39 3.65-.38 5.48-.59 1.19-.14 2.37-.38 3.55-.58.02-.28.04-.56.06-.85-1.73-.53-3.46-1.08-5.19-1.58-1.89-.54-2.31-1.95-2.14-3.64.16-1.59 1.24-2.38 2.75-2.37 1.32.01 2.65.19 3.94.46 2.62.56 5.16.69 7.75-.29 1.19-.45 1.95-1.01 2.6-2.14.78-1.35.77-2.12-.44-3.22-1.26-1.15-2.32-2.6-3.19-4.08-.92-1.56-.26-2.99 1.1-4.05 1.62-1.25 3.31-.9 4.6.38 1.81 1.81 3.38 3.87 4.86 5.59 1.09-2.3 2.15-4.66 3.32-6.96.27-.54.79-1.19 1.33-1.34 2.51-.73 2.22-1.98 1.07-3.79-1.39-2.19-.58-3.99 1.88-4.93 1.75-.67 3.03-1.92 4.13-3.63-4.4-.4-5.12-1.06-5.3-5.42-.11-2.69.26-5.33 2.23-7.5.42-.46.49-1.39.45-2.08-.13-2.43-.48-4.85-.54-7.28-.02-.82.6-1.66.93-2.49l-.07.07zm4.7 21.61c.21.05.42.09.64.14.28-.92.7-1.83.76-2.76.02-.38-.74-.8-1.4-1.45z"/><path d="m33.63 100.95c1.34-2.27 2.38-4.48 3.83-6.37 2.43-3.15 5.87-3.24 8.59-.39 2.37 2.48 2.57 5.65 1.9 8.68-.63 2.84-3.09 3.83-5.98 3.78 2.21 1.98 3.97 1.86 6.15.09 1.24-1.01 2.76-1.96 4.28-2.23.9-.16 2.58.81 2.95 1.68.41.98.18 2.87-.54 3.56-2 1.93-4.38 3.47-6.66 5.1-1.24.89-2.58 1.63-3.87 2.45-.17.11-.35.39-.47.36-2.99-.65-3.03 1.67-3.78 3.52-2.24 5.55-2.51 11.26-1.86 17.1.08.68-.13 1.4-.23 2.31.45-.13.84-.18 1.17-.34 3.58-1.75 5.83-1.18 7.81 2.2 1.01 1.73 1.74 3.62 2.66 5.57 1.82.07 3.37-1.35 3.54-3.5.15-2.01 1.24-3.16 2.97-3.17 1.76 0 3.39 1.43 3.05 3.3-.42 2.3-1.4 4.5-2.23 6.72-.26.69-.8 1.27-1.25 1.96 3.16.42 6.14.73 9.08 1.28.83.16 1.8.91 2.2 1.66.41.79.59 2.14.17 2.81-.46.74-1.7 1.29-2.63 1.35-1.53.1-3.09-.26-4.81-.03.46.32.91.68 1.39.96 1.24.73 2.47 1.38 2.12 3.22-.36 1.88-1.51 2.72-3.3 2.8-5.25.24-10.16-.65-14.08-4.6-1.14 3.33-1.7 3.62-5.13 2.99-.82-.15-1.71-.13-2.55 0-2 .29-3.42-.46-3.93-2.2-.4-1.35.73-3.06 2.45-3.74 1.16-.46 2.38-.82 3.43-1.46.57-.34 1.13-1.17 1.16-1.8.04-.87-.6-.95-1.59-.95-1.34 0-2.73-.68-4.02-1.25-1.77-.78-2.66-3.85-1.77-6.05.8-1.98 1.73-3.91 2.56-5.77-.97 0-2.53.44-3.04-.1-.85-.9-1.13-2.42-1.44-3.72-.4-1.69-.73-3.42-.85-5.15-.14-2.07-.02-4.16-.04-6.24-.01-1.24-.05-2.5-1.87-3.17 0 1.41-.18 2.67.04 3.85.47 2.49-.07 3.93-2.02 4.62-1.55.55-3.8-.46-4.15-2.64-.6-3.73-.76-7.57-.62-11.35.08-2.05 1.62-3.53 3.99-3.73 1.05-.09 2.06-.51 3.08-.77.22-1.61.79-3.25.56-4.78-.22-1.49-.95-3.14-1.98-4.2-1.53-1.56-2.49-3.1-2.23-5.32.23-2.03.22-4.1.59-6.1.32-1.69 1.61-2.41 3.35-2.2 1.66.2 2.8.96 2.89 2.78.09 1.81.1 3.62.27 5.42.05.51.56.97.7 1.19z"/><path d="m57.26 81.24c-1.21.96-2.29 1.6-3.06 2.49-.86.99-1.49 2.19-2.12 3.35-.74 1.37-1.77 2.26-3.37 2.05-1.55-.2-3.42-2.22-3.03-3.67.62-2.34 1.58-4.62 2.69-6.78 1.14-2.22 4.3-4.36 6.67-4.94-1.57-4.15-.42-7.88 1.96-11.34 2.47-3.6 6.81-4.48 10.11-1.76 1.22 1 1.79 2.89 2.41 4.47.31.8.05 1.82.05 2.74.18.08.35.16.53.24.52-.89 1.13-1.73 1.53-2.67.88-2.05 1.44-4.28 2.54-6.2 1.34-2.33 3.18-2.47 5.75-.92 1.31.79 1.84 3.38.9 5.03-1.66 2.92-3.4 5.81-5.12 8.7-1.59 2.67-1.6 2.66-3.43 3.17-.14 1.13-.28 2.25-.4 3.2 1.56 1.04 3.01 2.3 4.67 3.05 3.12 1.41 2.87 4.02 2.31 6.46-.62 2.66-1.72 5.24-2.85 7.74-.97 2.14-2.84 2.74-4.45 1.74-1.36-.84-1.79-1.89-1.26-3.58.47-1.52.36-3.23.5-4.86-1.63-.02-3.33-.33-4.86.03-1.3.31-2.38 1.48-3.63 2.15-3.63 1.95-5.1 5.89-7.99 8.5-.68.62-2.07 1.29-2.65.99-.97-.49-2-1.66-2.22-2.7-.93-4.51.38-7.26 4.65-9.25 3.53-1.64 3.87-3.01 3.18-7.46z"/><path d="m111.19 101.72c-1.44 1.28-3.01 2.43-4.83.88-.69-.59-1.08-1.74-1.24-2.7-.27-1.65 0-3.4-.39-5.01-.77-3.24-4.53-4.35-7.2-2.34-2.24 1.68-4.48 3.39-6.86 4.84-1.9 1.15-3.83.63-4.67-.86-.89-1.6-.07-3.55 1.8-4.79 1.37-.91 2.61-2.02 3.86-3.1.18-.16.07-.66.1-1.22-4.33.94-5.88-2.3-6.97-5.16-1.19-3.09.26-5.95 2.89-8.06 3.51-2.81 7.01-1.65 11.13-.14-.45-1.83-.89-3.66-1.35-5.49-.3-1.21-.86-2.4-.89-3.62-.03-1.54.95-2.59 2.52-2.91 1.52-.31 2.57.29 3.45 1.59 2.52 3.7 3.39 7.76 2.79 12.14-.17 1.23.27 1.69 1.38 2.13 1.28.51 2.46 1.35 3.59 2.17 1.08.79 1.98 1.16 3.52 1.03 5.77-.51 8.6 2.15 9.82 7.79.4 1.84-1.19 3.01-2.7 3.18-1.03.12-2.54-.66-3.25-1.53-1.82-2.24-3.27-2.7-5.52-.95-.46.36-.62 1.36-.59 2.05.04.81.5 1.59.7 2.4.58 2.38.85 4.72-1.09 6.73-.18.19-.06.67-.08 1.02 0 0 .07-.07.07-.07z"/></g></svg>