<svg viewBox="0 0 218.46 218.46" xmlns="http://www.w3.org/2000/svg"><g fill="#0009b9"><path d="m59.66 73.16c3.07 5.63 1.54 10.37-3.24 14.45.23.16.47.32.7.48.74-.22 1.59-.27 2.19-.69 2.62-1.82 5.15-3.77 7.75-5.62.68-.48 1.47-.84 2.25-1.15 2.67-1.03 4.18.15 3.88 3.04-.53 5.07-2.61 9.14-7.45 11.42-.34.16-.78.43-.88.74-1.3 3.95-1.18 7.8.45 11.69 1.07 2.55 2.17 5 4.46 6.63 1.01.72 2.31 1.05 3.48 1.55.29-1.81.56-3.19.71-4.58.2-1.82 1.52-2.44 2.96-2.41 1.56.04 3.04.95 3.01 2.68-.04 1.97 1.22 2.96 2.37 4.04 1.89 1.77 3 1.64 4.61-.5.85 2.88 3.39 2.14 5.34 2.57 1.37.3 2.84.2 4.26.13.67-.03 1.46-.23 1.98-.64 2.04-1.61 4.04-3.29 5.96-5.04 1.17-1.07 2.51-1.65 3.83-.9.93.52 1.84 1.64 2.1 2.66.35 1.43-.32 2.7-1.88 3.4-.66.3-1.09 1.09-1.2 1.21 1.7 1.37 3.8 2.27 4.4 3.77.62 1.55-.24 3.68-.45 5.57 5.78.93 11.32.59 11.98-.75-1.73-.4-3.53-.65-5.2-1.25-2.73-.99-4.63-3.04-5.43-5.78-.28-.97.29-2.48.97-3.35.76-.96 2-.97 3.44-.64 2.58.59 5.3.58 7.96.8 1.42.12 3.03-.42 3.9 1.38.09.19 1.07.19 1.46-.03 4.01-2.24 8.04-4.46 11.95-6.88 2.12-1.31 2.93-3.59 3.29-5.96.32-2.11 2.3-4.01 4.08-3.77 2.75.38 3.93 2.16 3.24 4.9-.4 1.62-.79 3.24-1.17 4.81 2.4.23 4.89.13 6.82 2.19.34.36 1.86.19 2.36-.26 4.38-4.02 7.29-8.74 6.41-15.03-.18-.06-.36-.11-.54-.17-.35 1.25-.83 2.48-1.04 3.75-.53 3.25-2.34 5.48-5.53 5.96-1.18.18-2.82-.16-3.67-.91-1.18-1.04-1.15-2.76-.34-4.22.84-1.54 1.85-2.98 2.64-4.54 1.4-2.8 1.01-4.15-1.24-6.29-1.01-.96-2.68-1.36-2.9-3.12 0-.04-1.42-.19-1.66.12-1.63 2.03-3.47 2.09-5.88 1.47-1.36-.35-3.06.42-4.55.86-1.62.48-3.15 1.14-4.79.08-1.42-.91-2.68-1.89-2.49-3.83.22-2.23 1.96-3.11 3.6-4.06.91-.52 1.78-1.21 2.76-1.46.99-.25 2.14-.25 3.14-.01 1.15.27 2.21.92 3.74 1.59-.07-1.15.09-1.82-.17-2.17-1.56-2.11-1.18-4.38-.85-6.72.1-.71-.19-1.92-.69-2.18-2.39-1.28-4.88-2.41-7.42-3.37-.87-.33-2.32-.45-1.84 1.49 1.02.21 2.1.28 3.06.66 1.01.39 2.75.27 2.53 1.95-.16 1.21-.6 2.76-1.48 3.45-2.96 2.31-6.3 4.1-10.09 4.66-1.35.2-2.86.02-4.17-.39-2.45-.77-3.11-3.46-1.53-5.49.3-.39.68-.74.9-1.17.99-1.9.4-2.93-1.73-3.09-4.07-.29-10.08-3.99-11.61-7.27-2.91 1.18-5.86 2.32-8.76 3.56-1.65.71-3.03.09-3.61-1.24-.44-1.01-.45-2.98.21-3.57 2.9-2.61 6.11-4.88 9.5-7.49-.08-.17-.32-.89-.7-1.51-1.38-2.28-1.2-4.6.46-6.47 1.67-1.89 3.62-3.64 5.74-4.98 3.87-2.45 7.63-.91 9.22 3.36.38 1.01 1.08 1.91 1.95 3.41 1.01-1.4 1.9-2.65 2.8-3.88.58-.79 1.05-1.73 1.8-2.31 1.99-1.55 3.92-1.58 5.41-.3 1.82 1.57 2.54 5 1.14 7.2-1.37 2.14-2.92 4.17-5.55 5.15-.87.33-1.32 1.74-1.97 2.66 1.21.39 1.34 2.03 3.52 1.72 4.85-.68 9.86-.49 14.79-.3 2.06.08 3.2 1.97 2.99 3.72-.21 1.71-2.42 3.73-4.35 3.72-1.47-.01-2.94-.53-4.41-.53-1.49 0-2.98.37-4.79.62 3.45 1.81 6.33 3.35 9.24 4.82.39.2 1.02.12 1.47-.04 2.27-.82 4.5-1.75 6.78-2.55.39-.14 1.01.03 1.4.26 1.76 1.03 3.62 1.95 5.16 3.25 2.19 1.85 1.44 6.12-1.47 8.45 1.53.59 2.45.64 3.16-1.12 2.42-5.96 6.72-9.02 12.01-8.68 1.81.11 3.63.5 4.05 2.67.39 2.03-.3 3.37-2.44 4.28-2.1.89-3.95 2.4-5.78 3.81-.46.35-.54 1.35-.57 2.07-.11 2.72 2.63 3.86 3.49 6.07.56 1.42 1.61 2.76 1.75 4.2.35 3.56-.12 7.07-2.2 10.15-1.82 2.68-3.96 3.28-6.43 2.18-2.43 2.97-4.79 5.83-7.13 8.72-.25.31-.51.74-.49 1.1.1 1.51.3 3.02.48 4.65.64-.33 1.45-.7 2.21-1.15 1.47-.86 3.61-.61 4.54.59 1.03 1.32.95 3.62-.65 4.56-3.87 2.27-7.1 5.65-12.1 5.98-5.77.37-11.52 1.2-17.22 2.2-2.35.41-4.64 1.57-6.77 2.74-6.09 3.34-12.17 3.1-18.29.3-1.56-.71-2.62-1.95-2.59-3.83.01-.71 0-1.41 0-2.15-2.44.57-2.97 1.66-1.86 3.54 1.37 2.32.7 3.99-1.79 4.88-4.45 1.59-8.27.73-11.68-2.53-1.61-1.55-3.56-1.86-5.65-.8-3.28 1.67-6.67 2.19-10.28 1.15-.63-.18-1.4.17-2.1.16-2.74-.04-5.53.16-8.18-.35-1.1-.21-2.56-1.92-2.66-3.05-.09-1.08 1.28-2.37 2.18-3.42 1.54-1.81 3.89-1.32 5.89-1.85 1.18-.31 2.31-.81 3.46-1.22-.02-.21-.03-.42-.05-.62-.75-.09-1.74-.53-2.21-.21-3.61 2.48-6.74.28-10-.83-3-1.02-5.44-2.65-7.15-5.42-.84-1.37-2.04-2.54-3.21-3.66-.32-.3-1.14-.18-1.7-.08-.3.06-.54.49-.8.75.35.28.66.65 1.06.82 1.84.81 2.22 2.31 1.89 4.06-.76 3.96-2.5 4.97-6.56 3.92-6.97-1.81-8.21-4.37-9.12-10.49-.48-3.2 1.69-5.71 5.64-7.06.26-.09.56-.09 1.24-.18-.86-.99-1.51-1.86-2.28-2.6-1.47-1.42-2.47-3-2.67-5.12-.05-.53-.97-1.14-1.62-1.42-2.63-1.14-5.44-1.95-7.95-3.3-2.43-1.31-2.58-4.51-.67-6.78 1.49-1.77 3.76-1.77 5.68.32 1.99 2.16 4.63 1.88 7.08 2.24.52.08 1.19-.95 1.8-1.46-.45-.35-.84-.84-1.35-1.02-2.39-.82-3.16-2.77-3.29-4.95-.51-8.41 2.51-9.63 8.94-11.67 2-.63 4.22-.55 6.32-.8-.84-2.97 1.25-6.99 4.2-8.33 4.08-1.85 8.13-3.77 12.11-5.83.93-.48 1.44-1.71 2.21-2.54 1.24-1.33 2.82-2.45 3.73-3.98.81-1.36.91-3.15 1.36-4.88-2.9-.25-5.36-.41-7.8-.7-1.24-.15-2.5-.41-3.68-.8-1.89-.63-2.5-2.08-2.36-4.02.16-2.1 1.59-3.04 3.3-3.19 2.32-.2 4.69 0 7.03.13 2.86.15 5.72.4 8.59.36-2.69-2.15-4.16-6.73-2.95-10.06 1.56-4.27 4.32-6.39 10.16-6.61 4.29-.16 6.19 2.91 8.42 9.66.61-.52 1.14-.98 1.69-1.41 1.97-1.55 3.85-3.26 5.98-4.57 1.1-.68 1.27-1.16 1.05-2.32-.97-5.04 2.33-9.65 6.15-11.51 1.85-.9 4.6-.4 6.84.04 2.83.55 6.4 6.92 5.23 10.45-2.3 6.96-6.45 7.01-12.86 5.6-.81-.18-1.59-.48-2.52-.77-.37 4.51-1.69 8.46-5.02 11.48-.83.75-1.79 1.34-2.65 2.06-1.67 1.39-3.25 2.6-3.63 5.2-.4 2.75-1.91 5.33-3.02 8.2.47.2 1.29.56 2.11.91 1.6.68 2.45 2.43 1.66 3.99-3.08 6.11-7.01 11.41-13.83 13.81-.73.26-1.37.75-2.09 1-1.53.53-2.85.04-3.76-1.24-.93-1.31-.77-2.61.27-3.9 1.23-1.51 2.31-3.14 3.47-4.73-2.98-1.61-4.67-1.48-6.77.75-5.29 5.62-12.22 8.04-19.78 10.28zm59.17-49.34c2.13-.35 5.37.48 6.28-3.32.53-2.21 1.05-4.58-.7-6.42-1.8-1.89-4.03-3.12-6.79-1.82-.36.17-1.01.55-.99.6.89 2.13-1.28 1.68-2.01 2.43-.69.71-1.8 1.37-1.93 2.19-.53 3.32 2.28 6.35 6.14 6.35zm-22.21.28c-.48-1.73-1.84-2.24-3.73-2.01-1.53.19-3.09.22-4.46.31 2.7.56 5.45 1.13 8.19 1.7zm-47.75 49.87c-3.71.88-5.07 2.18-5.08 4.66 1.63-1.49 3.33-3.06 5.08-4.66zm30.19 49.53c-.85-1.02-1.75-2.09-2.66-3.17.09 1.09.17 2.1.26 3.17zm44.25-79.1c-1.86-2.17-3.07-2.48-5.05-1.5 1.6.48 3.23.96 5.05 1.5zm7.85 16.23.41-.56c-1.05-.91-2.09-1.83-3.18-2.68-.06-.05-.55.44-.94.76 1.35.9 2.53 1.69 3.71 2.48z"/><path d="m147.22 194.98c-2.52-.96-3.54-2.38-2.87-5.27.72-3.08 1.7-6.14 3-9.01 1.41-3.1 7.57-3.33 10.31-.63.78.77 1.45 2.56 2.75 1.33.59-.56.13-2.28.08-3.47-.07-1.76-.63-3.64-.19-5.25.5-1.82 3.37-2.38 4.34-.88 1.74 2.71 4.43 5.14 3.94 8.83-.13.96-.78 1.85-1.18 2.78-.18.43-.32.89-.48 1.32 2.58 1.24 3.58.94 4.64-1.56.87-2.07 1.83-3.63 4.51-3.65 1.18 0 2.32-1.23 3.54-1.77 3.39-1.5 5.81-.43 6.9 3.11.63 2.04 1.64 4.07.29 6.32-.55.92-.17 1.98 1.31 1.98.41 0 .82.1 1.24.11 1.76.05 2.99.86 3.28 2.63.31 1.84-.76 3.25-2.39 3.46-3.69.47-7.43.55-11.16.75-1.05.06-2.1-.02-3.15-.02-1.26 0-2.53 0-3.79 0-2.24.01-4.48.05-6.71.06-1.57 0-3.19-.27-4.7.04-2.56.53-4.09 2.24-4.62 4.89-.41 2.07-.87 4.17-1.7 6.09-.43.98-1.59 1.95-2.64 2.29-1.62.53-2.57-.8-3.26-2.1-.23-.43-.36-.94-.4-1.42-.31-3.57-.59-7.15-.9-10.95z"/><path d="m123.8 157.63c4.18-2.3 7.14-2.02 10.56.89 1.33 1.13 1.37 3.63-.19 5.38-1.1 1.23-1.1 1.76.21 2.95 2.3 2.1 4.28 4.57 6.28 6.98 1.19 1.43.64 4.46-.82 5.61-1.47 1.16-3.75.82-5.06-.93-.88-1.17-1.43-2.59-2.29-3.77-.37-.51-1.15-.72-1.75-1.07-.25.56-.62 1.1-.73 1.68-.17.96-.07 1.98-.27 2.93-.57 2.8 1.88 7.08 4.75 8.08.37.13.88.13 1.24-.02 1.7-.7 3.06-.21 4.7.56 1.84.86 2.32 2.16 2.07 3.68-.26 1.62-1.33 3.03-3.2 3.12-1.99.1-4.04.25-5.97-.13-4.3-.84-8.49-.58-12.84-.16-4.24.41-8.84.54-12.64-2.44-.9-.71-2.26-1.02-2.86-1.9-1.21-1.79-.26-4 1.96-4.33 2.35-.35 4.81-.35 7.19-.11 2.66.27 4.75-.93 6.03-3.21 3.2-5.66.7-10.6-1.63-15.57-1.17-2.51-1.34-5-1.34-7.74 0-4.64 1.74-8.47 4.06-12.24 2.44-3.95 6.88-4.16 10.38-3.2.77.21 1.65 1.74 1.66 2.68.04 2.52-1.17 3.89-3.02 4.27-5.32 1.09-6.32 3.19-6.48 8.01z"/><path d="m79.63 184.1c0-1.66.08-3.29-.02-4.91-.14-2.34-1.22-4.21-2.46-6.25-3.53-5.83-3.57-12.14-.9-18.36 1.32-3.08 2.87-6.09 4.58-8.97 1.4-2.34 6.57-1.89 7.51.66.36.97-.36 2.33-.64 3.76.21.19.67.61 1.68 1.53-1.06 0-1.74.21-2.07-.04-1.39-1.06-2.52-.27-3.09.73-1.12 1.97-1.89 4.15-2.6 6.32 1.88-1.42 6.45-2.38 8.14-1.38 2.71 1.61 3.9 3.17 3.45 6.42-.16 1.18-1.26 2.21-1.82 3.36-.2.41-.27 1.21-.02 1.46 1.07 1.09 2.75 1.81 3.36 3.08 1.47 3.07 2.68 6.3 3.57 9.59.54 1.99-.82 3.71-2.58 4.03-2.03.37-3.09-.81-3.84-2.53-.42-.98-1.1-1.84-1.66-2.76-.25.1-.49.2-.74.3 0 1.11-.16 2.24.04 3.31.28 1.57.64 3.04 2.87 3.18 2.35.15 4.77.54 6.98 1.33 1.37.49 2.64 1.75 3.49 2.98.42.6.13 2.21-.43 2.86-.66.77-1.95 1.32-2.98 1.35-1.13.03-2.25-.77-3.41-.98-3.51-.62-7.02-1.36-10.57-1.6-1.81-.12-3.73.59-5.51 1.21-2.14.74-4.19 1.24-6.4.33-1.33-.55-1.84-1.31-1.48-2.8.92-3.73 1.61-5.66 7.54-7.22z"/><path d="m51.35 186.79c1.31-4.55 3.17-8.63 5.75-12.3.93-1.32 2.89-1.36 4.22-.34 1.26.96 2.88 2.01 1.57 4.2-.69 1.16-.92 2.6-1.54 4.45 4.55-2.5 7.04.47 9.6 2.72 1.81 1.6 1.17 6.06-.79 7.53-1.89 1.42-3.8 2.81-5.92 4.38.33 1.31.91 2.92 1.11 4.58.22 1.82.76 3.79-1.37 5.13-1.75 1.11-2.98.34-4.48-1.31-.63-.7-1.31-1.43-2.13-1.86-1.78-.94-2.94-2.15-3.85-4.08-.55-1.19-2.74-2.23-4.21-2.24-3.37-.03-5.97 2.06-8.51 4.15-1.93 1.59-4.08 2.94-6.18 4.31-1.53 1-3.04.64-4.2-.65-1.24-1.39-.86-2.91.23-4.21 1.99-2.37 4-4.72 6.11-6.98.82-.88 1.18-1.56.23-2.5-1.12-1.1-2.3-2.14-3.33-3.32-1.86-2.13-4.01-4.13-5.33-6.57-1.22-2.27 1.58-5.16 3.91-4.1 3.02 1.37 6.31 1.99 8.77 4.99 2.43 2.96 5.9 5.61 10.32 4.02z"/></g></svg>